<?xml version="1.0" encoding="UTF-8" standalone="no"?>
<!DOCTYPE svg PUBLIC "-//W3C//DTD SVG 1.1//EN"
 "http://www.w3.org/Graphics/SVG/1.1/DTD/svg11.dtd">
<!-- Generated by graphviz version 2.26.3 (20100126.1600)
 -->
<!-- Title: G Pages: 1 -->
<svg width="472pt" height="1326pt"
 viewBox="0.00 0.00 472.00 1326.00" xmlns="http://www.w3.org/2000/svg" xmlns:xlink="http://www.w3.org/1999/xlink">
<g id="graph1" class="graph" transform="scale(1 1) rotate(0) translate(4 1322)">
<title>G</title>
<polygon fill="white" stroke="white" points="-4,5 -4,-1322 469,-1322 469,5 -4,5"/>
<g id="graph2" class="cluster"><title>cluster_OSS_SNMP</title>
<polyline fill="none" stroke="gray" points="20,-44 444,-44 "/>
<path fill="none" stroke="gray" d="M444,-44C450,-44 456,-50 456,-56"/>
<polyline fill="none" stroke="gray" points="456,-56 456,-1298 "/>
<path fill="none" stroke="gray" d="M456,-1298C456,-1304 450,-1310 444,-1310"/>
<polyline fill="none" stroke="gray" points="444,-1310 20,-1310 "/>
<path fill="none" stroke="gray" d="M20,-1310C14,-1310 8,-1304 8,-1298"/>
<polyline fill="none" stroke="gray" points="8,-1298 8,-56 "/>
<path fill="none" stroke="gray" d="M8,-56C8,-50 14,-44 20,-44"/>
<text text-anchor="middle" x="232" y="-1296.1" font-family="Times Roman,serif" font-size="11.00" fill="gray">OSS_SNMP</text>
</g>
<g id="graph3" class="cluster"><title>cluster_OSS_SNMP\Cache</title>
<polyline fill="none" stroke="gray" points="363,-1152 409,-1152 "/>
<path fill="none" stroke="gray" d="M409,-1152C415,-1152 421,-1158 421,-1164"/>
<polyline fill="none" stroke="gray" points="421,-1164 421,-1268 "/>
<path fill="none" stroke="gray" d="M421,-1268C421,-1274 415,-1280 409,-1280"/>
<polyline fill="none" stroke="gray" points="409,-1280 363,-1280 "/>
<path fill="none" stroke="gray" d="M363,-1280C357,-1280 351,-1274 351,-1268"/>
<polyline fill="none" stroke="gray" points="351,-1268 351,-1164 "/>
<path fill="none" stroke="gray" d="M351,-1164C351,-1158 357,-1152 363,-1152"/>
<text text-anchor="middle" x="386" y="-1266.1" font-family="Times Roman,serif" font-size="11.00" fill="gray">Cache</text>
</g>
<g id="graph4" class="cluster"><title>cluster_OSS_SNMP\MIBS</title>
<polyline fill="none" stroke="gray" points="182,-258 436,-258 "/>
<path fill="none" stroke="gray" d="M436,-258C442,-258 448,-264 448,-270"/>
<polyline fill="none" stroke="gray" points="448,-270 448,-1132 "/>
<path fill="none" stroke="gray" d="M448,-1132C448,-1138 442,-1144 436,-1144"/>
<polyline fill="none" stroke="gray" points="436,-1144 182,-1144 "/>
<path fill="none" stroke="gray" d="M182,-1144C176,-1144 170,-1138 170,-1132"/>
<polyline fill="none" stroke="gray" points="170,-1132 170,-270 "/>
<path fill="none" stroke="gray" d="M170,-270C170,-264 176,-258 182,-258"/>
<text text-anchor="middle" x="309" y="-1130.1" font-family="Times Roman,serif" font-size="11.00" fill="gray">MIBS</text>
</g>
<g id="graph5" class="cluster"><title>cluster_OSS_SNMP\MIBS\Asterisk</title>
<polyline fill="none" stroke="gray" points="344,-564 428,-564 "/>
<path fill="none" stroke="gray" d="M428,-564C434,-564 440,-570 440,-576"/>
<polyline fill="none" stroke="gray" points="440,-576 440,-680 "/>
<path fill="none" stroke="gray" d="M440,-680C440,-686 434,-692 428,-692"/>
<polyline fill="none" stroke="gray" points="428,-692 344,-692 "/>
<path fill="none" stroke="gray" d="M344,-692C338,-692 332,-686 332,-680"/>
<polyline fill="none" stroke="gray" points="332,-680 332,-576 "/>
<path fill="none" stroke="gray" d="M332,-576C332,-570 338,-564 344,-564"/>
<text text-anchor="middle" x="386" y="-678.1" font-family="Times Roman,serif" font-size="11.00" fill="gray">Asterisk</text>
</g>
<g id="graph6" class="cluster"><title>cluster_OSS_SNMP\MIBS\Cisco</title>
<polyline fill="none" stroke="gray" points="363,-266 409,-266 "/>
<path fill="none" stroke="gray" d="M409,-266C415,-266 421,-272 421,-278"/>
<polyline fill="none" stroke="gray" points="421,-278 421,-544 "/>
<path fill="none" stroke="gray" d="M421,-544C421,-550 415,-556 409,-556"/>
<polyline fill="none" stroke="gray" points="409,-556 363,-556 "/>
<path fill="none" stroke="gray" d="M363,-556C357,-556 351,-550 351,-544"/>
<polyline fill="none" stroke="gray" points="351,-544 351,-278 "/>
<path fill="none" stroke="gray" d="M351,-278C351,-272 357,-266 363,-266"/>
<text text-anchor="middle" x="386" y="-542.1" font-family="Times Roman,serif" font-size="11.00" fill="gray">Cisco</text>
</g>
<!-- \\OSS_SNMP\\Cache\\APC -->
<g id="node3" class="node"><title>\\OSS_SNMP\\Cache\\APC</title>
<a xlink:href="Cache.APC.html" xlink:title="APC" target="_parent">
<polygon fill="none" stroke="black" points="413,-1250 359,-1250 359,-1214 413,-1214 413,-1250"/>
<text text-anchor="middle" x="386" y="-1229.1" font-family="Courier,monospace" font-size="11.00">APC</text>
</a>
</g>
<!-- \\OSS_SNMP\\Cache -->
<g id="node26" class="node"><title>\\OSS_SNMP\\Cache</title>
<a xlink:href="Cache.html" xlink:title="«abstract»&lt;br/&gt;Cache" target="_parent">
<polygon fill="none" stroke="black" points="247,-1223 163,-1223 163,-1187 247,-1187 247,-1223"/>
<text text-anchor="start" x="171" y="-1210.43" font-family="Courier,monospace" font-size="11.00">«abstract»</text>
<text text-anchor="start" x="188" y="-1197.23" font-family="Courier,monospace" font-size="11.00">Cache</text>
</a>
</g>
<!-- \\OSS_SNMP\\Cache\\APC&#45;&gt;\\OSS_SNMP\\Cache -->
<g id="edge9" class="edge"><title>\\OSS_SNMP\\Cache\\APC&#45;&gt;\\OSS_SNMP\\Cache</title>
<path fill="none" stroke="black" d="M358.902,-1227.96C332.269,-1223.98 290.913,-1217.82 257.776,-1212.87"/>
<polygon fill="none" stroke="black" points="258.189,-1209.4 247.782,-1211.38 257.156,-1216.32 258.189,-1209.4"/>
</g>
<!-- \\OSS_SNMP\\Cache\\Basic -->
<g id="node4" class="node"><title>\\OSS_SNMP\\Cache\\Basic</title>
<a xlink:href="Cache.Basic.html" xlink:title="Basic" target="_parent">
<polygon fill="none" stroke="black" points="413,-1196 359,-1196 359,-1160 413,-1160 413,-1196"/>
<text text-anchor="middle" x="386" y="-1175.1" font-family="Courier,monospace" font-size="11.00">Basic</text>
</a>
</g>
<!-- \\OSS_SNMP\\Cache\\Basic&#45;&gt;\\OSS_SNMP\\Cache -->
<g id="edge11" class="edge"><title>\\OSS_SNMP\\Cache\\Basic&#45;&gt;\\OSS_SNMP\\Cache</title>
<path fill="none" stroke="black" d="M358.902,-1182.04C332.269,-1186.02 290.913,-1192.18 257.776,-1197.13"/>
<polygon fill="none" stroke="black" points="257.156,-1193.68 247.782,-1198.62 258.189,-1200.6 257.156,-1193.68"/>
</g>
<!-- \\OSS_SNMP\\MIBS\\Asterisk\\Indications -->
<g id="node7" class="node"><title>\\OSS_SNMP\\MIBS\\Asterisk\\Indications</title>
<a xlink:href="MIBS.Asterisk.Indications.html" xlink:title="Indications" target="_parent">
<polygon fill="none" stroke="black" points="431,-608 341,-608 341,-572 431,-572 431,-608"/>
<text text-anchor="middle" x="386" y="-587.1" font-family="Courier,monospace" font-size="11.00">Indications</text>
</a>
</g>
<!-- \\OSS_SNMP\\MIB -->
<g id="node30" class="node"><title>\\OSS_SNMP\\MIB</title>
<a xlink:href="MIB.html" xlink:title="MIB" target="_parent">
<polygon fill="none" stroke="black" points="70,-658 16,-658 16,-622 70,-622 70,-658"/>
<text text-anchor="middle" x="43" y="-637.1" font-family="Courier,monospace" font-size="11.00">MIB</text>
</a>
</g>
<!-- \\OSS_SNMP\\MIBS\\Asterisk\\Indications&#45;&gt;\\OSS_SNMP\\MIB -->
<g id="edge21" class="edge"><title>\\OSS_SNMP\\MIBS\\Asterisk\\Indications&#45;&gt;\\OSS_SNMP\\MIB</title>
<path fill="none" stroke="black" d="M341.491,-608.123C337.973,-610.734 334.731,-613.682 332,-617 264.293,-699.251 350.174,-780.199 268,-848 246.335,-865.876 230.301,-865.198 205,-853"/>
<path fill="none" stroke="black" d="M205,-853C179.699,-840.802 165.136,-863.926 142,-848 80.4182,-805.609 55.9839,-714.215 47.2822,-667.99"/>
<polygon fill="none" stroke="black" points="50.7132,-667.292 45.525,-658.055 43.8201,-668.511 50.7132,-667.292"/>
</g>
<!-- \\OSS_SNMP\\MIBS\\Asterisk\\Channels -->
<g id="node8" class="node"><title>\\OSS_SNMP\\MIBS\\Asterisk\\Channels</title>
<a xlink:href="MIBS.Asterisk.Channels.html" xlink:title="Channels" target="_parent">
<polygon fill="none" stroke="black" points="421,-662 351,-662 351,-626 421,-626 421,-662"/>
<text text-anchor="middle" x="386" y="-641.1" font-family="Courier,monospace" font-size="11.00">Channels</text>
</a>
</g>
<!-- \\OSS_SNMP\\MIBS\\Asterisk\\Channels&#45;&gt;\\OSS_SNMP\\MIB -->
<g id="edge23" class="edge"><title>\\OSS_SNMP\\MIBS\\Asterisk\\Channels&#45;&gt;\\OSS_SNMP\\MIB</title>
<path fill="none" stroke="black" d="M350.482,-653.45C343.678,-656.561 337.097,-660.649 332,-666 272.865,-728.09 335.951,-795.705 268,-848 245.741,-865.131 230.301,-865.198 205,-853"/>
</g>
<!-- \\OSS_SNMP\\MIBS\\Cisco\\CDP -->
<g id="node10" class="node"><title>\\OSS_SNMP\\MIBS\\Cisco\\CDP</title>
<a xlink:href="MIBS.Cisco.CDP.html" xlink:title="CDP" target="_parent">
<polygon fill="none" stroke="black" points="413,-526 359,-526 359,-490 413,-490 413,-526"/>
<text text-anchor="middle" x="386" y="-505.1" font-family="Courier,monospace" font-size="11.00">CDP</text>
</a>
</g>
<!-- \\OSS_SNMP\\MIBS\\Cisco -->
<g id="node18" class="node"><title>\\OSS_SNMP\\MIBS\\Cisco</title>
<a xlink:href="MIBS.Cisco.html" xlink:title="Cisco" target="_parent">
<polygon fill="none" stroke="black" points="232,-445 178,-445 178,-409 232,-409 232,-445"/>
<text text-anchor="middle" x="205" y="-424.1" font-family="Courier,monospace" font-size="11.00">Cisco</text>
</a>
</g>
<!-- \\OSS_SNMP\\MIBS\\Cisco\\CDP&#45;&gt;\\OSS_SNMP\\MIBS\\Cisco -->
<g id="edge35" class="edge"><title>\\OSS_SNMP\\MIBS\\Cisco\\CDP&#45;&gt;\\OSS_SNMP\\MIBS\\Cisco</title>
<path fill="none" stroke="black" d="M358.717,-494.352C323.955,-476.963 268.29,-449.123 268,-449 259.626,-445.461 250.467,-442.025 241.79,-438.961"/>
<polygon fill="none" stroke="black" points="242.861,-435.628 232.267,-435.674 240.577,-442.245 242.861,-435.628"/>
</g>
<!-- \\OSS_SNMP\\MIBS\\Cisco\\MST -->
<g id="node11" class="node"><title>\\OSS_SNMP\\MIBS\\Cisco\\MST</title>
<a xlink:href="MIBS.Cisco.MST.html" xlink:title="MST" target="_parent">
<polygon fill="none" stroke="black" points="413,-472 359,-472 359,-436 413,-436 413,-472"/>
<text text-anchor="middle" x="386" y="-451.1" font-family="Courier,monospace" font-size="11.00">MST</text>
</a>
</g>
<!-- \\OSS_SNMP\\MIBS\\Cisco\\MST&#45;&gt;\\OSS_SNMP\\MIBS\\Cisco -->
<g id="edge37" class="edge"><title>\\OSS_SNMP\\MIBS\\Cisco\\MST&#45;&gt;\\OSS_SNMP\\MIBS\\Cisco</title>
<path fill="none" stroke="black" d="M358.902,-449.958C327.979,-445.345 277.209,-437.771 242.499,-432.594"/>
<polygon fill="none" stroke="black" points="242.69,-429.084 232.283,-431.07 241.657,-436.007 242.69,-429.084"/>
</g>
<!-- \\OSS_SNMP\\MIBS\\Cisco\\VTP -->
<g id="node12" class="node"><title>\\OSS_SNMP\\MIBS\\Cisco\\VTP</title>
<a xlink:href="MIBS.Cisco.VTP.html" xlink:title="VTP" target="_parent">
<polygon fill="none" stroke="black" points="413,-418 359,-418 359,-382 413,-382 413,-418"/>
<text text-anchor="middle" x="386" y="-397.1" font-family="Courier,monospace" font-size="11.00">VTP</text>
</a>
</g>
<!-- \\OSS_SNMP\\MIBS\\Cisco\\VTP&#45;&gt;\\OSS_SNMP\\MIBS\\Cisco -->
<g id="edge39" class="edge"><title>\\OSS_SNMP\\MIBS\\Cisco\\VTP&#45;&gt;\\OSS_SNMP\\MIBS\\Cisco</title>
<path fill="none" stroke="black" d="M358.902,-404.042C327.979,-408.655 277.209,-416.229 242.499,-421.406"/>
<polygon fill="none" stroke="black" points="241.657,-417.993 232.283,-422.93 242.69,-424.916 241.657,-417.993"/>
</g>
<!-- \\OSS_SNMP\\MIBS\\Cisco\\RSTP -->
<g id="node13" class="node"><title>\\OSS_SNMP\\MIBS\\Cisco\\RSTP</title>
<a xlink:href="MIBS.Cisco.RSTP.html" xlink:title="RSTP" target="_parent">
<polygon fill="none" stroke="black" points="413,-364 359,-364 359,-328 413,-328 413,-364"/>
<text text-anchor="middle" x="386" y="-343.1" font-family="Courier,monospace" font-size="11.00">RSTP</text>
</a>
</g>
<!-- \\OSS_SNMP\\MIBS\\Cisco\\RSTP&#45;&gt;\\OSS_SNMP\\MIBS\\Cisco -->
<g id="edge41" class="edge"><title>\\OSS_SNMP\\MIBS\\Cisco\\RSTP&#45;&gt;\\OSS_SNMP\\MIBS\\Cisco</title>
<path fill="none" stroke="black" d="M358.717,-359.648C323.955,-377.037 268.29,-404.877 268,-405 259.626,-408.539 250.467,-411.975 241.79,-415.039"/>
<polygon fill="none" stroke="black" points="240.577,-411.755 232.267,-418.326 242.861,-418.372 240.577,-411.755"/>
</g>
<!-- \\OSS_SNMP\\MIBS\\Cisco\\SMST -->
<g id="node14" class="node"><title>\\OSS_SNMP\\MIBS\\Cisco\\SMST</title>
<a xlink:href="MIBS.Cisco.SMST.html" xlink:title="SMST" target="_parent">
<polygon fill="none" stroke="black" points="413,-310 359,-310 359,-274 413,-274 413,-310"/>
<text text-anchor="middle" x="386" y="-289.1" font-family="Courier,monospace" font-size="11.00">SMST</text>
</a>
</g>
<!-- \\OSS_SNMP\\MIBS\\Cisco\\SMST&#45;&gt;\\OSS_SNMP\\MIBS\\Cisco -->
<g id="edge43" class="edge"><title>\\OSS_SNMP\\MIBS\\Cisco\\SMST&#45;&gt;\\OSS_SNMP\\MIBS\\Cisco</title>
<path fill="none" stroke="black" d="M358.956,-302.49C349.832,-306.789 339.954,-312.336 332,-319 295.478,-349.596 306.4,-376.796 268,-405 260.252,-410.691 250.907,-415.004 241.814,-418.235"/>
<polygon fill="none" stroke="black" points="240.594,-414.95 232.135,-421.33 242.726,-421.618 240.594,-414.95"/>
</g>
<!-- \\OSS_SNMP\\MIBS\\Iface -->
<g id="node15" class="node"><title>\\OSS_SNMP\\MIBS\\Iface</title>
<a xlink:href="MIBS.Iface.html" xlink:title="Iface" target="_parent">
<polygon fill="none" stroke="black" points="413,-736 359,-736 359,-700 413,-700 413,-736"/>
<text text-anchor="middle" x="386" y="-715.1" font-family="Courier,monospace" font-size="11.00">Iface</text>
</a>
</g>
<!-- \\OSS_SNMP\\MIBS\\Iface&#45;&gt;\\OSS_SNMP\\MIB -->
<g id="edge13" class="edge"><title>\\OSS_SNMP\\MIBS\\Iface&#45;&gt;\\OSS_SNMP\\MIB</title>
<path fill="none" stroke="black" d="M358.911,-727.992C349.68,-732.274 339.746,-737.938 332,-745 292.172,-781.31 314.031,-819.967 268,-848 244.01,-862.61 230.301,-865.198 205,-853"/>
</g>
<!-- \\OSS_SNMP\\MIBS\\Bridge -->
<g id="node16" class="node"><title>\\OSS_SNMP\\MIBS\\Bridge</title>
<a xlink:href="MIBS.Bridge.html" xlink:title="Bridge" target="_parent">
<polygon fill="none" stroke="black" points="414,-790 358,-790 358,-754 414,-754 414,-790"/>
<text text-anchor="middle" x="386" y="-769.1" font-family="Courier,monospace" font-size="11.00">Bridge</text>
</a>
</g>
<!-- \\OSS_SNMP\\MIBS\\Bridge&#45;&gt;\\OSS_SNMP\\MIB -->
<g id="edge15" class="edge"><title>\\OSS_SNMP\\MIBS\\Bridge&#45;&gt;\\OSS_SNMP\\MIB</title>
<path fill="none" stroke="black" d="M357.421,-785.029C349.049,-789.18 340,-794.001 332,-799 279.986,-831.504 260.249,-879.636 205,-853"/>
</g>
<!-- \\OSS_SNMP\\MIBS\\LAG -->
<g id="node17" class="node"><title>\\OSS_SNMP\\MIBS\\LAG</title>
<a xlink:href="MIBS.LAG.html" xlink:title="LAG" target="_parent">
<polygon fill="none" stroke="black" points="413,-844 359,-844 359,-808 413,-808 413,-844"/>
<text text-anchor="middle" x="386" y="-823.1" font-family="Courier,monospace" font-size="11.00">LAG</text>
</a>
</g>
<!-- \\OSS_SNMP\\MIBS\\LAG&#45;&gt;\\OSS_SNMP\\MIB -->
<g id="edge17" class="edge"><title>\\OSS_SNMP\\MIBS\\LAG&#45;&gt;\\OSS_SNMP\\MIB</title>
<path fill="none" stroke="black" d="M358.777,-839.377C322.032,-855.416 255.369,-877.284 205,-853"/>
</g>
<!-- \\OSS_SNMP\\MIBS\\Cisco&#45;&gt;\\OSS_SNMP\\MIB -->
<g id="edge19" class="edge"><title>\\OSS_SNMP\\MIBS\\Cisco&#45;&gt;\\OSS_SNMP\\MIB</title>
<path fill="none" stroke="black" d="M177.879,-431.727C165.802,-434.947 152.066,-440.272 142,-449 90.7501,-493.434 62.3915,-570.947 50.2378,-612.245"/>
<polygon fill="none" stroke="black" points="46.8547,-611.346 47.493,-621.921 53.5891,-613.256 46.8547,-611.346"/>
</g>
<!-- \\OSS_SNMP\\MIBS\\Entity -->
<g id="node19" class="node"><title>\\OSS_SNMP\\MIBS\\Entity</title>
<a xlink:href="MIBS.Entity.html" xlink:title="Entity" target="_parent">
<polygon fill="none" stroke="black" points="414,-898 358,-898 358,-862 414,-862 414,-898"/>
<text text-anchor="middle" x="386" y="-877.1" font-family="Courier,monospace" font-size="11.00">Entity</text>
</a>
</g>
<!-- \\OSS_SNMP\\MIBS\\Entity&#45;&gt;\\OSS_SNMP\\MIB -->
<g id="edge25" class="edge"><title>\\OSS_SNMP\\MIBS\\Entity&#45;&gt;\\OSS_SNMP\\MIB</title>
<path fill="none" stroke="black" d="M357.193,-880.854C320.141,-880.831 254.654,-876.939 205,-853"/>
</g>
<!-- \\OSS_SNMP\\MIBS\\System -->
<g id="node20" class="node"><title>\\OSS_SNMP\\MIBS\\System</title>
<a xlink:href="MIBS.System.html" xlink:title="System" target="_parent">
<polygon fill="none" stroke="black" points="414,-952 358,-952 358,-916 414,-916 414,-952"/>
<text text-anchor="middle" x="386" y="-931.1" font-family="Courier,monospace" font-size="11.00">System</text>
</a>
</g>
<!-- \\OSS_SNMP\\MIBS\\System&#45;&gt;\\OSS_SNMP\\MIB -->
<g id="edge27" class="edge"><title>\\OSS_SNMP\\MIBS\\System&#45;&gt;\\OSS_SNMP\\MIB</title>
<path fill="none" stroke="black" d="M357.241,-921.731C321.341,-906.279 258.184,-878.641 205,-853"/>
</g>
<!-- \\OSS_SNMP\\MIBS\\BGP -->
<g id="node21" class="node"><title>\\OSS_SNMP\\MIBS\\BGP</title>
<a xlink:href="MIBS.BGP.html" xlink:title="BGP" target="_parent">
<polygon fill="none" stroke="black" points="413,-1006 359,-1006 359,-970 413,-970 413,-1006"/>
<text text-anchor="middle" x="386" y="-985.1" font-family="Courier,monospace" font-size="11.00">BGP</text>
</a>
</g>
<!-- \\OSS_SNMP\\MIBS\\BGP&#45;&gt;\\OSS_SNMP\\MIB -->
<g id="edge29" class="edge"><title>\\OSS_SNMP\\MIBS\\BGP&#45;&gt;\\OSS_SNMP\\MIB</title>
<path fill="none" stroke="black" d="M358.922,-976.046C350.086,-971.734 340.394,-966.55 332,-961 270.193,-920.135 271.743,-885.178 205,-853"/>
</g>
<!-- \\OSS_SNMP\\MIBS\\Asterisk -->
<g id="node22" class="node"><title>\\OSS_SNMP\\MIBS\\Asterisk</title>
<a xlink:href="MIBS.Asterisk.html" xlink:title="Asterisk" target="_parent">
<polygon fill="none" stroke="black" points="421,-1060 351,-1060 351,-1024 421,-1024 421,-1060"/>
<text text-anchor="middle" x="386" y="-1039.1" font-family="Courier,monospace" font-size="11.00">Asterisk</text>
</a>
</g>
<!-- \\OSS_SNMP\\MIBS\\Asterisk&#45;&gt;\\OSS_SNMP\\MIB -->
<g id="edge31" class="edge"><title>\\OSS_SNMP\\MIBS\\Asterisk&#45;&gt;\\OSS_SNMP\\MIB</title>
<path fill="none" stroke="black" d="M350.338,-1027C343.918,-1023.53 337.521,-1019.51 332,-1015 261.138,-957.134 287.41,-892.731 205,-853"/>
</g>
<!-- \\OSS_SNMP\\MIBS\\Host -->
<g id="node23" class="node"><title>\\OSS_SNMP\\MIBS\\Host</title>
<a xlink:href="MIBS.Host.html" xlink:title="Host" target="_parent">
<polygon fill="none" stroke="black" points="413,-1114 359,-1114 359,-1078 413,-1078 413,-1114"/>
<text text-anchor="middle" x="386" y="-1093.1" font-family="Courier,monospace" font-size="11.00">Host</text>
</a>
</g>
<!-- \\OSS_SNMP\\MIBS\\Host&#45;&gt;\\OSS_SNMP\\MIB -->
<g id="edge33" class="edge"><title>\\OSS_SNMP\\MIBS\\Host&#45;&gt;\\OSS_SNMP\\MIB</title>
<path fill="none" stroke="black" d="M358.814,-1086.11C349.574,-1081.84 339.659,-1076.16 332,-1069 250.627,-992.971 305.314,-901.363 205,-853"/>
</g>
<!-- \\OSS_SNMP\\Platform -->
<g id="node27" class="node"><title>\\OSS_SNMP\\Platform</title>
<a xlink:href="Platform.html" xlink:title="Platform" target="_parent">
<polygon fill="none" stroke="black" points="421,-250 351,-250 351,-214 421,-214 421,-250"/>
<text text-anchor="middle" x="386" y="-229.1" font-family="Courier,monospace" font-size="11.00">Platform</text>
</a>
</g>
<!-- \\OSS_SNMP\\Timer -->
<g id="node28" class="node"><title>\\OSS_SNMP\\Timer</title>
<a xlink:href="Timer.html" xlink:title="Timer" target="_parent">
<polygon fill="none" stroke="black" points="413,-196 359,-196 359,-160 413,-160 413,-196"/>
<text text-anchor="middle" x="386" y="-175.1" font-family="Courier,monospace" font-size="11.00">Timer</text>
</a>
</g>
<!-- \\OSS_SNMP\\SNMP -->
<g id="node29" class="node"><title>\\OSS_SNMP\\SNMP</title>
<a xlink:href="SNMP.html" xlink:title="SNMP" target="_parent">
<polygon fill="none" stroke="black" points="413,-142 359,-142 359,-106 413,-106 413,-142"/>
<text text-anchor="middle" x="386" y="-121.1" font-family="Courier,monospace" font-size="11.00">SNMP</text>
</a>
</g>
<!-- \\OSS_SNMP\\Exception -->
<g id="node31" class="node"><title>\\OSS_SNMP\\Exception</title>
<a xlink:href="Exception.html" xlink:title="Exception" target="_parent">
<polygon fill="none" stroke="black" points="424,-88 348,-88 348,-52 424,-52 424,-88"/>
<text text-anchor="middle" x="386" y="-67.1" font-family="Courier,monospace" font-size="11.00">Exception</text>
</a>
</g>
<!-- \\Exception -->
<g id="node51" class="node"><title>\\Exception</title>
<ellipse fill="none" stroke="black" cx="205" cy="-18" rx="62.9325" ry="18.3848"/>
<text text-anchor="middle" x="205" y="-14.4" font-family="Times Roman,serif" font-size="14.00" fill="gray">\Exception</text>
</g>
<!-- \\OSS_SNMP\\Exception&#45;&gt;\\Exception -->
<g id="edge45" class="edge"><title>\\OSS_SNMP\\Exception&#45;&gt;\\Exception</title>
<path fill="none" stroke="black" d="M347.171,-58.8447C321.525,-51.4769 287.554,-41.7173 259.251,-33.5858"/>
<polygon fill="none" stroke="black" points="260.076,-30.1815 249.499,-30.7841 258.143,-36.9093 260.076,-30.1815"/>
</g>
</g>
</svg>
