<?xml version="1.0" encoding="UTF-8" standalone="no"?>
<!DOCTYPE svg PUBLIC "-//W3C//DTD SVG 1.1//EN"
 "http://www.w3.org/Graphics/SVG/1.1/DTD/svg11.dtd">
<!-- Generated by graphviz version 2.26.3 (20100126.1600)
 -->
<!-- Title: G Pages: 1 -->
<svg width="470pt" height="1544pt"
 viewBox="0.00 0.00 470.00 1544.00" xmlns="http://www.w3.org/2000/svg" xmlns:xlink="http://www.w3.org/1999/xlink">
<g id="graph1" class="graph" transform="scale(1 1) rotate(0) translate(4 1540)">
<title>G</title>
<polygon fill="white" stroke="white" points="-4,5 -4,-1540 467,-1540 467,5 -4,5"/>
<g id="graph2" class="cluster"><title>cluster_OSS_SNMP</title>
<polyline fill="none" stroke="gray" points="20,-44 442,-44 "/>
<path fill="none" stroke="gray" d="M442,-44C448,-44 454,-50 454,-56"/>
<polyline fill="none" stroke="gray" points="454,-56 454,-1516 "/>
<path fill="none" stroke="gray" d="M454,-1516C454,-1522 448,-1528 442,-1528"/>
<polyline fill="none" stroke="gray" points="442,-1528 20,-1528 "/>
<path fill="none" stroke="gray" d="M20,-1528C14,-1528 8,-1522 8,-1516"/>
<polyline fill="none" stroke="gray" points="8,-1516 8,-56 "/>
<path fill="none" stroke="gray" d="M8,-56C8,-50 14,-44 20,-44"/>
<text text-anchor="middle" x="231" y="-1514.1" font-family="Times Roman,serif" font-size="11.00" fill="gray">OSS_SNMP</text>
</g>
<g id="graph3" class="cluster"><title>cluster_OSS_SNMP\Cache</title>
<polyline fill="none" stroke="gray" points="361,-1370 407,-1370 "/>
<path fill="none" stroke="gray" d="M407,-1370C413,-1370 419,-1376 419,-1382"/>
<polyline fill="none" stroke="gray" points="419,-1382 419,-1486 "/>
<path fill="none" stroke="gray" d="M419,-1486C419,-1492 413,-1498 407,-1498"/>
<polyline fill="none" stroke="gray" points="407,-1498 361,-1498 "/>
<path fill="none" stroke="gray" d="M361,-1498C355,-1498 349,-1492 349,-1486"/>
<polyline fill="none" stroke="gray" points="349,-1486 349,-1382 "/>
<path fill="none" stroke="gray" d="M349,-1382C349,-1376 355,-1370 361,-1370"/>
<text text-anchor="middle" x="384" y="-1484.1" font-family="Times Roman,serif" font-size="11.00" fill="gray">Cache</text>
</g>
<g id="graph4" class="cluster"><title>cluster_OSS_SNMP\MIBS</title>
<polyline fill="none" stroke="gray" points="176,-258 434,-258 "/>
<path fill="none" stroke="gray" d="M434,-258C440,-258 446,-264 446,-270"/>
<polyline fill="none" stroke="gray" points="446,-270 446,-1350 "/>
<path fill="none" stroke="gray" d="M446,-1350C446,-1356 440,-1362 434,-1362"/>
<polyline fill="none" stroke="gray" points="434,-1362 176,-1362 "/>
<path fill="none" stroke="gray" d="M176,-1362C170,-1362 164,-1356 164,-1350"/>
<polyline fill="none" stroke="gray" points="164,-1350 164,-270 "/>
<path fill="none" stroke="gray" d="M164,-270C164,-264 170,-258 176,-258"/>
<text text-anchor="middle" x="305" y="-1348.1" font-family="Times Roman,serif" font-size="11.00" fill="gray">MIBS</text>
</g>
<g id="graph5" class="cluster"><title>cluster_OSS_SNMP\MIBS\Asterisk</title>
<polyline fill="none" stroke="gray" points="342,-646 426,-646 "/>
<path fill="none" stroke="gray" d="M426,-646C432,-646 438,-652 438,-658"/>
<polyline fill="none" stroke="gray" points="438,-658 438,-762 "/>
<path fill="none" stroke="gray" d="M438,-762C438,-768 432,-774 426,-774"/>
<polyline fill="none" stroke="gray" points="426,-774 342,-774 "/>
<path fill="none" stroke="gray" d="M342,-774C336,-774 330,-768 330,-762"/>
<polyline fill="none" stroke="gray" points="330,-762 330,-658 "/>
<path fill="none" stroke="gray" d="M330,-658C330,-652 336,-646 342,-646"/>
<text text-anchor="middle" x="384" y="-760.1" font-family="Times Roman,serif" font-size="11.00" fill="gray">Asterisk</text>
</g>
<g id="graph6" class="cluster"><title>cluster_OSS_SNMP\MIBS\Cisco</title>
<polyline fill="none" stroke="gray" points="361,-348 407,-348 "/>
<path fill="none" stroke="gray" d="M407,-348C413,-348 419,-354 419,-360"/>
<polyline fill="none" stroke="gray" points="419,-360 419,-626 "/>
<path fill="none" stroke="gray" d="M419,-626C419,-632 413,-638 407,-638"/>
<polyline fill="none" stroke="gray" points="407,-638 361,-638 "/>
<path fill="none" stroke="gray" d="M361,-638C355,-638 349,-632 349,-626"/>
<polyline fill="none" stroke="gray" points="349,-626 349,-360 "/>
<path fill="none" stroke="gray" d="M349,-360C349,-354 355,-348 361,-348"/>
<text text-anchor="middle" x="384" y="-624.1" font-family="Times Roman,serif" font-size="11.00" fill="gray">Cisco</text>
</g>
<g id="graph7" class="cluster"><title>cluster_OSS_SNMP\MIBS\Extreme</title>
<polyline fill="none" stroke="gray" points="361,-266 407,-266 "/>
<path fill="none" stroke="gray" d="M407,-266C413,-266 419,-272 419,-278"/>
<polyline fill="none" stroke="gray" points="419,-278 419,-328 "/>
<path fill="none" stroke="gray" d="M419,-328C419,-334 413,-340 407,-340"/>
<polyline fill="none" stroke="gray" points="407,-340 361,-340 "/>
<path fill="none" stroke="gray" d="M361,-340C355,-340 349,-334 349,-328"/>
<polyline fill="none" stroke="gray" points="349,-328 349,-278 "/>
<path fill="none" stroke="gray" d="M349,-278C349,-272 355,-266 361,-266"/>
<text text-anchor="middle" x="384" y="-326.1" font-family="Times Roman,serif" font-size="11.00" fill="gray">Extreme</text>
</g>
<g id="graph8" class="cluster"><title>cluster_OSS_SNMP\MIBS\MRV</title>
<polyline fill="none" stroke="gray" points="359,-782 409,-782 "/>
<path fill="none" stroke="gray" d="M409,-782C415,-782 421,-788 421,-794"/>
<polyline fill="none" stroke="gray" points="421,-794 421,-844 "/>
<path fill="none" stroke="gray" d="M421,-844C421,-850 415,-856 409,-856"/>
<polyline fill="none" stroke="gray" points="409,-856 359,-856 "/>
<path fill="none" stroke="gray" d="M359,-856C353,-856 347,-850 347,-844"/>
<polyline fill="none" stroke="gray" points="347,-844 347,-794 "/>
<path fill="none" stroke="gray" d="M347,-794C347,-788 353,-782 359,-782"/>
<text text-anchor="middle" x="384" y="-842.1" font-family="Times Roman,serif" font-size="11.00" fill="gray">MRV</text>
</g>
<!-- \\OSS_SNMP\\Cache\\APC -->
<g id="node3" class="node"><title>\\OSS_SNMP\\Cache\\APC</title>
<a xlink:href="Cache.APC.html" xlink:title="APC" target="_parent">
<polygon fill="none" stroke="black" points="411,-1468 357,-1468 357,-1432 411,-1432 411,-1468"/>
<text text-anchor="middle" x="384" y="-1447.1" font-family="Courier,monospace" font-size="11.00">APC</text>
</a>
</g>
<!-- \\OSS_SNMP\\Cache -->
<g id="node34" class="node"><title>\\OSS_SNMP\\Cache</title>
<a xlink:href="Cache.html" xlink:title="«abstract»&lt;br/&gt;Cache" target="_parent">
<polygon fill="none" stroke="black" points="246,-1441 162,-1441 162,-1405 246,-1405 246,-1441"/>
<text text-anchor="start" x="170" y="-1428.43" font-family="Courier,monospace" font-size="11.00">«abstract»</text>
<text text-anchor="start" x="187" y="-1415.23" font-family="Courier,monospace" font-size="11.00">Cache</text>
</a>
</g>
<!-- \\OSS_SNMP\\Cache\\APC&#45;&gt;\\OSS_SNMP\\Cache -->
<g id="edge13" class="edge"><title>\\OSS_SNMP\\Cache\\APC&#45;&gt;\\OSS_SNMP\\Cache</title>
<path fill="none" stroke="black" d="M356.662,-1445.9C330.305,-1441.95 289.714,-1435.86 257.011,-1430.95"/>
<polygon fill="none" stroke="black" points="257.107,-1427.43 246.698,-1429.4 256.069,-1434.35 257.107,-1427.43"/>
</g>
<!-- \\OSS_SNMP\\Cache\\Basic -->
<g id="node4" class="node"><title>\\OSS_SNMP\\Cache\\Basic</title>
<a xlink:href="Cache.Basic.html" xlink:title="Basic" target="_parent">
<polygon fill="none" stroke="black" points="411,-1414 357,-1414 357,-1378 411,-1378 411,-1414"/>
<text text-anchor="middle" x="384" y="-1393.1" font-family="Courier,monospace" font-size="11.00">Basic</text>
</a>
</g>
<!-- \\OSS_SNMP\\Cache\\Basic&#45;&gt;\\OSS_SNMP\\Cache -->
<g id="edge15" class="edge"><title>\\OSS_SNMP\\Cache\\Basic&#45;&gt;\\OSS_SNMP\\Cache</title>
<path fill="none" stroke="black" d="M356.662,-1400.1C330.305,-1404.05 289.714,-1410.14 257.011,-1415.05"/>
<polygon fill="none" stroke="black" points="256.069,-1411.65 246.698,-1416.6 257.107,-1418.57 256.069,-1411.65"/>
</g>
<!-- \\OSS_SNMP\\MIBS\\Asterisk\\Indications -->
<g id="node7" class="node"><title>\\OSS_SNMP\\MIBS\\Asterisk\\Indications</title>
<a xlink:href="MIBS.Asterisk.Indications.html" xlink:title="Indications" target="_parent">
<polygon fill="none" stroke="black" points="429,-690 339,-690 339,-654 429,-654 429,-690"/>
<text text-anchor="middle" x="384" y="-669.1" font-family="Courier,monospace" font-size="11.00">Indications</text>
</a>
</g>
<!-- \\OSS_SNMP\\MIB -->
<g id="node38" class="node"><title>\\OSS_SNMP\\MIB</title>
<a xlink:href="MIB.html" xlink:title="MIB" target="_parent">
<polygon fill="none" stroke="black" points="70,-500 16,-500 16,-464 70,-464 70,-500"/>
<text text-anchor="middle" x="43" y="-479.1" font-family="Courier,monospace" font-size="11.00">MIB</text>
</a>
</g>
<!-- \\OSS_SNMP\\MIBS\\Asterisk\\Indications&#45;&gt;\\OSS_SNMP\\MIB -->
<g id="edge27" class="edge"><title>\\OSS_SNMP\\MIBS\\Asterisk\\Indications&#45;&gt;\\OSS_SNMP\\MIB</title>
<path fill="none" stroke="black" d="M338.994,-690.124C335.625,-692.727 332.552,-695.674 330,-699 237.463,-819.615 328.395,-1104.39 204,-1017"/>
<path fill="none" stroke="black" d="M204,-1017C181.379,-1001.11 162.539,-1030.5 142,-1012 66.5041,-943.987 47.8564,-610.13 43.9331,-510.267"/>
<polygon fill="none" stroke="black" points="47.4223,-509.912 43.5517,-500.049 40.4272,-510.173 47.4223,-509.912"/>
</g>
<!-- \\OSS_SNMP\\MIBS\\Asterisk\\Channels -->
<g id="node8" class="node"><title>\\OSS_SNMP\\MIBS\\Asterisk\\Channels</title>
<a xlink:href="MIBS.Asterisk.Channels.html" xlink:title="Channels" target="_parent">
<polygon fill="none" stroke="black" points="419,-744 349,-744 349,-708 419,-708 419,-744"/>
<text text-anchor="middle" x="384" y="-723.1" font-family="Courier,monospace" font-size="11.00">Channels</text>
</a>
</g>
<!-- \\OSS_SNMP\\MIBS\\Asterisk\\Channels&#45;&gt;\\OSS_SNMP\\MIB -->
<g id="edge29" class="edge"><title>\\OSS_SNMP\\MIBS\\Asterisk\\Channels&#45;&gt;\\OSS_SNMP\\MIB</title>
<path fill="none" stroke="black" d="M359.853,-744.234C349.312,-753.328 337.639,-765.129 330,-778 274.972,-870.72 349.008,-943.19 266,-1012 244.717,-1029.64 226.621,-1032.89 204,-1017"/>
</g>
<!-- \\OSS_SNMP\\MIBS\\Cisco\\CDP -->
<g id="node10" class="node"><title>\\OSS_SNMP\\MIBS\\Cisco\\CDP</title>
<a xlink:href="MIBS.Cisco.CDP.html" xlink:title="CDP" target="_parent">
<polygon fill="none" stroke="black" points="411,-608 357,-608 357,-572 411,-572 411,-608"/>
<text text-anchor="middle" x="384" y="-587.1" font-family="Courier,monospace" font-size="11.00">CDP</text>
</a>
</g>
<!-- \\OSS_SNMP\\MIBS\\Cisco -->
<g id="node22" class="node"><title>\\OSS_SNMP\\MIBS\\Cisco</title>
<a xlink:href="MIBS.Cisco.html" xlink:title="Cisco" target="_parent">
<polygon fill="none" stroke="black" points="231,-500 177,-500 177,-464 231,-464 231,-500"/>
<text text-anchor="middle" x="204" y="-479.1" font-family="Courier,monospace" font-size="11.00">Cisco</text>
</a>
</g>
<!-- \\OSS_SNMP\\MIBS\\Cisco\\CDP&#45;&gt;\\OSS_SNMP\\MIBS\\Cisco -->
<g id="edge47" class="edge"><title>\\OSS_SNMP\\MIBS\\Cisco\\CDP&#45;&gt;\\OSS_SNMP\\MIBS\\Cisco</title>
<path fill="none" stroke="black" d="M356.79,-578.242C347.945,-573.943 338.281,-568.717 330,-563 298.162,-541.021 299.125,-523.986 266,-504 258.255,-499.327 249.369,-495.44 240.788,-492.3"/>
<polygon fill="none" stroke="black" points="241.902,-488.982 231.307,-489.069 239.644,-495.608 241.902,-488.982"/>
</g>
<!-- \\OSS_SNMP\\MIBS\\Cisco\\MST -->
<g id="node11" class="node"><title>\\OSS_SNMP\\MIBS\\Cisco\\MST</title>
<a xlink:href="MIBS.Cisco.MST.html" xlink:title="MST" target="_parent">
<polygon fill="none" stroke="black" points="411,-554 357,-554 357,-518 411,-518 411,-554"/>
<text text-anchor="middle" x="384" y="-533.1" font-family="Courier,monospace" font-size="11.00">MST</text>
</a>
</g>
<!-- \\OSS_SNMP\\MIBS\\Cisco\\MST&#45;&gt;\\OSS_SNMP\\MIBS\\Cisco -->
<g id="edge49" class="edge"><title>\\OSS_SNMP\\MIBS\\Cisco\\MST&#45;&gt;\\OSS_SNMP\\MIBS\\Cisco</title>
<path fill="none" stroke="black" d="M356.662,-527.799C325.691,-518.507 275.065,-503.32 240.679,-493.004"/>
<polygon fill="none" stroke="black" points="241.59,-489.623 231.006,-490.102 239.578,-496.328 241.59,-489.623"/>
</g>
<!-- \\OSS_SNMP\\MIBS\\Cisco\\VTP -->
<g id="node12" class="node"><title>\\OSS_SNMP\\MIBS\\Cisco\\VTP</title>
<a xlink:href="MIBS.Cisco.VTP.html" xlink:title="VTP" target="_parent">
<polygon fill="none" stroke="black" points="411,-500 357,-500 357,-464 411,-464 411,-500"/>
<text text-anchor="middle" x="384" y="-479.1" font-family="Courier,monospace" font-size="11.00">VTP</text>
</a>
</g>
<!-- \\OSS_SNMP\\MIBS\\Cisco\\VTP&#45;&gt;\\OSS_SNMP\\MIBS\\Cisco -->
<g id="edge51" class="edge"><title>\\OSS_SNMP\\MIBS\\Cisco\\VTP&#45;&gt;\\OSS_SNMP\\MIBS\\Cisco</title>
<path fill="none" stroke="black" d="M356.662,-482C325.823,-482 275.499,-482 241.123,-482"/>
<polygon fill="none" stroke="black" points="241.006,-478.5 231.006,-482 241.006,-485.5 241.006,-478.5"/>
</g>
<!-- \\OSS_SNMP\\MIBS\\Cisco\\RSTP -->
<g id="node13" class="node"><title>\\OSS_SNMP\\MIBS\\Cisco\\RSTP</title>
<a xlink:href="MIBS.Cisco.RSTP.html" xlink:title="RSTP" target="_parent">
<polygon fill="none" stroke="black" points="411,-446 357,-446 357,-410 411,-410 411,-446"/>
<text text-anchor="middle" x="384" y="-425.1" font-family="Courier,monospace" font-size="11.00">RSTP</text>
</a>
</g>
<!-- \\OSS_SNMP\\MIBS\\Cisco\\RSTP&#45;&gt;\\OSS_SNMP\\MIBS\\Cisco -->
<g id="edge53" class="edge"><title>\\OSS_SNMP\\MIBS\\Cisco\\RSTP&#45;&gt;\\OSS_SNMP\\MIBS\\Cisco</title>
<path fill="none" stroke="black" d="M356.662,-436.201C325.691,-445.493 275.065,-460.68 240.679,-470.996"/>
<polygon fill="none" stroke="black" points="239.578,-467.672 231.006,-473.898 241.59,-474.377 239.578,-467.672"/>
</g>
<!-- \\OSS_SNMP\\MIBS\\Cisco\\SMST -->
<g id="node14" class="node"><title>\\OSS_SNMP\\MIBS\\Cisco\\SMST</title>
<a xlink:href="MIBS.Cisco.SMST.html" xlink:title="SMST" target="_parent">
<polygon fill="none" stroke="black" points="411,-392 357,-392 357,-356 411,-356 411,-392"/>
<text text-anchor="middle" x="384" y="-371.1" font-family="Courier,monospace" font-size="11.00">SMST</text>
</a>
</g>
<!-- \\OSS_SNMP\\MIBS\\Cisco\\SMST&#45;&gt;\\OSS_SNMP\\MIBS\\Cisco -->
<g id="edge55" class="edge"><title>\\OSS_SNMP\\MIBS\\Cisco\\SMST&#45;&gt;\\OSS_SNMP\\MIBS\\Cisco</title>
<path fill="none" stroke="black" d="M356.782,-386.897C348.118,-391.191 338.563,-396.126 330,-401 298.462,-418.952 263.868,-441.401 238.92,-458.11"/>
<polygon fill="none" stroke="black" points="236.861,-455.277 230.519,-463.764 240.769,-461.084 236.861,-455.277"/>
</g>
<!-- \\OSS_SNMP\\MIBS\\Extreme\\Vlan -->
<g id="node16" class="node"><title>\\OSS_SNMP\\MIBS\\Extreme\\Vlan</title>
<a xlink:href="MIBS.Extreme.Vlan.html" xlink:title="Vlan" target="_parent">
<polygon fill="none" stroke="black" points="411,-310 357,-310 357,-274 411,-274 411,-310"/>
<text text-anchor="middle" x="384" y="-289.1" font-family="Courier,monospace" font-size="11.00">Vlan</text>
</a>
</g>
<!-- \\OSS_SNMP\\MIBS\\Extreme -->
<g id="node23" class="node"><title>\\OSS_SNMP\\MIBS\\Extreme</title>
<a xlink:href="MIBS.Extreme.html" xlink:title="Extreme" target="_parent">
<polygon fill="none" stroke="black" points="236,-378 172,-378 172,-342 236,-342 236,-378"/>
<text text-anchor="middle" x="204" y="-357.1" font-family="Courier,monospace" font-size="11.00">Extreme</text>
</a>
</g>
<!-- \\OSS_SNMP\\MIBS\\Extreme\\Vlan&#45;&gt;\\OSS_SNMP\\MIBS\\Extreme -->
<g id="edge45" class="edge"><title>\\OSS_SNMP\\MIBS\\Extreme\\Vlan&#45;&gt;\\OSS_SNMP\\MIBS\\Extreme</title>
<path fill="none" stroke="black" d="M356.907,-302.834C333.049,-312.31 297.322,-326.341 266,-338 259.527,-340.409 252.653,-342.908 245.929,-345.319"/>
<polygon fill="none" stroke="black" points="244.492,-342.115 236.247,-348.769 246.842,-348.709 244.492,-342.115"/>
</g>
<!-- \\OSS_SNMP\\MIBS\\MRV\\System -->
<g id="node18" class="node"><title>\\OSS_SNMP\\MIBS\\MRV\\System</title>
<a xlink:href="MIBS.MRV.System.html" xlink:title="System" target="_parent">
<polygon fill="none" stroke="black" points="412,-826 356,-826 356,-790 412,-790 412,-826"/>
<text text-anchor="middle" x="384" y="-805.1" font-family="Courier,monospace" font-size="11.00">System</text>
</a>
</g>
<!-- \\OSS_SNMP\\MIBS\\MRV\\System&#45;&gt;\\OSS_SNMP\\MIB -->
<g id="edge37" class="edge"><title>\\OSS_SNMP\\MIBS\\MRV\\System&#45;&gt;\\OSS_SNMP\\MIB</title>
<path fill="none" stroke="black" d="M355.22,-814.689C346.165,-818.009 336.772,-822.889 330,-830 270.865,-892.09 333.918,-959.662 266,-1012 244.103,-1028.87 226.621,-1032.89 204,-1017"/>
</g>
<!-- \\OSS_SNMP\\MIBS\\Iface -->
<g id="node19" class="node"><title>\\OSS_SNMP\\MIBS\\Iface</title>
<a xlink:href="MIBS.Iface.html" xlink:title="Iface" target="_parent">
<polygon fill="none" stroke="black" points="411,-900 357,-900 357,-864 411,-864 411,-900"/>
<text text-anchor="middle" x="384" y="-879.1" font-family="Courier,monospace" font-size="11.00">Iface</text>
</a>
</g>
<!-- \\OSS_SNMP\\MIBS\\Iface&#45;&gt;\\OSS_SNMP\\MIB -->
<g id="edge17" class="edge"><title>\\OSS_SNMP\\MIBS\\Iface&#45;&gt;\\OSS_SNMP\\MIB</title>
<path fill="none" stroke="black" d="M356.911,-891.992C347.68,-896.274 337.746,-901.938 330,-909 290.172,-945.31 312.013,-983.938 266,-1012 242.398,-1026.39 226.621,-1032.89 204,-1017"/>
</g>
<!-- \\OSS_SNMP\\MIBS\\Bridge -->
<g id="node20" class="node"><title>\\OSS_SNMP\\MIBS\\Bridge</title>
<a xlink:href="MIBS.Bridge.html" xlink:title="Bridge" target="_parent">
<polygon fill="none" stroke="black" points="412,-954 356,-954 356,-918 412,-918 412,-954"/>
<text text-anchor="middle" x="384" y="-933.1" font-family="Courier,monospace" font-size="11.00">Bridge</text>
</a>
</g>
<!-- \\OSS_SNMP\\MIBS\\Bridge&#45;&gt;\\OSS_SNMP\\MIB -->
<g id="edge19" class="edge"><title>\\OSS_SNMP\\MIBS\\Bridge&#45;&gt;\\OSS_SNMP\\MIB</title>
<path fill="none" stroke="black" d="M355.421,-949.029C347.049,-953.18 338,-958.001 330,-963 278.333,-995.288 253.854,-1052.02 204,-1017"/>
</g>
<!-- \\OSS_SNMP\\MIBS\\LAG -->
<g id="node21" class="node"><title>\\OSS_SNMP\\MIBS\\LAG</title>
<a xlink:href="MIBS.LAG.html" xlink:title="LAG" target="_parent">
<polygon fill="none" stroke="black" points="411,-1008 357,-1008 357,-972 411,-972 411,-1008"/>
<text text-anchor="middle" x="384" y="-987.1" font-family="Courier,monospace" font-size="11.00">LAG</text>
</a>
</g>
<!-- \\OSS_SNMP\\MIBS\\LAG&#45;&gt;\\OSS_SNMP\\MIB -->
<g id="edge21" class="edge"><title>\\OSS_SNMP\\MIBS\\LAG&#45;&gt;\\OSS_SNMP\\MIB</title>
<path fill="none" stroke="black" d="M356.87,-1005C319.069,-1023.65 250.025,-1049.33 204,-1017"/>
</g>
<!-- \\OSS_SNMP\\MIBS\\Cisco&#45;&gt;\\OSS_SNMP\\MIB -->
<g id="edge23" class="edge"><title>\\OSS_SNMP\\MIBS\\Cisco&#45;&gt;\\OSS_SNMP\\MIB</title>
<path fill="none" stroke="black" d="M176.689,-482C150.241,-482 109.929,-482 80.4861,-482"/>
<polygon fill="none" stroke="black" points="80.1763,-478.5 70.1763,-482 80.1763,-485.5 80.1763,-478.5"/>
</g>
<!-- \\OSS_SNMP\\MIBS\\Extreme&#45;&gt;\\OSS_SNMP\\MIB -->
<g id="edge25" class="edge"><title>\\OSS_SNMP\\MIBS\\Extreme&#45;&gt;\\OSS_SNMP\\MIB</title>
<path fill="none" stroke="black" d="M180.244,-378.002C152.42,-399.085 106.195,-434.113 75.1724,-457.621"/>
<polygon fill="none" stroke="black" points="72.7099,-455.095 66.8536,-463.925 76.9376,-460.675 72.7099,-455.095"/>
</g>
<!-- \\OSS_SNMP\\MIBS\\Entity -->
<g id="node24" class="node"><title>\\OSS_SNMP\\MIBS\\Entity</title>
<a xlink:href="MIBS.Entity.html" xlink:title="Entity" target="_parent">
<polygon fill="none" stroke="black" points="412,-1062 356,-1062 356,-1026 412,-1026 412,-1062"/>
<text text-anchor="middle" x="384" y="-1041.1" font-family="Courier,monospace" font-size="11.00">Entity</text>
</a>
</g>
<!-- \\OSS_SNMP\\MIBS\\Entity&#45;&gt;\\OSS_SNMP\\MIB -->
<g id="edge31" class="edge"><title>\\OSS_SNMP\\MIBS\\Entity&#45;&gt;\\OSS_SNMP\\MIB</title>
<path fill="none" stroke="black" d="M355.259,-1047.13C317.134,-1049.74 249.379,-1048.88 204,-1017"/>
</g>
<!-- \\OSS_SNMP\\MIBS\\MRV -->
<g id="node25" class="node"><title>\\OSS_SNMP\\MIBS\\MRV</title>
<a xlink:href="MIBS.MRV.html" xlink:title="MRV" target="_parent">
<polygon fill="none" stroke="black" points="411,-1116 357,-1116 357,-1080 411,-1080 411,-1116"/>
<text text-anchor="middle" x="384" y="-1095.1" font-family="Courier,monospace" font-size="11.00">MRV</text>
</a>
</g>
<!-- \\OSS_SNMP\\MIBS\\MRV&#45;&gt;\\OSS_SNMP\\MIB -->
<g id="edge33" class="edge"><title>\\OSS_SNMP\\MIBS\\MRV&#45;&gt;\\OSS_SNMP\\MIB</title>
<path fill="none" stroke="black" d="M356.71,-1089.37C319.923,-1076.95 253.351,-1051.67 204,-1017"/>
</g>
<!-- \\OSS_SNMP\\MIBS\\System -->
<g id="node26" class="node"><title>\\OSS_SNMP\\MIBS\\System</title>
<a xlink:href="MIBS.System.html" xlink:title="System" target="_parent">
<polygon fill="none" stroke="black" points="412,-1170 356,-1170 356,-1134 412,-1134 412,-1170"/>
<text text-anchor="middle" x="384" y="-1149.1" font-family="Courier,monospace" font-size="11.00">System</text>
</a>
</g>
<!-- \\OSS_SNMP\\MIBS\\System&#45;&gt;\\OSS_SNMP\\MIB -->
<g id="edge35" class="edge"><title>\\OSS_SNMP\\MIBS\\System&#45;&gt;\\OSS_SNMP\\MIB</title>
<path fill="none" stroke="black" d="M355.243,-1139.25C346.866,-1135.1 337.859,-1130.22 330,-1125 268.555,-1084.2 264.352,-1059.4 204,-1017"/>
</g>
<!-- \\OSS_SNMP\\MIBS\\BGP -->
<g id="node27" class="node"><title>\\OSS_SNMP\\MIBS\\BGP</title>
<a xlink:href="MIBS.BGP.html" xlink:title="BGP" target="_parent">
<polygon fill="none" stroke="black" points="411,-1224 357,-1224 357,-1188 411,-1188 411,-1224"/>
<text text-anchor="middle" x="384" y="-1203.1" font-family="Courier,monospace" font-size="11.00">BGP</text>
</a>
</g>
<!-- \\OSS_SNMP\\MIBS\\BGP&#45;&gt;\\OSS_SNMP\\MIB -->
<g id="edge39" class="edge"><title>\\OSS_SNMP\\MIBS\\BGP&#45;&gt;\\OSS_SNMP\\MIB</title>
<path fill="none" stroke="black" d="M356.759,-1195.28C347.719,-1191 337.944,-1185.51 330,-1179 259.46,-1121.17 278.637,-1069.43 204,-1017"/>
</g>
<!-- \\OSS_SNMP\\MIBS\\Asterisk -->
<g id="node28" class="node"><title>\\OSS_SNMP\\MIBS\\Asterisk</title>
<a xlink:href="MIBS.Asterisk.html" xlink:title="Asterisk" target="_parent">
<polygon fill="none" stroke="black" points="419,-1278 349,-1278 349,-1242 419,-1242 419,-1278"/>
<text text-anchor="middle" x="384" y="-1257.1" font-family="Courier,monospace" font-size="11.00">Asterisk</text>
</a>
</g>
<!-- \\OSS_SNMP\\MIBS\\Asterisk&#45;&gt;\\OSS_SNMP\\MIB -->
<g id="edge41" class="edge"><title>\\OSS_SNMP\\MIBS\\Asterisk&#45;&gt;\\OSS_SNMP\\MIB</title>
<path fill="none" stroke="black" d="M348.381,-1245.9C341.815,-1242.31 335.353,-1238.02 330,-1233 248.922,-1156.98 294.941,-1080.89 204,-1017"/>
</g>
<!-- \\OSS_SNMP\\MIBS\\Host -->
<g id="node29" class="node"><title>\\OSS_SNMP\\MIBS\\Host</title>
<a xlink:href="MIBS.Host.html" xlink:title="Host" target="_parent">
<polygon fill="none" stroke="black" points="411,-1332 357,-1332 357,-1296 411,-1296 411,-1332"/>
<text text-anchor="middle" x="384" y="-1311.1" font-family="Courier,monospace" font-size="11.00">Host</text>
</a>
</g>
<!-- \\OSS_SNMP\\MIBS\\Host&#45;&gt;\\OSS_SNMP\\MIB -->
<g id="edge43" class="edge"><title>\\OSS_SNMP\\MIBS\\Host&#45;&gt;\\OSS_SNMP\\MIB</title>
<path fill="none" stroke="black" d="M356.982,-1304.76C347.544,-1300.5 337.457,-1294.66 330,-1287 237.636,-1192.11 312.357,-1093.12 204,-1017"/>
</g>
<!-- \\OSS_SNMP\\Platform -->
<g id="node35" class="node"><title>\\OSS_SNMP\\Platform</title>
<a xlink:href="Platform.html" xlink:title="Platform" target="_parent">
<polygon fill="none" stroke="black" points="419,-250 349,-250 349,-214 419,-214 419,-250"/>
<text text-anchor="middle" x="384" y="-229.1" font-family="Courier,monospace" font-size="11.00">Platform</text>
</a>
</g>
<!-- \\OSS_SNMP\\Timer -->
<g id="node36" class="node"><title>\\OSS_SNMP\\Timer</title>
<a xlink:href="Timer.html" xlink:title="Timer" target="_parent">
<polygon fill="none" stroke="black" points="411,-196 357,-196 357,-160 411,-160 411,-196"/>
<text text-anchor="middle" x="384" y="-175.1" font-family="Courier,monospace" font-size="11.00">Timer</text>
</a>
</g>
<!-- \\OSS_SNMP\\SNMP -->
<g id="node37" class="node"><title>\\OSS_SNMP\\SNMP</title>
<a xlink:href="SNMP.html" xlink:title="SNMP" target="_parent">
<polygon fill="none" stroke="black" points="411,-142 357,-142 357,-106 411,-106 411,-142"/>
<text text-anchor="middle" x="384" y="-121.1" font-family="Courier,monospace" font-size="11.00">SNMP</text>
</a>
</g>
<!-- \\OSS_SNMP\\Exception -->
<g id="node39" class="node"><title>\\OSS_SNMP\\Exception</title>
<a xlink:href="Exception.html" xlink:title="Exception" target="_parent">
<polygon fill="none" stroke="black" points="422,-88 346,-88 346,-52 422,-52 422,-88"/>
<text text-anchor="middle" x="384" y="-67.1" font-family="Courier,monospace" font-size="11.00">Exception</text>
</a>
</g>
<!-- \\Exception -->
<g id="node63" class="node"><title>\\Exception</title>
<ellipse fill="none" stroke="black" cx="204" cy="-18" rx="62.2254" ry="18.3848"/>
<text text-anchor="middle" x="204" y="-14.4" font-family="Times Roman,serif" font-size="14.00" fill="gray">\Exception</text>
</g>
<!-- \\OSS_SNMP\\Exception&#45;&gt;\\Exception -->
<g id="edge57" class="edge"><title>\\OSS_SNMP\\Exception&#45;&gt;\\Exception</title>
<path fill="none" stroke="black" d="M345.385,-58.8447C319.882,-51.4769 286.098,-41.7173 257.951,-33.5858"/>
<polygon fill="none" stroke="black" points="258.831,-30.1971 248.253,-30.7841 256.888,-36.9221 258.831,-30.1971"/>
</g>
</g>
</svg>
