<?xml version="1.0" encoding="UTF-8" standalone="no"?>
<!DOCTYPE svg PUBLIC "-//W3C//DTD SVG 1.1//EN"
 "http://www.w3.org/Graphics/SVG/1.1/DTD/svg11.dtd">
<!-- Generated by graphviz version 2.26.3 (20100126.1600)
 -->
<!-- Title: G Pages: 1 -->
<svg width="426pt" height="1080pt"
 viewBox="0.00 0.00 426.00 1080.00" xmlns="http://www.w3.org/2000/svg" xmlns:xlink="http://www.w3.org/1999/xlink">
<g id="graph1" class="graph" transform="scale(1 1) rotate(0) translate(4 1076)">
<title>G</title>
<polygon fill="white" stroke="white" points="-4,5 -4,-1076 423,-1076 423,5 -4,5"/>
<g id="graph2" class="cluster"><title>cluster_OSS</title>
<polyline fill="none" stroke="gray" points="304,-8 398,-8 "/>
<path fill="none" stroke="gray" d="M398,-8C404,-8 410,-14 410,-20"/>
<polyline fill="none" stroke="gray" points="410,-20 410,-1052 "/>
<path fill="none" stroke="gray" d="M410,-1052C410,-1058 404,-1064 398,-1064"/>
<polyline fill="none" stroke="gray" points="398,-1064 304,-1064 "/>
<path fill="none" stroke="gray" d="M304,-1064C298,-1064 292,-1058 292,-1052"/>
<polyline fill="none" stroke="gray" points="292,-1052 292,-20 "/>
<path fill="none" stroke="gray" d="M292,-20C292,-14 298,-8 304,-8"/>
<text text-anchor="middle" x="351" y="-1050.1" font-family="Times Roman,serif" font-size="11.00" fill="gray">OSS</text>
</g>
<g id="graph3" class="cluster"><title>cluster_OSS\Cache</title>
<polyline fill="none" stroke="gray" points="328,-906 374,-906 "/>
<path fill="none" stroke="gray" d="M374,-906C380,-906 386,-912 386,-918"/>
<polyline fill="none" stroke="gray" points="386,-918 386,-1022 "/>
<path fill="none" stroke="gray" d="M386,-1022C386,-1028 380,-1034 374,-1034"/>
<polyline fill="none" stroke="gray" points="374,-1034 328,-1034 "/>
<path fill="none" stroke="gray" d="M328,-1034C322,-1034 316,-1028 316,-1022"/>
<polyline fill="none" stroke="gray" points="316,-1022 316,-918 "/>
<path fill="none" stroke="gray" d="M316,-918C316,-912 322,-906 328,-906"/>
<text text-anchor="middle" x="351" y="-1020.1" font-family="Times Roman,serif" font-size="11.00" fill="gray">Cache</text>
</g>
<g id="graph4" class="cluster"><title>cluster_OSS\SNMP</title>
<polyline fill="none" stroke="gray" points="312,-224 390,-224 "/>
<path fill="none" stroke="gray" d="M390,-224C396,-224 402,-230 402,-236"/>
<polyline fill="none" stroke="gray" points="402,-236 402,-886 "/>
<path fill="none" stroke="gray" d="M402,-886C402,-892 396,-898 390,-898"/>
<polyline fill="none" stroke="gray" points="390,-898 312,-898 "/>
<path fill="none" stroke="gray" d="M312,-898C306,-898 300,-892 300,-886"/>
<polyline fill="none" stroke="gray" points="300,-886 300,-236 "/>
<path fill="none" stroke="gray" d="M300,-236C300,-230 306,-224 312,-224"/>
<text text-anchor="middle" x="351" y="-884.1" font-family="Times Roman,serif" font-size="11.00" fill="gray">SNMP</text>
</g>
<g id="graph5" class="cluster"><title>cluster_OSS\SNMP\MIBS</title>
<polyline fill="none" stroke="gray" points="320,-278 382,-278 "/>
<path fill="none" stroke="gray" d="M382,-278C388,-278 394,-284 394,-290"/>
<polyline fill="none" stroke="gray" points="394,-290 394,-856 "/>
<path fill="none" stroke="gray" d="M394,-856C394,-862 388,-868 382,-868"/>
<polyline fill="none" stroke="gray" points="382,-868 320,-868 "/>
<path fill="none" stroke="gray" d="M320,-868C314,-868 308,-862 308,-856"/>
<polyline fill="none" stroke="gray" points="308,-856 308,-290 "/>
<path fill="none" stroke="gray" d="M308,-290C308,-284 314,-278 320,-278"/>
<text text-anchor="middle" x="351" y="-854.1" font-family="Times Roman,serif" font-size="11.00" fill="gray">MIBS</text>
</g>
<g id="graph6" class="cluster"><title>cluster_OSS\SNMP\MIBS\Cisco</title>
<polyline fill="none" stroke="gray" points="328,-656 374,-656 "/>
<path fill="none" stroke="gray" d="M374,-656C380,-656 386,-662 386,-668"/>
<polyline fill="none" stroke="gray" points="386,-668 386,-826 "/>
<path fill="none" stroke="gray" d="M386,-826C386,-832 380,-838 374,-838"/>
<polyline fill="none" stroke="gray" points="374,-838 328,-838 "/>
<path fill="none" stroke="gray" d="M328,-838C322,-838 316,-832 316,-826"/>
<polyline fill="none" stroke="gray" points="316,-826 316,-668 "/>
<path fill="none" stroke="gray" d="M316,-668C316,-662 322,-656 328,-656"/>
<text text-anchor="middle" x="351" y="-824.1" font-family="Times Roman,serif" font-size="11.00" fill="gray">Cisco</text>
</g>
<!-- \\OSS\\Cache\\APC -->
<g id="node3" class="node"><title>\\OSS\\Cache\\APC</title>
<a xlink:href="Cache.APC.html" xlink:title="APC" target="_parent">
<polygon fill="none" stroke="black" points="378,-1004 324,-1004 324,-968 378,-968 378,-1004"/>
<text text-anchor="middle" x="351" y="-983.1" font-family="Courier,monospace" font-size="11.00">APC</text>
</a>
</g>
<!-- OSS\\Cache -->
<g id="node28" class="node"><title>OSS\\Cache</title>
<ellipse fill="none" stroke="black" cx="120" cy="-959" rx="65.0538" ry="18.3848"/>
<text text-anchor="middle" x="120" y="-955.4" font-family="Times Roman,serif" font-size="14.00" fill="gray">OSS\Cache</text>
</g>
<!-- \\OSS\\Cache\\APC&#45;&gt;OSS\\Cache -->
<g id="edge11" class="edge"><title>\\OSS\\Cache\\APC&#45;&gt;OSS\\Cache</title>
<path fill="none" stroke="black" d="M323.594,-982.797C290.928,-978.979 235.117,-972.455 190.182,-967.203"/>
<polygon fill="none" stroke="black" points="190.527,-963.72 180.188,-966.035 189.714,-970.672 190.527,-963.72"/>
</g>
<!-- \\OSS\\Cache\\Basic -->
<g id="node4" class="node"><title>\\OSS\\Cache\\Basic</title>
<a xlink:href="Cache.Basic.html" xlink:title="Basic" target="_parent">
<polygon fill="none" stroke="black" points="378,-950 324,-950 324,-914 378,-914 378,-950"/>
<text text-anchor="middle" x="351" y="-929.1" font-family="Courier,monospace" font-size="11.00">Basic</text>
</a>
</g>
<!-- \\OSS\\Cache\\Basic&#45;&gt;OSS\\Cache -->
<g id="edge13" class="edge"><title>\\OSS\\Cache\\Basic&#45;&gt;OSS\\Cache</title>
<path fill="none" stroke="black" d="M323.594,-935.203C290.928,-939.021 235.117,-945.545 190.182,-950.797"/>
<polygon fill="none" stroke="black" points="189.714,-947.328 180.188,-951.965 190.527,-954.28 189.714,-947.328"/>
</g>
<!-- \\OSS\\SNMP\\MIBS\\Cisco\\CDP -->
<g id="node8" class="node"><title>\\OSS\\SNMP\\MIBS\\Cisco\\CDP</title>
<a xlink:href="SNMP.MIBS.Cisco.CDP.html" xlink:title="CDP" target="_parent">
<polygon fill="none" stroke="black" points="378,-808 324,-808 324,-772 378,-772 378,-808"/>
<text text-anchor="middle" x="351" y="-787.1" font-family="Courier,monospace" font-size="11.00">CDP</text>
</a>
</g>
<!-- OSS\\SNMP\\MIBS\\Cisco -->
<g id="node39" class="node"><title>OSS\\SNMP\\MIBS\\Cisco</title>
<ellipse fill="none" stroke="black" cx="120" cy="-736" rx="120.208" ry="18.3848"/>
<text text-anchor="middle" x="120" y="-732.4" font-family="Times Roman,serif" font-size="14.00" fill="gray">OSS\SNMP\MIBS\Cisco</text>
</g>
<!-- \\OSS\\SNMP\\MIBS\\Cisco\\CDP&#45;&gt;OSS\\SNMP\\MIBS\\Cisco -->
<g id="edge29" class="edge"><title>\\OSS\\SNMP\\MIBS\\Cisco\\CDP&#45;&gt;OSS\\SNMP\\MIBS\\Cisco</title>
<path fill="none" stroke="black" d="M323.594,-783.593C292.04,-776.217 238.887,-763.792 194.804,-753.487"/>
<polygon fill="none" stroke="black" points="195.505,-750.056 184.971,-751.188 193.911,-756.872 195.505,-750.056"/>
</g>
<!-- \\OSS\\SNMP\\MIBS\\Cisco\\VTP -->
<g id="node9" class="node"><title>\\OSS\\SNMP\\MIBS\\Cisco\\VTP</title>
<a xlink:href="SNMP.MIBS.Cisco.VTP.html" xlink:title="VTP" target="_parent">
<polygon fill="none" stroke="black" points="378,-754 324,-754 324,-718 378,-718 378,-754"/>
<text text-anchor="middle" x="351" y="-733.1" font-family="Courier,monospace" font-size="11.00">VTP</text>
</a>
</g>
<!-- \\OSS\\SNMP\\MIBS\\Cisco\\VTP&#45;&gt;OSS\\SNMP\\MIBS\\Cisco -->
<g id="edge31" class="edge"><title>\\OSS\\SNMP\\MIBS\\Cisco\\VTP&#45;&gt;OSS\\SNMP\\MIBS\\Cisco</title>
<path fill="none" stroke="black" d="M323.594,-736C304.754,-736 278.216,-736 250.505,-736"/>
<polygon fill="none" stroke="black" points="250.255,-732.5 240.255,-736 250.255,-739.5 250.255,-732.5"/>
</g>
<!-- \\OSS\\SNMP\\MIBS\\Cisco\\RSTP -->
<g id="node10" class="node"><title>\\OSS\\SNMP\\MIBS\\Cisco\\RSTP</title>
<a xlink:href="SNMP.MIBS.Cisco.RSTP.html" xlink:title="RSTP" target="_parent">
<polygon fill="none" stroke="black" points="378,-700 324,-700 324,-664 378,-664 378,-700"/>
<text text-anchor="middle" x="351" y="-679.1" font-family="Courier,monospace" font-size="11.00">RSTP</text>
</a>
</g>
<!-- \\OSS\\SNMP\\MIBS\\Cisco\\RSTP&#45;&gt;OSS\\SNMP\\MIBS\\Cisco -->
<g id="edge33" class="edge"><title>\\OSS\\SNMP\\MIBS\\Cisco\\RSTP&#45;&gt;OSS\\SNMP\\MIBS\\Cisco</title>
<path fill="none" stroke="black" d="M323.594,-688.407C292.04,-695.783 238.887,-708.208 194.804,-718.513"/>
<polygon fill="none" stroke="black" points="193.911,-715.128 184.971,-720.812 195.505,-721.944 193.911,-715.128"/>
</g>
<!-- \\OSS\\SNMP\\MIBS\\Iface -->
<g id="node11" class="node"><title>\\OSS\\SNMP\\MIBS\\Iface</title>
<a xlink:href="SNMP.MIBS.Iface.html" xlink:title="Iface" target="_parent">
<polygon fill="none" stroke="black" points="378,-646 324,-646 324,-610 378,-610 378,-646"/>
<text text-anchor="middle" x="351" y="-625.1" font-family="Courier,monospace" font-size="11.00">Iface</text>
</a>
</g>
<!-- OSS\\SNMP\\MIB -->
<g id="node31" class="node"><title>OSS\\SNMP\\MIB</title>
<ellipse fill="none" stroke="black" cx="120" cy="-466" rx="85.7684" ry="18.3848"/>
<text text-anchor="middle" x="120" y="-462.4" font-family="Times Roman,serif" font-size="14.00" fill="gray">OSS\SNMP\MIB</text>
</g>
<!-- \\OSS\\SNMP\\MIBS\\Iface&#45;&gt;OSS\\SNMP\\MIB -->
<g id="edge15" class="edge"><title>\\OSS\\SNMP\\MIBS\\Iface&#45;&gt;OSS\\SNMP\\MIB</title>
<path fill="none" stroke="black" d="M323.881,-617.195C313.617,-612.696 302.004,-607.097 292,-601 237.165,-567.582 179.695,-519.381 147.017,-490.526"/>
<polygon fill="none" stroke="black" points="149.058,-487.658 139.259,-483.628 144.406,-492.888 149.058,-487.658"/>
</g>
<!-- \\OSS\\SNMP\\MIBS\\Bridge -->
<g id="node12" class="node"><title>\\OSS\\SNMP\\MIBS\\Bridge</title>
<a xlink:href="SNMP.MIBS.Bridge.html" xlink:title="Bridge" target="_parent">
<polygon fill="none" stroke="black" points="379,-592 323,-592 323,-556 379,-556 379,-592"/>
<text text-anchor="middle" x="351" y="-571.1" font-family="Courier,monospace" font-size="11.00">Bridge</text>
</a>
</g>
<!-- \\OSS\\SNMP\\MIBS\\Bridge&#45;&gt;OSS\\SNMP\\MIB -->
<g id="edge17" class="edge"><title>\\OSS\\SNMP\\MIBS\\Bridge&#45;&gt;OSS\\SNMP\\MIB</title>
<path fill="none" stroke="black" d="M322.462,-561.016C312.782,-556.592 301.911,-551.601 292,-547 248.49,-526.8 198.946,-503.429 164.244,-486.998"/>
<polygon fill="none" stroke="black" points="165.402,-483.674 154.867,-482.556 162.406,-490 165.402,-483.674"/>
</g>
<!-- \\OSS\\SNMP\\MIBS\\LAG -->
<g id="node13" class="node"><title>\\OSS\\SNMP\\MIBS\\LAG</title>
<a xlink:href="SNMP.MIBS.LAG.html" xlink:title="LAG" target="_parent">
<polygon fill="none" stroke="black" points="378,-538 324,-538 324,-502 378,-502 378,-538"/>
<text text-anchor="middle" x="351" y="-517.1" font-family="Courier,monospace" font-size="11.00">LAG</text>
</a>
</g>
<!-- \\OSS\\SNMP\\MIBS\\LAG&#45;&gt;OSS\\SNMP\\MIB -->
<g id="edge19" class="edge"><title>\\OSS\\SNMP\\MIBS\\LAG&#45;&gt;OSS\\SNMP\\MIB</title>
<path fill="none" stroke="black" d="M323.594,-513.593C290.303,-505.811 232.972,-492.409 187.614,-481.806"/>
<polygon fill="none" stroke="black" points="188.371,-478.389 177.837,-479.52 186.778,-485.205 188.371,-478.389"/>
</g>
<!-- \\OSS\\SNMP\\MIBS\\Cisco -->
<g id="node14" class="node"><title>\\OSS\\SNMP\\MIBS\\Cisco</title>
<a xlink:href="SNMP.MIBS.Cisco.html" xlink:title="Cisco" target="_parent">
<polygon fill="none" stroke="black" points="378,-484 324,-484 324,-448 378,-448 378,-484"/>
<text text-anchor="middle" x="351" y="-463.1" font-family="Courier,monospace" font-size="11.00">Cisco</text>
</a>
</g>
<!-- \\OSS\\SNMP\\MIBS\\Cisco&#45;&gt;OSS\\SNMP\\MIB -->
<g id="edge21" class="edge"><title>\\OSS\\SNMP\\MIBS\\Cisco&#45;&gt;OSS\\SNMP\\MIB</title>
<path fill="none" stroke="black" d="M323.594,-466C297.155,-466 255.552,-466 216.827,-466"/>
<polygon fill="none" stroke="black" points="216.527,-462.5 206.527,-466 216.527,-469.5 216.527,-462.5"/>
</g>
<!-- \\OSS\\SNMP\\MIBS\\Entity -->
<g id="node15" class="node"><title>\\OSS\\SNMP\\MIBS\\Entity</title>
<a xlink:href="SNMP.MIBS.Entity.html" xlink:title="Entity" target="_parent">
<polygon fill="none" stroke="black" points="379,-430 323,-430 323,-394 379,-394 379,-430"/>
<text text-anchor="middle" x="351" y="-409.1" font-family="Courier,monospace" font-size="11.00">Entity</text>
</a>
</g>
<!-- \\OSS\\SNMP\\MIBS\\Entity&#45;&gt;OSS\\SNMP\\MIB -->
<g id="edge23" class="edge"><title>\\OSS\\SNMP\\MIBS\\Entity&#45;&gt;OSS\\SNMP\\MIB</title>
<path fill="none" stroke="black" d="M322.211,-418.73C288.703,-426.563 232.252,-439.759 187.497,-450.222"/>
<polygon fill="none" stroke="black" points="186.499,-446.86 177.558,-452.545 188.092,-453.677 186.499,-446.86"/>
</g>
<!-- \\OSS\\SNMP\\MIBS\\System -->
<g id="node16" class="node"><title>\\OSS\\SNMP\\MIBS\\System</title>
<a xlink:href="SNMP.MIBS.System.html" xlink:title="System" target="_parent">
<polygon fill="none" stroke="black" points="379,-376 323,-376 323,-340 379,-340 379,-376"/>
<text text-anchor="middle" x="351" y="-355.1" font-family="Courier,monospace" font-size="11.00">System</text>
</a>
</g>
<!-- \\OSS\\SNMP\\MIBS\\System&#45;&gt;OSS\\SNMP\\MIB -->
<g id="edge25" class="edge"><title>\\OSS\\SNMP\\MIBS\\System&#45;&gt;OSS\\SNMP\\MIB</title>
<path fill="none" stroke="black" d="M322.462,-370.984C312.782,-375.408 301.911,-380.399 292,-385 248.49,-405.2 198.946,-428.571 164.244,-445.002"/>
<polygon fill="none" stroke="black" points="162.406,-442 154.867,-449.444 165.402,-448.326 162.406,-442"/>
</g>
<!-- \\OSS\\SNMP\\MIBS\\Host -->
<g id="node17" class="node"><title>\\OSS\\SNMP\\MIBS\\Host</title>
<a xlink:href="SNMP.MIBS.Host.html" xlink:title="Host" target="_parent">
<polygon fill="none" stroke="black" points="378,-322 324,-322 324,-286 378,-286 378,-322"/>
<text text-anchor="middle" x="351" y="-301.1" font-family="Courier,monospace" font-size="11.00">Host</text>
</a>
</g>
<!-- \\OSS\\SNMP\\MIBS\\Host&#45;&gt;OSS\\SNMP\\MIB -->
<g id="edge27" class="edge"><title>\\OSS\\SNMP\\MIBS\\Host&#45;&gt;OSS\\SNMP\\MIB</title>
<path fill="none" stroke="black" d="M323.881,-314.805C313.617,-319.304 302.004,-324.903 292,-331 237.165,-364.418 179.695,-412.619 147.017,-441.474"/>
<polygon fill="none" stroke="black" points="144.406,-439.112 139.259,-448.372 149.058,-444.342 144.406,-439.112"/>
</g>
<!-- \\OSS\\SNMP\\MIB -->
<g id="node19" class="node"><title>\\OSS\\SNMP\\MIB</title>
<a xlink:href="SNMP.MIB.html" xlink:title="MIB" target="_parent">
<polygon fill="none" stroke="black" points="378,-268 324,-268 324,-232 378,-232 378,-268"/>
<text text-anchor="middle" x="351" y="-247.1" font-family="Courier,monospace" font-size="11.00">MIB</text>
</a>
</g>
<!-- \\OSS\\Cache -->
<g id="node23" class="node"><title>\\OSS\\Cache</title>
<a xlink:href="Cache.html" xlink:title="Cache" target="_parent">
<polygon fill="none" stroke="black" points="378,-214 324,-214 324,-178 378,-178 378,-214"/>
<text text-anchor="middle" x="351" y="-193.1" font-family="Courier,monospace" font-size="11.00">Cache</text>
</a>
</g>
<!-- \\OSS\\Timer -->
<g id="node24" class="node"><title>\\OSS\\Timer</title>
<a xlink:href="Timer.html" xlink:title="Timer" target="_parent">
<polygon fill="none" stroke="black" points="378,-160 324,-160 324,-124 378,-124 378,-160"/>
<text text-anchor="middle" x="351" y="-139.1" font-family="Courier,monospace" font-size="11.00">Timer</text>
</a>
</g>
<!-- \\OSS\\SNMP -->
<g id="node25" class="node"><title>\\OSS\\SNMP</title>
<a xlink:href="SNMP.html" xlink:title="SNMP" target="_parent">
<polygon fill="none" stroke="black" points="378,-106 324,-106 324,-70 378,-70 378,-106"/>
<text text-anchor="middle" x="351" y="-85.1" font-family="Courier,monospace" font-size="11.00">SNMP</text>
</a>
</g>
<!-- \\OSS\\Exception -->
<g id="node26" class="node"><title>\\OSS\\Exception</title>
<a xlink:href="Exception.html" xlink:title="Exception" target="_parent">
<polygon fill="none" stroke="black" points="389,-52 313,-52 313,-16 389,-16 389,-52"/>
<text text-anchor="middle" x="351" y="-31.1" font-family="Courier,monospace" font-size="11.00">Exception</text>
</a>
</g>
<!-- Exception -->
<g id="node43" class="node"><title>Exception</title>
<ellipse fill="none" stroke="black" cx="120" cy="-34" rx="58.8978" ry="18.3848"/>
<text text-anchor="middle" x="120" y="-30.4" font-family="Times Roman,serif" font-size="14.00" fill="gray">Exception</text>
</g>
<!-- \\OSS\\Exception&#45;&gt;Exception -->
<g id="edge35" class="edge"><title>\\OSS\\Exception&#45;&gt;Exception</title>
<path fill="none" stroke="black" d="M312.336,-34C278.946,-34 229.877,-34 189.66,-34"/>
<polygon fill="none" stroke="black" points="189.641,-30.5001 179.641,-34 189.641,-37.5001 189.641,-30.5001"/>
</g>
</g>
</svg>
