<?xml version="1.0" encoding="UTF-8" standalone="no"?>
<!DOCTYPE svg PUBLIC "-//W3C//DTD SVG 1.1//EN"
 "http://www.w3.org/Graphics/SVG/1.1/DTD/svg11.dtd">
<!-- Generated by graphviz version 2.26.3 (20100126.1600)
 -->
<!-- Title: G Pages: 1 -->
<svg width="472pt" height="1272pt"
 viewBox="0.00 0.00 472.00 1272.00" xmlns="http://www.w3.org/2000/svg" xmlns:xlink="http://www.w3.org/1999/xlink">
<g id="graph1" class="graph" transform="scale(1 1) rotate(0) translate(4 1268)">
<title>G</title>
<polygon fill="white" stroke="white" points="-4,5 -4,-1268 469,-1268 469,5 -4,5"/>
<g id="graph2" class="cluster"><title>cluster_OSS_SNMP</title>
<polyline fill="none" stroke="gray" points="20,-44 444,-44 "/>
<path fill="none" stroke="gray" d="M444,-44C450,-44 456,-50 456,-56"/>
<polyline fill="none" stroke="gray" points="456,-56 456,-1244 "/>
<path fill="none" stroke="gray" d="M456,-1244C456,-1250 450,-1256 444,-1256"/>
<polyline fill="none" stroke="gray" points="444,-1256 20,-1256 "/>
<path fill="none" stroke="gray" d="M20,-1256C14,-1256 8,-1250 8,-1244"/>
<polyline fill="none" stroke="gray" points="8,-1244 8,-56 "/>
<path fill="none" stroke="gray" d="M8,-56C8,-50 14,-44 20,-44"/>
<text text-anchor="middle" x="232" y="-1242.1" font-family="Times Roman,serif" font-size="11.00" fill="gray">OSS_SNMP</text>
</g>
<g id="graph3" class="cluster"><title>cluster_OSS_SNMP\Cache</title>
<polyline fill="none" stroke="gray" points="363,-1098 409,-1098 "/>
<path fill="none" stroke="gray" d="M409,-1098C415,-1098 421,-1104 421,-1110"/>
<polyline fill="none" stroke="gray" points="421,-1110 421,-1214 "/>
<path fill="none" stroke="gray" d="M421,-1214C421,-1220 415,-1226 409,-1226"/>
<polyline fill="none" stroke="gray" points="409,-1226 363,-1226 "/>
<path fill="none" stroke="gray" d="M363,-1226C357,-1226 351,-1220 351,-1214"/>
<polyline fill="none" stroke="gray" points="351,-1214 351,-1110 "/>
<path fill="none" stroke="gray" d="M351,-1110C351,-1104 357,-1098 363,-1098"/>
<text text-anchor="middle" x="386" y="-1212.1" font-family="Times Roman,serif" font-size="11.00" fill="gray">Cache</text>
</g>
<g id="graph4" class="cluster"><title>cluster_OSS_SNMP\MIBS</title>
<polyline fill="none" stroke="gray" points="182,-204 436,-204 "/>
<path fill="none" stroke="gray" d="M436,-204C442,-204 448,-210 448,-216"/>
<polyline fill="none" stroke="gray" points="448,-216 448,-1078 "/>
<path fill="none" stroke="gray" d="M448,-1078C448,-1084 442,-1090 436,-1090"/>
<polyline fill="none" stroke="gray" points="436,-1090 182,-1090 "/>
<path fill="none" stroke="gray" d="M182,-1090C176,-1090 170,-1084 170,-1078"/>
<polyline fill="none" stroke="gray" points="170,-1078 170,-216 "/>
<path fill="none" stroke="gray" d="M170,-216C170,-210 176,-204 182,-204"/>
<text text-anchor="middle" x="309" y="-1076.1" font-family="Times Roman,serif" font-size="11.00" fill="gray">MIBS</text>
</g>
<g id="graph5" class="cluster"><title>cluster_OSS_SNMP\MIBS\Asterisk</title>
<polyline fill="none" stroke="gray" points="344,-510 428,-510 "/>
<path fill="none" stroke="gray" d="M428,-510C434,-510 440,-516 440,-522"/>
<polyline fill="none" stroke="gray" points="440,-522 440,-626 "/>
<path fill="none" stroke="gray" d="M440,-626C440,-632 434,-638 428,-638"/>
<polyline fill="none" stroke="gray" points="428,-638 344,-638 "/>
<path fill="none" stroke="gray" d="M344,-638C338,-638 332,-632 332,-626"/>
<polyline fill="none" stroke="gray" points="332,-626 332,-522 "/>
<path fill="none" stroke="gray" d="M332,-522C332,-516 338,-510 344,-510"/>
<text text-anchor="middle" x="386" y="-624.1" font-family="Times Roman,serif" font-size="11.00" fill="gray">Asterisk</text>
</g>
<g id="graph6" class="cluster"><title>cluster_OSS_SNMP\MIBS\Cisco</title>
<polyline fill="none" stroke="gray" points="363,-212 409,-212 "/>
<path fill="none" stroke="gray" d="M409,-212C415,-212 421,-218 421,-224"/>
<polyline fill="none" stroke="gray" points="421,-224 421,-490 "/>
<path fill="none" stroke="gray" d="M421,-490C421,-496 415,-502 409,-502"/>
<polyline fill="none" stroke="gray" points="409,-502 363,-502 "/>
<path fill="none" stroke="gray" d="M363,-502C357,-502 351,-496 351,-490"/>
<polyline fill="none" stroke="gray" points="351,-490 351,-224 "/>
<path fill="none" stroke="gray" d="M351,-224C351,-218 357,-212 363,-212"/>
<text text-anchor="middle" x="386" y="-488.1" font-family="Times Roman,serif" font-size="11.00" fill="gray">Cisco</text>
</g>
<!-- \\OSS_SNMP\\Cache\\APC -->
<g id="node3" class="node"><title>\\OSS_SNMP\\Cache\\APC</title>
<a xlink:href="Cache.APC.html" xlink:title="APC" target="_parent">
<polygon fill="none" stroke="black" points="413,-1196 359,-1196 359,-1160 413,-1160 413,-1196"/>
<text text-anchor="middle" x="386" y="-1175.1" font-family="Courier,monospace" font-size="11.00">APC</text>
</a>
</g>
<!-- \\OSS_SNMP\\Cache -->
<g id="node26" class="node"><title>\\OSS_SNMP\\Cache</title>
<a xlink:href="Cache.html" xlink:title="«abstract»&lt;br/&gt;Cache" target="_parent">
<polygon fill="none" stroke="black" points="247,-1169 163,-1169 163,-1133 247,-1133 247,-1169"/>
<text text-anchor="start" x="171" y="-1156.43" font-family="Courier,monospace" font-size="11.00">«abstract»</text>
<text text-anchor="start" x="188" y="-1143.23" font-family="Courier,monospace" font-size="11.00">Cache</text>
</a>
</g>
<!-- \\OSS_SNMP\\Cache\\APC&#45;&gt;\\OSS_SNMP\\Cache -->
<g id="edge9" class="edge"><title>\\OSS_SNMP\\Cache\\APC&#45;&gt;\\OSS_SNMP\\Cache</title>
<path fill="none" stroke="black" d="M358.902,-1173.96C332.269,-1169.98 290.913,-1163.82 257.776,-1158.87"/>
<polygon fill="none" stroke="black" points="258.189,-1155.4 247.782,-1157.38 257.156,-1162.32 258.189,-1155.4"/>
</g>
<!-- \\OSS_SNMP\\Cache\\Basic -->
<g id="node4" class="node"><title>\\OSS_SNMP\\Cache\\Basic</title>
<a xlink:href="Cache.Basic.html" xlink:title="Basic" target="_parent">
<polygon fill="none" stroke="black" points="413,-1142 359,-1142 359,-1106 413,-1106 413,-1142"/>
<text text-anchor="middle" x="386" y="-1121.1" font-family="Courier,monospace" font-size="11.00">Basic</text>
</a>
</g>
<!-- \\OSS_SNMP\\Cache\\Basic&#45;&gt;\\OSS_SNMP\\Cache -->
<g id="edge11" class="edge"><title>\\OSS_SNMP\\Cache\\Basic&#45;&gt;\\OSS_SNMP\\Cache</title>
<path fill="none" stroke="black" d="M358.902,-1128.04C332.269,-1132.02 290.913,-1138.18 257.776,-1143.13"/>
<polygon fill="none" stroke="black" points="257.156,-1139.68 247.782,-1144.62 258.189,-1146.6 257.156,-1139.68"/>
</g>
<!-- \\OSS_SNMP\\MIBS\\Asterisk\\Indications -->
<g id="node7" class="node"><title>\\OSS_SNMP\\MIBS\\Asterisk\\Indications</title>
<a xlink:href="MIBS.Asterisk.Indications.html" xlink:title="Indications" target="_parent">
<polygon fill="none" stroke="black" points="431,-554 341,-554 341,-518 431,-518 431,-554"/>
<text text-anchor="middle" x="386" y="-533.1" font-family="Courier,monospace" font-size="11.00">Indications</text>
</a>
</g>
<!-- \\OSS_SNMP\\MIB -->
<g id="node29" class="node"><title>\\OSS_SNMP\\MIB</title>
<a xlink:href="MIB.html" xlink:title="MIB" target="_parent">
<polygon fill="none" stroke="black" points="70,-604 16,-604 16,-568 70,-568 70,-604"/>
<text text-anchor="middle" x="43" y="-583.1" font-family="Courier,monospace" font-size="11.00">MIB</text>
</a>
</g>
<!-- \\OSS_SNMP\\MIBS\\Asterisk\\Indications&#45;&gt;\\OSS_SNMP\\MIB -->
<g id="edge21" class="edge"><title>\\OSS_SNMP\\MIBS\\Asterisk\\Indications&#45;&gt;\\OSS_SNMP\\MIB</title>
<path fill="none" stroke="black" d="M341.491,-554.123C337.973,-556.734 334.731,-559.682 332,-563 264.293,-645.251 350.174,-726.199 268,-794 246.335,-811.876 230.301,-811.198 205,-799"/>
<path fill="none" stroke="black" d="M205,-799C179.699,-786.802 165.136,-809.926 142,-794 80.4182,-751.609 55.9839,-660.215 47.2822,-613.99"/>
<polygon fill="none" stroke="black" points="50.7132,-613.292 45.525,-604.055 43.8201,-614.511 50.7132,-613.292"/>
</g>
<!-- \\OSS_SNMP\\MIBS\\Asterisk\\Channels -->
<g id="node8" class="node"><title>\\OSS_SNMP\\MIBS\\Asterisk\\Channels</title>
<a xlink:href="MIBS.Asterisk.Channels.html" xlink:title="Channels" target="_parent">
<polygon fill="none" stroke="black" points="421,-608 351,-608 351,-572 421,-572 421,-608"/>
<text text-anchor="middle" x="386" y="-587.1" font-family="Courier,monospace" font-size="11.00">Channels</text>
</a>
</g>
<!-- \\OSS_SNMP\\MIBS\\Asterisk\\Channels&#45;&gt;\\OSS_SNMP\\MIB -->
<g id="edge23" class="edge"><title>\\OSS_SNMP\\MIBS\\Asterisk\\Channels&#45;&gt;\\OSS_SNMP\\MIB</title>
<path fill="none" stroke="black" d="M350.482,-599.45C343.678,-602.561 337.097,-606.649 332,-612 272.865,-674.09 335.951,-741.705 268,-794 245.741,-811.131 230.301,-811.198 205,-799"/>
</g>
<!-- \\OSS_SNMP\\MIBS\\Cisco\\CDP -->
<g id="node10" class="node"><title>\\OSS_SNMP\\MIBS\\Cisco\\CDP</title>
<a xlink:href="MIBS.Cisco.CDP.html" xlink:title="CDP" target="_parent">
<polygon fill="none" stroke="black" points="413,-472 359,-472 359,-436 413,-436 413,-472"/>
<text text-anchor="middle" x="386" y="-451.1" font-family="Courier,monospace" font-size="11.00">CDP</text>
</a>
</g>
<!-- \\OSS_SNMP\\MIBS\\Cisco -->
<g id="node18" class="node"><title>\\OSS_SNMP\\MIBS\\Cisco</title>
<a xlink:href="MIBS.Cisco.html" xlink:title="Cisco" target="_parent">
<polygon fill="none" stroke="black" points="232,-391 178,-391 178,-355 232,-355 232,-391"/>
<text text-anchor="middle" x="205" y="-370.1" font-family="Courier,monospace" font-size="11.00">Cisco</text>
</a>
</g>
<!-- \\OSS_SNMP\\MIBS\\Cisco\\CDP&#45;&gt;\\OSS_SNMP\\MIBS\\Cisco -->
<g id="edge35" class="edge"><title>\\OSS_SNMP\\MIBS\\Cisco\\CDP&#45;&gt;\\OSS_SNMP\\MIBS\\Cisco</title>
<path fill="none" stroke="black" d="M358.717,-440.352C323.955,-422.963 268.29,-395.123 268,-395 259.626,-391.461 250.467,-388.025 241.79,-384.961"/>
<polygon fill="none" stroke="black" points="242.861,-381.628 232.267,-381.674 240.577,-388.245 242.861,-381.628"/>
</g>
<!-- \\OSS_SNMP\\MIBS\\Cisco\\MST -->
<g id="node11" class="node"><title>\\OSS_SNMP\\MIBS\\Cisco\\MST</title>
<a xlink:href="MIBS.Cisco.MST.html" xlink:title="MST" target="_parent">
<polygon fill="none" stroke="black" points="413,-418 359,-418 359,-382 413,-382 413,-418"/>
<text text-anchor="middle" x="386" y="-397.1" font-family="Courier,monospace" font-size="11.00">MST</text>
</a>
</g>
<!-- \\OSS_SNMP\\MIBS\\Cisco\\MST&#45;&gt;\\OSS_SNMP\\MIBS\\Cisco -->
<g id="edge37" class="edge"><title>\\OSS_SNMP\\MIBS\\Cisco\\MST&#45;&gt;\\OSS_SNMP\\MIBS\\Cisco</title>
<path fill="none" stroke="black" d="M358.902,-395.958C327.979,-391.345 277.209,-383.771 242.499,-378.594"/>
<polygon fill="none" stroke="black" points="242.69,-375.084 232.283,-377.07 241.657,-382.007 242.69,-375.084"/>
</g>
<!-- \\OSS_SNMP\\MIBS\\Cisco\\VTP -->
<g id="node12" class="node"><title>\\OSS_SNMP\\MIBS\\Cisco\\VTP</title>
<a xlink:href="MIBS.Cisco.VTP.html" xlink:title="VTP" target="_parent">
<polygon fill="none" stroke="black" points="413,-364 359,-364 359,-328 413,-328 413,-364"/>
<text text-anchor="middle" x="386" y="-343.1" font-family="Courier,monospace" font-size="11.00">VTP</text>
</a>
</g>
<!-- \\OSS_SNMP\\MIBS\\Cisco\\VTP&#45;&gt;\\OSS_SNMP\\MIBS\\Cisco -->
<g id="edge39" class="edge"><title>\\OSS_SNMP\\MIBS\\Cisco\\VTP&#45;&gt;\\OSS_SNMP\\MIBS\\Cisco</title>
<path fill="none" stroke="black" d="M358.902,-350.042C327.979,-354.655 277.209,-362.229 242.499,-367.406"/>
<polygon fill="none" stroke="black" points="241.657,-363.993 232.283,-368.93 242.69,-370.916 241.657,-363.993"/>
</g>
<!-- \\OSS_SNMP\\MIBS\\Cisco\\RSTP -->
<g id="node13" class="node"><title>\\OSS_SNMP\\MIBS\\Cisco\\RSTP</title>
<a xlink:href="MIBS.Cisco.RSTP.html" xlink:title="RSTP" target="_parent">
<polygon fill="none" stroke="black" points="413,-310 359,-310 359,-274 413,-274 413,-310"/>
<text text-anchor="middle" x="386" y="-289.1" font-family="Courier,monospace" font-size="11.00">RSTP</text>
</a>
</g>
<!-- \\OSS_SNMP\\MIBS\\Cisco\\RSTP&#45;&gt;\\OSS_SNMP\\MIBS\\Cisco -->
<g id="edge41" class="edge"><title>\\OSS_SNMP\\MIBS\\Cisco\\RSTP&#45;&gt;\\OSS_SNMP\\MIBS\\Cisco</title>
<path fill="none" stroke="black" d="M358.717,-305.648C323.955,-323.037 268.29,-350.877 268,-351 259.626,-354.539 250.467,-357.975 241.79,-361.039"/>
<polygon fill="none" stroke="black" points="240.577,-357.755 232.267,-364.326 242.861,-364.372 240.577,-357.755"/>
</g>
<!-- \\OSS_SNMP\\MIBS\\Cisco\\SMST -->
<g id="node14" class="node"><title>\\OSS_SNMP\\MIBS\\Cisco\\SMST</title>
<a xlink:href="MIBS.Cisco.SMST.html" xlink:title="SMST" target="_parent">
<polygon fill="none" stroke="black" points="413,-256 359,-256 359,-220 413,-220 413,-256"/>
<text text-anchor="middle" x="386" y="-235.1" font-family="Courier,monospace" font-size="11.00">SMST</text>
</a>
</g>
<!-- \\OSS_SNMP\\MIBS\\Cisco\\SMST&#45;&gt;\\OSS_SNMP\\MIBS\\Cisco -->
<g id="edge43" class="edge"><title>\\OSS_SNMP\\MIBS\\Cisco\\SMST&#45;&gt;\\OSS_SNMP\\MIBS\\Cisco</title>
<path fill="none" stroke="black" d="M358.956,-248.49C349.832,-252.789 339.954,-258.336 332,-265 295.478,-295.596 306.4,-322.796 268,-351 260.252,-356.691 250.907,-361.004 241.814,-364.235"/>
<polygon fill="none" stroke="black" points="240.594,-360.95 232.135,-367.33 242.726,-367.618 240.594,-360.95"/>
</g>
<!-- \\OSS_SNMP\\MIBS\\Iface -->
<g id="node15" class="node"><title>\\OSS_SNMP\\MIBS\\Iface</title>
<a xlink:href="MIBS.Iface.html" xlink:title="Iface" target="_parent">
<polygon fill="none" stroke="black" points="413,-682 359,-682 359,-646 413,-646 413,-682"/>
<text text-anchor="middle" x="386" y="-661.1" font-family="Courier,monospace" font-size="11.00">Iface</text>
</a>
</g>
<!-- \\OSS_SNMP\\MIBS\\Iface&#45;&gt;\\OSS_SNMP\\MIB -->
<g id="edge13" class="edge"><title>\\OSS_SNMP\\MIBS\\Iface&#45;&gt;\\OSS_SNMP\\MIB</title>
<path fill="none" stroke="black" d="M358.911,-673.992C349.68,-678.274 339.746,-683.938 332,-691 292.172,-727.31 314.031,-765.967 268,-794 244.01,-808.61 230.301,-811.198 205,-799"/>
</g>
<!-- \\OSS_SNMP\\MIBS\\Bridge -->
<g id="node16" class="node"><title>\\OSS_SNMP\\MIBS\\Bridge</title>
<a xlink:href="MIBS.Bridge.html" xlink:title="Bridge" target="_parent">
<polygon fill="none" stroke="black" points="414,-736 358,-736 358,-700 414,-700 414,-736"/>
<text text-anchor="middle" x="386" y="-715.1" font-family="Courier,monospace" font-size="11.00">Bridge</text>
</a>
</g>
<!-- \\OSS_SNMP\\MIBS\\Bridge&#45;&gt;\\OSS_SNMP\\MIB -->
<g id="edge15" class="edge"><title>\\OSS_SNMP\\MIBS\\Bridge&#45;&gt;\\OSS_SNMP\\MIB</title>
<path fill="none" stroke="black" d="M357.421,-731.029C349.049,-735.18 340,-740.001 332,-745 279.986,-777.504 260.249,-825.636 205,-799"/>
</g>
<!-- \\OSS_SNMP\\MIBS\\LAG -->
<g id="node17" class="node"><title>\\OSS_SNMP\\MIBS\\LAG</title>
<a xlink:href="MIBS.LAG.html" xlink:title="LAG" target="_parent">
<polygon fill="none" stroke="black" points="413,-790 359,-790 359,-754 413,-754 413,-790"/>
<text text-anchor="middle" x="386" y="-769.1" font-family="Courier,monospace" font-size="11.00">LAG</text>
</a>
</g>
<!-- \\OSS_SNMP\\MIBS\\LAG&#45;&gt;\\OSS_SNMP\\MIB -->
<g id="edge17" class="edge"><title>\\OSS_SNMP\\MIBS\\LAG&#45;&gt;\\OSS_SNMP\\MIB</title>
<path fill="none" stroke="black" d="M358.777,-785.377C322.032,-801.416 255.369,-823.284 205,-799"/>
</g>
<!-- \\OSS_SNMP\\MIBS\\Cisco&#45;&gt;\\OSS_SNMP\\MIB -->
<g id="edge19" class="edge"><title>\\OSS_SNMP\\MIBS\\Cisco&#45;&gt;\\OSS_SNMP\\MIB</title>
<path fill="none" stroke="black" d="M177.879,-377.727C165.802,-380.947 152.066,-386.272 142,-395 90.7501,-439.434 62.3915,-516.947 50.2378,-558.245"/>
<polygon fill="none" stroke="black" points="46.8547,-557.346 47.493,-567.921 53.5891,-559.256 46.8547,-557.346"/>
</g>
<!-- \\OSS_SNMP\\MIBS\\Entity -->
<g id="node19" class="node"><title>\\OSS_SNMP\\MIBS\\Entity</title>
<a xlink:href="MIBS.Entity.html" xlink:title="Entity" target="_parent">
<polygon fill="none" stroke="black" points="414,-844 358,-844 358,-808 414,-808 414,-844"/>
<text text-anchor="middle" x="386" y="-823.1" font-family="Courier,monospace" font-size="11.00">Entity</text>
</a>
</g>
<!-- \\OSS_SNMP\\MIBS\\Entity&#45;&gt;\\OSS_SNMP\\MIB -->
<g id="edge25" class="edge"><title>\\OSS_SNMP\\MIBS\\Entity&#45;&gt;\\OSS_SNMP\\MIB</title>
<path fill="none" stroke="black" d="M357.193,-826.854C320.141,-826.831 254.654,-822.939 205,-799"/>
</g>
<!-- \\OSS_SNMP\\MIBS\\System -->
<g id="node20" class="node"><title>\\OSS_SNMP\\MIBS\\System</title>
<a xlink:href="MIBS.System.html" xlink:title="System" target="_parent">
<polygon fill="none" stroke="black" points="414,-898 358,-898 358,-862 414,-862 414,-898"/>
<text text-anchor="middle" x="386" y="-877.1" font-family="Courier,monospace" font-size="11.00">System</text>
</a>
</g>
<!-- \\OSS_SNMP\\MIBS\\System&#45;&gt;\\OSS_SNMP\\MIB -->
<g id="edge27" class="edge"><title>\\OSS_SNMP\\MIBS\\System&#45;&gt;\\OSS_SNMP\\MIB</title>
<path fill="none" stroke="black" d="M357.241,-867.731C321.341,-852.279 258.184,-824.641 205,-799"/>
</g>
<!-- \\OSS_SNMP\\MIBS\\BGP -->
<g id="node21" class="node"><title>\\OSS_SNMP\\MIBS\\BGP</title>
<a xlink:href="MIBS.BGP.html" xlink:title="BGP" target="_parent">
<polygon fill="none" stroke="black" points="413,-952 359,-952 359,-916 413,-916 413,-952"/>
<text text-anchor="middle" x="386" y="-931.1" font-family="Courier,monospace" font-size="11.00">BGP</text>
</a>
</g>
<!-- \\OSS_SNMP\\MIBS\\BGP&#45;&gt;\\OSS_SNMP\\MIB -->
<g id="edge29" class="edge"><title>\\OSS_SNMP\\MIBS\\BGP&#45;&gt;\\OSS_SNMP\\MIB</title>
<path fill="none" stroke="black" d="M358.922,-922.046C350.086,-917.734 340.394,-912.55 332,-907 270.193,-866.135 271.743,-831.178 205,-799"/>
</g>
<!-- \\OSS_SNMP\\MIBS\\Asterisk -->
<g id="node22" class="node"><title>\\OSS_SNMP\\MIBS\\Asterisk</title>
<a xlink:href="MIBS.Asterisk.html" xlink:title="Asterisk" target="_parent">
<polygon fill="none" stroke="black" points="421,-1006 351,-1006 351,-970 421,-970 421,-1006"/>
<text text-anchor="middle" x="386" y="-985.1" font-family="Courier,monospace" font-size="11.00">Asterisk</text>
</a>
</g>
<!-- \\OSS_SNMP\\MIBS\\Asterisk&#45;&gt;\\OSS_SNMP\\MIB -->
<g id="edge31" class="edge"><title>\\OSS_SNMP\\MIBS\\Asterisk&#45;&gt;\\OSS_SNMP\\MIB</title>
<path fill="none" stroke="black" d="M350.338,-972.997C343.918,-969.526 337.521,-965.508 332,-961 261.138,-903.134 287.41,-838.731 205,-799"/>
</g>
<!-- \\OSS_SNMP\\MIBS\\Host -->
<g id="node23" class="node"><title>\\OSS_SNMP\\MIBS\\Host</title>
<a xlink:href="MIBS.Host.html" xlink:title="Host" target="_parent">
<polygon fill="none" stroke="black" points="413,-1060 359,-1060 359,-1024 413,-1024 413,-1060"/>
<text text-anchor="middle" x="386" y="-1039.1" font-family="Courier,monospace" font-size="11.00">Host</text>
</a>
</g>
<!-- \\OSS_SNMP\\MIBS\\Host&#45;&gt;\\OSS_SNMP\\MIB -->
<g id="edge33" class="edge"><title>\\OSS_SNMP\\MIBS\\Host&#45;&gt;\\OSS_SNMP\\MIB</title>
<path fill="none" stroke="black" d="M358.814,-1032.11C349.574,-1027.84 339.659,-1022.16 332,-1015 250.627,-938.971 305.314,-847.363 205,-799"/>
</g>
<!-- \\OSS_SNMP\\Timer -->
<g id="node27" class="node"><title>\\OSS_SNMP\\Timer</title>
<a xlink:href="Timer.html" xlink:title="Timer" target="_parent">
<polygon fill="none" stroke="black" points="413,-196 359,-196 359,-160 413,-160 413,-196"/>
<text text-anchor="middle" x="386" y="-175.1" font-family="Courier,monospace" font-size="11.00">Timer</text>
</a>
</g>
<!-- \\OSS_SNMP\\SNMP -->
<g id="node28" class="node"><title>\\OSS_SNMP\\SNMP</title>
<a xlink:href="SNMP.html" xlink:title="SNMP" target="_parent">
<polygon fill="none" stroke="black" points="413,-142 359,-142 359,-106 413,-106 413,-142"/>
<text text-anchor="middle" x="386" y="-121.1" font-family="Courier,monospace" font-size="11.00">SNMP</text>
</a>
</g>
<!-- \\OSS_SNMP\\Exception -->
<g id="node30" class="node"><title>\\OSS_SNMP\\Exception</title>
<a xlink:href="Exception.html" xlink:title="Exception" target="_parent">
<polygon fill="none" stroke="black" points="424,-88 348,-88 348,-52 424,-52 424,-88"/>
<text text-anchor="middle" x="386" y="-67.1" font-family="Courier,monospace" font-size="11.00">Exception</text>
</a>
</g>
<!-- \\Exception -->
<g id="node50" class="node"><title>\\Exception</title>
<ellipse fill="none" stroke="black" cx="205" cy="-18" rx="62.9325" ry="18.3848"/>
<text text-anchor="middle" x="205" y="-14.4" font-family="Times Roman,serif" font-size="14.00" fill="gray">\Exception</text>
</g>
<!-- \\OSS_SNMP\\Exception&#45;&gt;\\Exception -->
<g id="edge45" class="edge"><title>\\OSS_SNMP\\Exception&#45;&gt;\\Exception</title>
<path fill="none" stroke="black" d="M347.171,-58.8447C321.525,-51.4769 287.554,-41.7173 259.251,-33.5858"/>
<polygon fill="none" stroke="black" points="260.076,-30.1815 249.499,-30.7841 258.143,-36.9093 260.076,-30.1815"/>
</g>
</g>
</svg>
