<?xml version="1.0" encoding="UTF-8" standalone="no"?>
<!DOCTYPE svg PUBLIC "-//W3C//DTD SVG 1.1//EN"
 "http://www.w3.org/Graphics/SVG/1.1/DTD/svg11.dtd">
<!-- Generated by graphviz version 2.26.3 (20100126.1600)
 -->
<!-- Title: G Pages: 1 -->
<svg width="484pt" height="1988pt"
 viewBox="0.00 0.00 484.00 1988.00" xmlns="http://www.w3.org/2000/svg" xmlns:xlink="http://www.w3.org/1999/xlink">
<g id="graph1" class="graph" transform="scale(1 1) rotate(0) translate(4 1984)">
<title>G</title>
<polygon fill="white" stroke="white" points="-4,5 -4,-1984 481,-1984 481,5 -4,5"/>
<g id="graph2" class="cluster"><title>cluster_OSS_SNMP</title>
<polyline fill="none" stroke="gray" points="340,-8 456,-8 "/>
<path fill="none" stroke="gray" d="M456,-8C462,-8 468,-14 468,-20"/>
<polyline fill="none" stroke="gray" points="468,-20 468,-1960 "/>
<path fill="none" stroke="gray" d="M468,-1960C468,-1966 462,-1972 456,-1972"/>
<polyline fill="none" stroke="gray" points="456,-1972 340,-1972 "/>
<path fill="none" stroke="gray" d="M340,-1972C334,-1972 328,-1966 328,-1960"/>
<polyline fill="none" stroke="gray" points="328,-1960 328,-20 "/>
<path fill="none" stroke="gray" d="M328,-20C328,-14 334,-8 340,-8"/>
<text text-anchor="middle" x="398" y="-1958.1" font-family="Times Roman,serif" font-size="11.00" fill="gray">OSS_SNMP</text>
</g>
<g id="graph3" class="cluster"><title>cluster_OSS_SNMP\Cache</title>
<polyline fill="none" stroke="gray" points="375,-1814 421,-1814 "/>
<path fill="none" stroke="gray" d="M421,-1814C427,-1814 433,-1820 433,-1826"/>
<polyline fill="none" stroke="gray" points="433,-1826 433,-1930 "/>
<path fill="none" stroke="gray" d="M433,-1930C433,-1936 427,-1942 421,-1942"/>
<polyline fill="none" stroke="gray" points="421,-1942 375,-1942 "/>
<path fill="none" stroke="gray" d="M375,-1942C369,-1942 363,-1936 363,-1930"/>
<polyline fill="none" stroke="gray" points="363,-1930 363,-1826 "/>
<path fill="none" stroke="gray" d="M363,-1826C363,-1820 369,-1814 375,-1814"/>
<text text-anchor="middle" x="398" y="-1928.1" font-family="Times Roman,serif" font-size="11.00" fill="gray">Cache</text>
</g>
<g id="graph4" class="cluster"><title>cluster_OSS_SNMP\MIBS</title>
<polyline fill="none" stroke="gray" points="348,-330 448,-330 "/>
<path fill="none" stroke="gray" d="M448,-330C454,-330 460,-336 460,-342"/>
<polyline fill="none" stroke="gray" points="460,-342 460,-1794 "/>
<path fill="none" stroke="gray" d="M460,-1794C460,-1800 454,-1806 448,-1806"/>
<polyline fill="none" stroke="gray" points="448,-1806 348,-1806 "/>
<path fill="none" stroke="gray" d="M348,-1806C342,-1806 336,-1800 336,-1794"/>
<polyline fill="none" stroke="gray" points="336,-1794 336,-342 "/>
<path fill="none" stroke="gray" d="M336,-342C336,-336 342,-330 348,-330"/>
<text text-anchor="middle" x="398" y="-1792.1" font-family="Times Roman,serif" font-size="11.00" fill="gray">MIBS</text>
</g>
<g id="graph5" class="cluster"><title>cluster_OSS_SNMP\MIBS\Asterisk</title>
<polyline fill="none" stroke="gray" points="356,-1496 440,-1496 "/>
<path fill="none" stroke="gray" d="M440,-1496C446,-1496 452,-1502 452,-1508"/>
<polyline fill="none" stroke="gray" points="452,-1508 452,-1612 "/>
<path fill="none" stroke="gray" d="M452,-1612C452,-1618 446,-1624 440,-1624"/>
<polyline fill="none" stroke="gray" points="440,-1624 356,-1624 "/>
<path fill="none" stroke="gray" d="M356,-1624C350,-1624 344,-1618 344,-1612"/>
<polyline fill="none" stroke="gray" points="344,-1612 344,-1508 "/>
<path fill="none" stroke="gray" d="M344,-1508C344,-1502 350,-1496 356,-1496"/>
<text text-anchor="middle" x="398" y="-1610.1" font-family="Times Roman,serif" font-size="11.00" fill="gray">Asterisk</text>
</g>
<g id="graph6" class="cluster"><title>cluster_OSS_SNMP\MIBS\Cisco</title>
<polyline fill="none" stroke="gray" points="375,-502 421,-502 "/>
<path fill="none" stroke="gray" d="M421,-502C427,-502 433,-508 433,-514"/>
<polyline fill="none" stroke="gray" points="433,-514 433,-780 "/>
<path fill="none" stroke="gray" d="M433,-780C433,-786 427,-792 421,-792"/>
<polyline fill="none" stroke="gray" points="421,-792 375,-792 "/>
<path fill="none" stroke="gray" d="M375,-792C369,-792 363,-786 363,-780"/>
<polyline fill="none" stroke="gray" points="363,-780 363,-514 "/>
<path fill="none" stroke="gray" d="M363,-514C363,-508 369,-502 375,-502"/>
<text text-anchor="middle" x="398" y="-778.1" font-family="Times Roman,serif" font-size="11.00" fill="gray">Cisco</text>
</g>
<g id="graph7" class="cluster"><title>cluster_OSS_SNMP\MIBS\Extreme</title>
<polyline fill="none" stroke="gray" points="375,-420 421,-420 "/>
<path fill="none" stroke="gray" d="M421,-420C427,-420 433,-426 433,-432"/>
<polyline fill="none" stroke="gray" points="433,-432 433,-482 "/>
<path fill="none" stroke="gray" d="M433,-482C433,-488 427,-494 421,-494"/>
<polyline fill="none" stroke="gray" points="421,-494 375,-494 "/>
<path fill="none" stroke="gray" d="M375,-494C369,-494 363,-488 363,-482"/>
<polyline fill="none" stroke="gray" points="363,-482 363,-432 "/>
<path fill="none" stroke="gray" d="M363,-432C363,-426 369,-420 375,-420"/>
<text text-anchor="middle" x="398" y="-480.1" font-family="Times Roman,serif" font-size="11.00" fill="gray">Extreme</text>
</g>
<g id="graph8" class="cluster"><title>cluster_OSS_SNMP\MIBS\Foundry</title>
<polyline fill="none" stroke="gray" points="370,-338 426,-338 "/>
<path fill="none" stroke="gray" d="M426,-338C432,-338 438,-344 438,-350"/>
<polyline fill="none" stroke="gray" points="438,-350 438,-400 "/>
<path fill="none" stroke="gray" d="M438,-400C438,-406 432,-412 426,-412"/>
<polyline fill="none" stroke="gray" points="426,-412 370,-412 "/>
<path fill="none" stroke="gray" d="M370,-412C364,-412 358,-406 358,-400"/>
<polyline fill="none" stroke="gray" points="358,-400 358,-350 "/>
<path fill="none" stroke="gray" d="M358,-350C358,-344 364,-338 370,-338"/>
<text text-anchor="middle" x="398" y="-398.1" font-family="Times Roman,serif" font-size="11.00" fill="gray">Foundry</text>
</g>
<g id="graph9" class="cluster"><title>cluster_OSS_SNMP\MIBS\MRV</title>
<polyline fill="none" stroke="gray" points="373,-1414 423,-1414 "/>
<path fill="none" stroke="gray" d="M423,-1414C429,-1414 435,-1420 435,-1426"/>
<polyline fill="none" stroke="gray" points="435,-1426 435,-1476 "/>
<path fill="none" stroke="gray" d="M435,-1476C435,-1482 429,-1488 423,-1488"/>
<polyline fill="none" stroke="gray" points="423,-1488 373,-1488 "/>
<path fill="none" stroke="gray" d="M373,-1488C367,-1488 361,-1482 361,-1476"/>
<polyline fill="none" stroke="gray" points="361,-1476 361,-1426 "/>
<path fill="none" stroke="gray" d="M361,-1426C361,-1420 367,-1414 373,-1414"/>
<text text-anchor="middle" x="398" y="-1474.1" font-family="Times Roman,serif" font-size="11.00" fill="gray">MRV</text>
</g>
<g id="graph10" class="cluster"><title>cluster_OSS_SNMP\MIBS\SNMP</title>
<polyline fill="none" stroke="gray" points="373,-1332 423,-1332 "/>
<path fill="none" stroke="gray" d="M423,-1332C429,-1332 435,-1338 435,-1344"/>
<polyline fill="none" stroke="gray" points="435,-1344 435,-1394 "/>
<path fill="none" stroke="gray" d="M435,-1394C435,-1400 429,-1406 423,-1406"/>
<polyline fill="none" stroke="gray" points="423,-1406 373,-1406 "/>
<path fill="none" stroke="gray" d="M373,-1406C367,-1406 361,-1400 361,-1394"/>
<polyline fill="none" stroke="gray" points="361,-1394 361,-1344 "/>
<path fill="none" stroke="gray" d="M361,-1344C361,-1338 367,-1332 373,-1332"/>
<text text-anchor="middle" x="398" y="-1392.1" font-family="Times Roman,serif" font-size="11.00" fill="gray">SNMP</text>
</g>
<!-- \\OSS_SNMP\\Cache\\APC -->
<g id="node3" class="node"><title>\\OSS_SNMP\\Cache\\APC</title>
<a xlink:href="Cache.APC.html" xlink:title="APC" target="_parent">
<polygon fill="none" stroke="black" points="425,-1912 371,-1912 371,-1876 425,-1876 425,-1912"/>
<text text-anchor="middle" x="398" y="-1891.1" font-family="Courier,monospace" font-size="11.00">APC</text>
</a>
</g>
<!-- OSS_SNMP\\Cache -->
<g id="node77" class="node"><title>OSS_SNMP\\Cache</title>
<ellipse fill="none" stroke="black" cx="140" cy="-1867" rx="98.9949" ry="18.3848"/>
<text text-anchor="middle" x="140" y="-1863.4" font-family="Times Roman,serif" font-size="14.00" fill="gray">OSS_SNMP\Cache</text>
</g>
<!-- \\OSS_SNMP\\Cache\\APC&#45;&gt;OSS_SNMP\\Cache -->
<g id="edge65" class="edge"><title>\\OSS_SNMP\\Cache\\APC&#45;&gt;OSS_SNMP\\Cache</title>
<path fill="none" stroke="black" d="M370.877,-1891.16C338.99,-1887.82 284.301,-1882.1 236.153,-1877.06"/>
<polygon fill="none" stroke="black" points="236.299,-1873.56 225.989,-1876 235.57,-1880.52 236.299,-1873.56"/>
</g>
<!-- \\OSS_SNMP\\Cache\\Basic -->
<g id="node4" class="node"><title>\\OSS_SNMP\\Cache\\Basic</title>
<a xlink:href="Cache.Basic.html" xlink:title="Basic" target="_parent">
<polygon fill="none" stroke="black" points="425,-1858 371,-1858 371,-1822 425,-1822 425,-1858"/>
<text text-anchor="middle" x="398" y="-1837.1" font-family="Courier,monospace" font-size="11.00">Basic</text>
</a>
</g>
<!-- \\OSS_SNMP\\Cache\\Basic&#45;&gt;OSS_SNMP\\Cache -->
<g id="edge67" class="edge"><title>\\OSS_SNMP\\Cache\\Basic&#45;&gt;OSS_SNMP\\Cache</title>
<path fill="none" stroke="black" d="M370.877,-1842.84C338.99,-1846.18 284.301,-1851.9 236.153,-1856.94"/>
<polygon fill="none" stroke="black" points="235.57,-1853.48 225.989,-1858 236.299,-1860.44 235.57,-1853.48"/>
</g>
<!-- \\OSS_SNMP\\MIBS\\Asterisk\\Indications -->
<g id="node7" class="node"><title>\\OSS_SNMP\\MIBS\\Asterisk\\Indications</title>
<a xlink:href="MIBS.Asterisk.Indications.html" xlink:title="Indications" target="_parent">
<polygon fill="none" stroke="black" points="443,-1594 353,-1594 353,-1558 443,-1558 443,-1594"/>
<text text-anchor="middle" x="398" y="-1573.1" font-family="Courier,monospace" font-size="11.00">Indications</text>
</a>
</g>
<!-- OSS_SNMP\\MIB -->
<g id="node49" class="node"><title>OSS_SNMP\\MIB</title>
<ellipse fill="none" stroke="black" cx="140" cy="-1250" rx="87.889" ry="18.3848"/>
<text text-anchor="middle" x="140" y="-1246.4" font-family="Times Roman,serif" font-size="14.00" fill="gray">OSS_SNMP\MIB</text>
</g>
<!-- \\OSS_SNMP\\MIBS\\Asterisk\\Indications&#45;&gt;OSS_SNMP\\MIB -->
<g id="edge27" class="edge"><title>\\OSS_SNMP\\MIBS\\Asterisk\\Indications&#45;&gt;OSS_SNMP\\MIB</title>
<path fill="none" stroke="black" d="M352.352,-1563.29C343.703,-1559.57 335.14,-1554.88 328,-1549 234.668,-1472.16 173.585,-1336.32 150.437,-1277.95"/>
<polygon fill="none" stroke="black" points="153.57,-1276.35 146.679,-1268.3 147.047,-1278.89 153.57,-1276.35"/>
</g>
<!-- \\OSS_SNMP\\MIBS\\Asterisk\\Channels -->
<g id="node8" class="node"><title>\\OSS_SNMP\\MIBS\\Asterisk\\Channels</title>
<a xlink:href="MIBS.Asterisk.Channels.html" xlink:title="Channels" target="_parent">
<polygon fill="none" stroke="black" points="433,-1540 363,-1540 363,-1504 433,-1504 433,-1540"/>
<text text-anchor="middle" x="398" y="-1519.1" font-family="Courier,monospace" font-size="11.00">Channels</text>
</a>
</g>
<!-- \\OSS_SNMP\\MIBS\\Asterisk\\Channels&#45;&gt;OSS_SNMP\\MIB -->
<g id="edge29" class="edge"><title>\\OSS_SNMP\\MIBS\\Asterisk\\Channels&#45;&gt;OSS_SNMP\\MIB</title>
<path fill="none" stroke="black" d="M362.281,-1510.73C350.659,-1506.04 338.151,-1499.84 328,-1492 247.5,-1429.83 182.386,-1325.55 154.573,-1276.73"/>
<polygon fill="none" stroke="black" points="157.619,-1275.01 149.666,-1268.01 151.519,-1278.44 157.619,-1275.01"/>
</g>
<!-- \\OSS_SNMP\\MIBS\\Cisco\\MST -->
<g id="node10" class="node"><title>\\OSS_SNMP\\MIBS\\Cisco\\MST</title>
<a xlink:href="MIBS.Cisco.MST.html" xlink:title="MST" target="_parent">
<polygon fill="none" stroke="black" points="425,-762 371,-762 371,-726 425,-726 425,-762"/>
<text text-anchor="middle" x="398" y="-741.1" font-family="Courier,monospace" font-size="11.00">MST</text>
</a>
</g>
<!-- OSS_SNMP\\MIBS\\Cisco -->
<g id="node70" class="node"><title>OSS_SNMP\\MIBS\\Cisco</title>
<ellipse fill="none" stroke="black" cx="140" cy="-636" rx="121.83" ry="18.3848"/>
<text text-anchor="middle" x="140" y="-632.4" font-family="Times Roman,serif" font-size="14.00" fill="gray">OSS_SNMP\MIBS\Cisco</text>
</g>
<!-- \\OSS_SNMP\\MIBS\\Cisco\\MST&#45;&gt;OSS_SNMP\\MIBS\\Cisco -->
<g id="edge53" class="edge"><title>\\OSS_SNMP\\MIBS\\Cisco\\MST&#45;&gt;OSS_SNMP\\MIBS\\Cisco</title>
<path fill="none" stroke="black" d="M370.979,-733.857C357.944,-728.893 342.11,-722.758 328,-717 280.072,-697.44 225.823,-673.917 187.961,-657.272"/>
<polygon fill="none" stroke="black" points="189.264,-654.021 178.702,-653.195 186.443,-660.428 189.264,-654.021"/>
</g>
<!-- \\OSS_SNMP\\MIBS\\Cisco\\RSTP -->
<g id="node11" class="node"><title>\\OSS_SNMP\\MIBS\\Cisco\\RSTP</title>
<a xlink:href="MIBS.Cisco.RSTP.html" xlink:title="RSTP" target="_parent">
<polygon fill="none" stroke="black" points="425,-708 371,-708 371,-672 425,-672 425,-708"/>
<text text-anchor="middle" x="398" y="-687.1" font-family="Courier,monospace" font-size="11.00">RSTP</text>
</a>
</g>
<!-- \\OSS_SNMP\\MIBS\\Cisco\\RSTP&#45;&gt;OSS_SNMP\\MIBS\\Cisco -->
<g id="edge55" class="edge"><title>\\OSS_SNMP\\MIBS\\Cisco\\RSTP&#45;&gt;OSS_SNMP\\MIBS\\Cisco</title>
<path fill="none" stroke="black" d="M370.877,-684.323C335.447,-676.908 271.869,-663.6 220.388,-652.825"/>
<polygon fill="none" stroke="black" points="221.101,-649.399 210.596,-650.776 219.667,-656.25 221.101,-649.399"/>
</g>
<!-- \\OSS_SNMP\\MIBS\\Cisco\\VTP -->
<g id="node12" class="node"><title>\\OSS_SNMP\\MIBS\\Cisco\\VTP</title>
<a xlink:href="MIBS.Cisco.VTP.html" xlink:title="VTP" target="_parent">
<polygon fill="none" stroke="black" points="425,-654 371,-654 371,-618 425,-618 425,-654"/>
<text text-anchor="middle" x="398" y="-633.1" font-family="Courier,monospace" font-size="11.00">VTP</text>
</a>
</g>
<!-- \\OSS_SNMP\\MIBS\\Cisco\\VTP&#45;&gt;OSS_SNMP\\MIBS\\Cisco -->
<g id="edge57" class="edge"><title>\\OSS_SNMP\\MIBS\\Cisco\\VTP&#45;&gt;OSS_SNMP\\MIBS\\Cisco</title>
<path fill="none" stroke="black" d="M370.877,-636C346.887,-636 309.991,-636 272.683,-636"/>
<polygon fill="none" stroke="black" points="272.681,-632.5 262.681,-636 272.681,-639.5 272.681,-632.5"/>
</g>
<!-- \\OSS_SNMP\\MIBS\\Cisco\\SMST -->
<g id="node13" class="node"><title>\\OSS_SNMP\\MIBS\\Cisco\\SMST</title>
<a xlink:href="MIBS.Cisco.SMST.html" xlink:title="SMST" target="_parent">
<polygon fill="none" stroke="black" points="425,-600 371,-600 371,-564 425,-564 425,-600"/>
<text text-anchor="middle" x="398" y="-579.1" font-family="Courier,monospace" font-size="11.00">SMST</text>
</a>
</g>
<!-- \\OSS_SNMP\\MIBS\\Cisco\\SMST&#45;&gt;OSS_SNMP\\MIBS\\Cisco -->
<g id="edge59" class="edge"><title>\\OSS_SNMP\\MIBS\\Cisco\\SMST&#45;&gt;OSS_SNMP\\MIBS\\Cisco</title>
<path fill="none" stroke="black" d="M370.877,-587.677C335.447,-595.092 271.869,-608.4 220.388,-619.175"/>
<polygon fill="none" stroke="black" points="219.667,-615.75 210.596,-621.224 221.101,-622.601 219.667,-615.75"/>
</g>
<!-- \\OSS_SNMP\\MIBS\\Cisco\\CDP -->
<g id="node14" class="node"><title>\\OSS_SNMP\\MIBS\\Cisco\\CDP</title>
<a xlink:href="MIBS.Cisco.CDP.html" xlink:title="CDP" target="_parent">
<polygon fill="none" stroke="black" points="425,-546 371,-546 371,-510 425,-510 425,-546"/>
<text text-anchor="middle" x="398" y="-525.1" font-family="Courier,monospace" font-size="11.00">CDP</text>
</a>
</g>
<!-- \\OSS_SNMP\\MIBS\\Cisco\\CDP&#45;&gt;OSS_SNMP\\MIBS\\Cisco -->
<g id="edge61" class="edge"><title>\\OSS_SNMP\\MIBS\\Cisco\\CDP&#45;&gt;OSS_SNMP\\MIBS\\Cisco</title>
<path fill="none" stroke="black" d="M370.979,-538.143C357.944,-543.107 342.11,-549.242 328,-555 280.072,-574.56 225.823,-598.083 187.961,-614.728"/>
<polygon fill="none" stroke="black" points="186.443,-611.572 178.702,-618.805 189.264,-617.979 186.443,-611.572"/>
</g>
<!-- \\OSS_SNMP\\MIBS\\Extreme\\Vlan -->
<g id="node16" class="node"><title>\\OSS_SNMP\\MIBS\\Extreme\\Vlan</title>
<a xlink:href="MIBS.Extreme.Vlan.html" xlink:title="Vlan" target="_parent">
<polygon fill="none" stroke="black" points="425,-464 371,-464 371,-428 425,-428 425,-464"/>
<text text-anchor="middle" x="398" y="-443.1" font-family="Courier,monospace" font-size="11.00">Vlan</text>
</a>
</g>
<!-- OSS_SNMP\\MIBS\\Extreme -->
<g id="node68" class="node"><title>OSS_SNMP\\MIBS\\Extreme</title>
<ellipse fill="none" stroke="black" cx="140" cy="-446" rx="138.801" ry="18.3848"/>
<text text-anchor="middle" x="140" y="-442.4" font-family="Times Roman,serif" font-size="14.00" fill="gray">OSS_SNMP\MIBS\Extreme</text>
</g>
<!-- \\OSS_SNMP\\MIBS\\Extreme\\Vlan&#45;&gt;OSS_SNMP\\MIBS\\Extreme -->
<g id="edge51" class="edge"><title>\\OSS_SNMP\\MIBS\\Extreme\\Vlan&#45;&gt;OSS_SNMP\\MIBS\\Extreme</title>
<path fill="none" stroke="black" d="M370.877,-446C350.564,-446 320.998,-446 289.764,-446"/>
<polygon fill="none" stroke="black" points="289.574,-442.5 279.574,-446 289.574,-449.5 289.574,-442.5"/>
</g>
<!-- \\OSS_SNMP\\MIBS\\Foundry\\Chassis -->
<g id="node18" class="node"><title>\\OSS_SNMP\\MIBS\\Foundry\\Chassis</title>
<a xlink:href="MIBS.Foundry.Chassis.html" xlink:title="Chassis" target="_parent">
<polygon fill="none" stroke="black" points="430,-382 366,-382 366,-346 430,-346 430,-382"/>
<text text-anchor="middle" x="398" y="-361.1" font-family="Courier,monospace" font-size="11.00">Chassis</text>
</a>
</g>
<!-- OSS_SNMP\\MIBS\\Foundry -->
<g id="node65" class="node"><title>OSS_SNMP\\MIBS\\Foundry</title>
<ellipse fill="none" stroke="black" cx="140" cy="-364" rx="137.179" ry="18.3848"/>
<text text-anchor="middle" x="140" y="-360.4" font-family="Times Roman,serif" font-size="14.00" fill="gray">OSS_SNMP\MIBS\Foundry</text>
</g>
<!-- \\OSS_SNMP\\MIBS\\Foundry\\Chassis&#45;&gt;OSS_SNMP\\MIBS\\Foundry -->
<g id="edge47" class="edge"><title>\\OSS_SNMP\\MIBS\\Foundry\\Chassis&#45;&gt;OSS_SNMP\\MIBS\\Foundry</title>
<path fill="none" stroke="black" d="M365.846,-364C345.275,-364 316.961,-364 287.331,-364"/>
<polygon fill="none" stroke="black" points="287.241,-360.5 277.241,-364 287.241,-367.5 287.241,-360.5"/>
</g>
<!-- \\OSS_SNMP\\MIBS\\MRV\\System -->
<g id="node20" class="node"><title>\\OSS_SNMP\\MIBS\\MRV\\System</title>
<a xlink:href="MIBS.MRV.System.html" xlink:title="System" target="_parent">
<polygon fill="none" stroke="black" points="426,-1458 370,-1458 370,-1422 426,-1422 426,-1458"/>
<text text-anchor="middle" x="398" y="-1437.1" font-family="Courier,monospace" font-size="11.00">System</text>
</a>
</g>
<!-- \\OSS_SNMP\\MIBS\\MRV\\System&#45;&gt;OSS_SNMP\\MIB -->
<g id="edge41" class="edge"><title>\\OSS_SNMP\\MIBS\\MRV\\System&#45;&gt;OSS_SNMP\\MIB</title>
<path fill="none" stroke="black" d="M369.447,-1430.01C356.361,-1424.88 340.923,-1418.01 328,-1410 263.657,-1370.11 198.6,-1309.09 164.449,-1275.09"/>
<polygon fill="none" stroke="black" points="166.782,-1272.48 157.244,-1267.86 161.824,-1277.42 166.782,-1272.48"/>
</g>
<!-- \\OSS_SNMP\\MIBS\\SNMP\\Engine -->
<g id="node22" class="node"><title>\\OSS_SNMP\\MIBS\\SNMP\\Engine</title>
<a xlink:href="MIBS.SNMP.Engine.html" xlink:title="Engine" target="_parent">
<polygon fill="none" stroke="black" points="426,-1376 370,-1376 370,-1340 426,-1340 426,-1376"/>
<text text-anchor="middle" x="398" y="-1355.1" font-family="Courier,monospace" font-size="11.00">Engine</text>
</a>
</g>
<!-- \\OSS_SNMP\\MIBS\\SNMP\\Engine&#45;&gt;OSS_SNMP\\MIB -->
<g id="edge63" class="edge"><title>\\OSS_SNMP\\MIBS\\SNMP\\Engine&#45;&gt;OSS_SNMP\\MIB</title>
<path fill="none" stroke="black" d="M369.454,-1349.91C356.651,-1346.05 341.437,-1341.16 328,-1336 277.036,-1316.42 220.263,-1289.75 182.576,-1271.32"/>
<polygon fill="none" stroke="black" points="183.94,-1268.09 173.421,-1266.82 180.853,-1274.38 183.94,-1268.09"/>
</g>
<!-- \\OSS_SNMP\\MIBS\\BGP -->
<g id="node23" class="node"><title>\\OSS_SNMP\\MIBS\\BGP</title>
<a xlink:href="MIBS.BGP.html" xlink:title="BGP" target="_parent">
<polygon fill="none" stroke="black" points="425,-1322 371,-1322 371,-1286 425,-1286 425,-1322"/>
<text text-anchor="middle" x="398" y="-1301.1" font-family="Courier,monospace" font-size="11.00">BGP</text>
</a>
</g>
<!-- \\OSS_SNMP\\MIBS\\BGP&#45;&gt;OSS_SNMP\\MIB -->
<g id="edge17" class="edge"><title>\\OSS_SNMP\\MIBS\\BGP&#45;&gt;OSS_SNMP\\MIB</title>
<path fill="none" stroke="black" d="M370.877,-1298.32C333.442,-1290.49 264.581,-1276.08 211.77,-1265.02"/>
<polygon fill="none" stroke="black" points="212.277,-1261.55 201.772,-1262.93 210.843,-1268.4 212.277,-1261.55"/>
</g>
<!-- \\OSS_SNMP\\MIBS\\Host -->
<g id="node24" class="node"><title>\\OSS_SNMP\\MIBS\\Host</title>
<a xlink:href="MIBS.Host.html" xlink:title="Host" target="_parent">
<polygon fill="none" stroke="black" points="425,-1268 371,-1268 371,-1232 425,-1232 425,-1268"/>
<text text-anchor="middle" x="398" y="-1247.1" font-family="Courier,monospace" font-size="11.00">Host</text>
</a>
</g>
<!-- \\OSS_SNMP\\MIBS\\Host&#45;&gt;OSS_SNMP\\MIB -->
<g id="edge19" class="edge"><title>\\OSS_SNMP\\MIBS\\Host&#45;&gt;OSS_SNMP\\MIB</title>
<path fill="none" stroke="black" d="M370.877,-1250C339.534,-1250 286.159,-1250 238.621,-1250"/>
<polygon fill="none" stroke="black" points="238.575,-1246.5 228.575,-1250 238.575,-1253.5 238.575,-1246.5"/>
</g>
<!-- \\OSS_SNMP\\MIBS\\System -->
<g id="node25" class="node"><title>\\OSS_SNMP\\MIBS\\System</title>
<a xlink:href="MIBS.System.html" xlink:title="System" target="_parent">
<polygon fill="none" stroke="black" points="426,-1214 370,-1214 370,-1178 426,-1178 426,-1214"/>
<text text-anchor="middle" x="398" y="-1193.1" font-family="Courier,monospace" font-size="11.00">System</text>
</a>
</g>
<!-- \\OSS_SNMP\\MIBS\\System&#45;&gt;OSS_SNMP\\MIB -->
<g id="edge21" class="edge"><title>\\OSS_SNMP\\MIBS\\System&#45;&gt;OSS_SNMP\\MIB</title>
<path fill="none" stroke="black" d="M369.404,-1201.99C331.626,-1209.89 263.784,-1224.09 211.642,-1235.01"/>
<polygon fill="none" stroke="black" points="210.839,-1231.6 201.768,-1237.07 212.273,-1238.45 210.839,-1231.6"/>
</g>
<!-- \\OSS_SNMP\\MIBS\\Bridge -->
<g id="node26" class="node"><title>\\OSS_SNMP\\MIBS\\Bridge</title>
<a xlink:href="MIBS.Bridge.html" xlink:title="Bridge" target="_parent">
<polygon fill="none" stroke="black" points="426,-1160 370,-1160 370,-1124 426,-1124 426,-1160"/>
<text text-anchor="middle" x="398" y="-1139.1" font-family="Courier,monospace" font-size="11.00">Bridge</text>
</a>
</g>
<!-- \\OSS_SNMP\\MIBS\\Bridge&#45;&gt;OSS_SNMP\\MIB -->
<g id="edge23" class="edge"><title>\\OSS_SNMP\\MIBS\\Bridge&#45;&gt;OSS_SNMP\\MIB</title>
<path fill="none" stroke="black" d="M369.293,-1152.79C356.594,-1157.63 341.507,-1163.49 328,-1169 279.314,-1188.87 224.104,-1212.83 186.176,-1229.51"/>
<polygon fill="none" stroke="black" points="184.66,-1226.36 176.92,-1233.59 187.482,-1232.76 184.66,-1226.36"/>
</g>
<!-- \\OSS_SNMP\\MIBS\\Foundry -->
<g id="node27" class="node"><title>\\OSS_SNMP\\MIBS\\Foundry</title>
<a xlink:href="MIBS.Foundry.html" xlink:title="Foundry" target="_parent">
<polygon fill="none" stroke="black" points="430,-1106 366,-1106 366,-1070 430,-1070 430,-1106"/>
<text text-anchor="middle" x="398" y="-1085.1" font-family="Courier,monospace" font-size="11.00">Foundry</text>
</a>
</g>
<!-- \\OSS_SNMP\\MIBS\\Foundry&#45;&gt;OSS_SNMP\\MIB -->
<g id="edge25" class="edge"><title>\\OSS_SNMP\\MIBS\\Foundry&#45;&gt;OSS_SNMP\\MIB</title>
<path fill="none" stroke="black" d="M365.876,-1098.44C353.705,-1102.9 339.918,-1108.56 328,-1115 267.782,-1147.54 204.463,-1196.55 168.833,-1225.7"/>
<polygon fill="none" stroke="black" points="166.304,-1223.25 160.813,-1232.31 170.756,-1228.65 166.304,-1223.25"/>
</g>
<!-- \\OSS_SNMP\\MIBS\\Entity -->
<g id="node28" class="node"><title>\\OSS_SNMP\\MIBS\\Entity</title>
<a xlink:href="MIBS.Entity.html" xlink:title="Entity" target="_parent">
<polygon fill="none" stroke="black" points="426,-1052 370,-1052 370,-1016 426,-1016 426,-1052"/>
<text text-anchor="middle" x="398" y="-1031.1" font-family="Courier,monospace" font-size="11.00">Entity</text>
</a>
</g>
<!-- \\OSS_SNMP\\MIBS\\Entity&#45;&gt;OSS_SNMP\\MIB -->
<g id="edge31" class="edge"><title>\\OSS_SNMP\\MIBS\\Entity&#45;&gt;OSS_SNMP\\MIB</title>
<path fill="none" stroke="black" d="M369.446,-1041.99C356.213,-1046.43 340.654,-1052.74 328,-1061 256.893,-1107.39 191.155,-1184.35 159.606,-1224.24"/>
<polygon fill="none" stroke="black" points="156.81,-1222.14 153.403,-1232.17 162.323,-1226.45 156.81,-1222.14"/>
</g>
<!-- \\OSS_SNMP\\MIBS\\Iface -->
<g id="node29" class="node"><title>\\OSS_SNMP\\MIBS\\Iface</title>
<a xlink:href="MIBS.Iface.html" xlink:title="Iface" target="_parent">
<polygon fill="none" stroke="black" points="425,-998 371,-998 371,-962 425,-962 425,-998"/>
<text text-anchor="middle" x="398" y="-977.1" font-family="Courier,monospace" font-size="11.00">Iface</text>
</a>
</g>
<!-- \\OSS_SNMP\\MIBS\\Iface&#45;&gt;OSS_SNMP\\MIB -->
<g id="edge33" class="edge"><title>\\OSS_SNMP\\MIBS\\Iface&#45;&gt;OSS_SNMP\\MIB</title>
<path fill="none" stroke="black" d="M370.677,-986.752C356.969,-991.038 340.64,-997.585 328,-1007 246.02,-1068.07 181.422,-1173.89 154.125,-1223.23"/>
<polygon fill="none" stroke="black" points="151.036,-1221.59 149.318,-1232.04 157.181,-1224.94 151.036,-1221.59"/>
</g>
<!-- \\OSS_SNMP\\MIBS\\SNMP -->
<g id="node30" class="node"><title>\\OSS_SNMP\\MIBS\\SNMP</title>
<a xlink:href="MIBS.SNMP.html" xlink:title="SNMP" target="_parent">
<polygon fill="none" stroke="black" points="425,-944 371,-944 371,-908 425,-908 425,-944"/>
<text text-anchor="middle" x="398" y="-923.1" font-family="Courier,monospace" font-size="11.00">SNMP</text>
</a>
</g>
<!-- \\OSS_SNMP\\MIBS\\SNMP&#45;&gt;OSS_SNMP\\MIB -->
<g id="edge35" class="edge"><title>\\OSS_SNMP\\MIBS\\SNMP&#45;&gt;OSS_SNMP\\MIB</title>
<path fill="none" stroke="black" d="M370.978,-932.06C357.027,-936.205 340.384,-942.835 328,-953 234.999,-1029.34 173.737,-1164.26 150.49,-1222.24"/>
<polygon fill="none" stroke="black" points="147.123,-1221.24 146.715,-1231.83 153.636,-1223.8 147.123,-1221.24"/>
</g>
<!-- \\OSS_SNMP\\MIBS\\Asterisk -->
<g id="node31" class="node"><title>\\OSS_SNMP\\MIBS\\Asterisk</title>
<a xlink:href="MIBS.Asterisk.html" xlink:title="Asterisk" target="_parent">
<polygon fill="none" stroke="black" points="433,-890 363,-890 363,-854 433,-854 433,-890"/>
<text text-anchor="middle" x="398" y="-869.1" font-family="Courier,monospace" font-size="11.00">Asterisk</text>
</a>
</g>
<!-- \\OSS_SNMP\\MIBS\\Asterisk&#45;&gt;OSS_SNMP\\MIB -->
<g id="edge37" class="edge"><title>\\OSS_SNMP\\MIBS\\Asterisk&#45;&gt;OSS_SNMP\\MIB</title>
<path fill="none" stroke="black" d="M362.213,-880.376C350.322,-884.49 337.664,-890.462 328,-899 223.256,-991.537 166.696,-1156.84 147.545,-1222.26"/>
<polygon fill="none" stroke="black" points="144.18,-1221.29 144.791,-1231.87 150.909,-1223.22 144.18,-1221.29"/>
</g>
<!-- \\OSS_SNMP\\MIBS\\Extreme -->
<g id="node32" class="node"><title>\\OSS_SNMP\\MIBS\\Extreme</title>
<a xlink:href="MIBS.Extreme.html" xlink:title="Extreme" target="_parent">
<polygon fill="none" stroke="black" points="430,-836 366,-836 366,-800 430,-800 430,-836"/>
<text text-anchor="middle" x="398" y="-815.1" font-family="Courier,monospace" font-size="11.00">Extreme</text>
</a>
</g>
<!-- \\OSS_SNMP\\MIBS\\Extreme&#45;&gt;OSS_SNMP\\MIB -->
<g id="edge39" class="edge"><title>\\OSS_SNMP\\MIBS\\Extreme&#45;&gt;OSS_SNMP\\MIB</title>
<path fill="none" stroke="black" d="M365.875,-824.777C352.858,-828.849 338.462,-835.211 328,-845 211.703,-953.813 160.986,-1148.83 145.492,-1221.59"/>
<polygon fill="none" stroke="black" points="141.978,-1221.3 143.38,-1231.81 148.833,-1222.72 141.978,-1221.3"/>
</g>
<!-- \\OSS_SNMP\\MIBS\\MRV -->
<g id="node33" class="node"><title>\\OSS_SNMP\\MIBS\\MRV</title>
<a xlink:href="MIBS.MRV.html" xlink:title="MRV" target="_parent">
<polygon fill="none" stroke="black" points="425,-1776 371,-1776 371,-1740 425,-1740 425,-1776"/>
<text text-anchor="middle" x="398" y="-1755.1" font-family="Courier,monospace" font-size="11.00">MRV</text>
</a>
</g>
<!-- \\OSS_SNMP\\MIBS\\MRV&#45;&gt;OSS_SNMP\\MIB -->
<g id="edge43" class="edge"><title>\\OSS_SNMP\\MIBS\\MRV&#45;&gt;OSS_SNMP\\MIB</title>
<path fill="none" stroke="black" d="M370.834,-1753.05C356.498,-1749.19 339.539,-1742.49 328,-1731 194.523,-1598.12 153.513,-1359.43 143.094,-1278.06"/>
<polygon fill="none" stroke="black" points="146.561,-1277.58 141.87,-1268.08 139.613,-1278.43 146.561,-1277.58"/>
</g>
<!-- \\OSS_SNMP\\MIBS\\LAG -->
<g id="node34" class="node"><title>\\OSS_SNMP\\MIBS\\LAG</title>
<a xlink:href="MIBS.LAG.html" xlink:title="LAG" target="_parent">
<polygon fill="none" stroke="black" points="425,-1722 371,-1722 371,-1686 425,-1686 425,-1722"/>
<text text-anchor="middle" x="398" y="-1701.1" font-family="Courier,monospace" font-size="11.00">LAG</text>
</a>
</g>
<!-- \\OSS_SNMP\\MIBS\\LAG&#45;&gt;OSS_SNMP\\MIB -->
<g id="edge45" class="edge"><title>\\OSS_SNMP\\MIBS\\LAG&#45;&gt;OSS_SNMP\\MIB</title>
<path fill="none" stroke="black" d="M370.679,-1698.76C356.472,-1694.83 339.684,-1688.15 328,-1677 206.811,-1561.33 158.73,-1353.85 144.73,-1278.41"/>
<polygon fill="none" stroke="black" points="148.121,-1277.48 142.907,-1268.26 141.231,-1278.72 148.121,-1277.48"/>
</g>
<!-- \\OSS_SNMP\\MIBS\\Cisco -->
<g id="node35" class="node"><title>\\OSS_SNMP\\MIBS\\Cisco</title>
<a xlink:href="MIBS.Cisco.html" xlink:title="Cisco" target="_parent">
<polygon fill="none" stroke="black" points="425,-1668 371,-1668 371,-1632 425,-1632 425,-1668"/>
<text text-anchor="middle" x="398" y="-1647.1" font-family="Courier,monospace" font-size="11.00">Cisco</text>
</a>
</g>
<!-- \\OSS_SNMP\\MIBS\\Cisco&#45;&gt;OSS_SNMP\\MIB -->
<g id="edge49" class="edge"><title>\\OSS_SNMP\\MIBS\\Cisco&#45;&gt;OSS_SNMP\\MIB</title>
<path fill="none" stroke="black" d="M370.94,-1646.67C356.81,-1643.74 340.011,-1638.26 328,-1628 214.028,-1530.65 162.176,-1347.62 145.926,-1277.92"/>
<polygon fill="none" stroke="black" points="149.326,-1277.08 143.702,-1268.11 142.5,-1278.63 149.326,-1277.08"/>
</g>
<!-- \\OSS_SNMP\\Platform -->
<g id="node42" class="node"><title>\\OSS_SNMP\\Platform</title>
<a xlink:href="Platform.html" xlink:title="Platform" target="_parent">
<polygon fill="none" stroke="black" points="433,-322 363,-322 363,-286 433,-286 433,-322"/>
<text text-anchor="middle" x="398" y="-301.1" font-family="Courier,monospace" font-size="11.00">Platform</text>
</a>
</g>
<!-- \\OSS_SNMP\\Cache -->
<g id="node43" class="node"><title>\\OSS_SNMP\\Cache</title>
<a xlink:href="Cache.html" xlink:title="Cache" target="_parent">
<polygon fill="none" stroke="black" points="425,-268 371,-268 371,-232 425,-232 425,-268"/>
<text text-anchor="middle" x="398" y="-247.1" font-family="Courier,monospace" font-size="11.00">Cache</text>
</a>
</g>
<!-- \\OSS_SNMP\\Exception -->
<g id="node44" class="node"><title>\\OSS_SNMP\\Exception</title>
<a xlink:href="Exception.html" xlink:title="Exception" target="_parent">
<polygon fill="none" stroke="black" points="436,-214 360,-214 360,-178 436,-178 436,-214"/>
<text text-anchor="middle" x="398" y="-193.1" font-family="Courier,monospace" font-size="11.00">Exception</text>
</a>
</g>
<!-- Exception -->
<g id="node80" class="node"><title>Exception</title>
<ellipse fill="none" stroke="black" cx="140" cy="-196" rx="58.8978" ry="18.3848"/>
<text text-anchor="middle" x="140" y="-192.4" font-family="Times Roman,serif" font-size="14.00" fill="gray">Exception</text>
</g>
<!-- \\OSS_SNMP\\Exception&#45;&gt;Exception -->
<g id="edge69" class="edge"><title>\\OSS_SNMP\\Exception&#45;&gt;Exception</title>
<path fill="none" stroke="black" d="M359.375,-196C319.872,-196 257.648,-196 209.543,-196"/>
<polygon fill="none" stroke="black" points="209.506,-192.5 199.505,-196 209.505,-199.5 209.506,-192.5"/>
</g>
<!-- \\OSS_SNMP\\MIB -->
<g id="node45" class="node"><title>\\OSS_SNMP\\MIB</title>
<a xlink:href="MIB.html" xlink:title="MIB" target="_parent">
<polygon fill="none" stroke="black" points="425,-160 371,-160 371,-124 425,-124 425,-160"/>
<text text-anchor="middle" x="398" y="-139.1" font-family="Courier,monospace" font-size="11.00">MIB</text>
</a>
</g>
<!-- \\OSS_SNMP\\SNMP -->
<g id="node46" class="node"><title>\\OSS_SNMP\\SNMP</title>
<a xlink:href="SNMP.html" xlink:title="SNMP" target="_parent">
<polygon fill="none" stroke="black" points="425,-106 371,-106 371,-70 425,-70 425,-106"/>
<text text-anchor="middle" x="398" y="-85.1" font-family="Courier,monospace" font-size="11.00">SNMP</text>
</a>
</g>
<!-- \\OSS_SNMP\\Timer -->
<g id="node47" class="node"><title>\\OSS_SNMP\\Timer</title>
<a xlink:href="Timer.html" xlink:title="Timer" target="_parent">
<polygon fill="none" stroke="black" points="425,-52 371,-52 371,-16 425,-16 425,-52"/>
<text text-anchor="middle" x="398" y="-31.1" font-family="Courier,monospace" font-size="11.00">Timer</text>
</a>
</g>
</g>
</svg>
