<?xml version="1.0" encoding="UTF-8" standalone="no"?>
<!DOCTYPE svg PUBLIC "-//W3C//DTD SVG 1.1//EN"
 "http://www.w3.org/Graphics/SVG/1.1/DTD/svg11.dtd">
<!-- Generated by graphviz version 2.26.3 (20100126.1600)
 -->
<!-- Title: G Pages: 1 -->
<svg width="330pt" height="1464pt"
 viewBox="0.00 0.00 330.00 1464.00" xmlns="http://www.w3.org/2000/svg" xmlns:xlink="http://www.w3.org/1999/xlink">
<g id="graph1" class="graph" transform="scale(1 1) rotate(0) translate(4 1460)">
<title>G</title>
<polygon fill="white" stroke="white" points="-4,5 -4,-1460 327,-1460 327,5 -4,5"/>
<g id="graph2" class="cluster"><title>cluster_OSS_SNMP</title>
<polyline fill="none" stroke="gray" points="24,-44 302,-44 "/>
<path fill="none" stroke="gray" d="M302,-44C308,-44 314,-50 314,-56"/>
<polyline fill="none" stroke="gray" points="314,-56 314,-1436 "/>
<path fill="none" stroke="gray" d="M314,-1436C314,-1442 308,-1448 302,-1448"/>
<polyline fill="none" stroke="gray" points="302,-1448 24,-1448 "/>
<path fill="none" stroke="gray" d="M24,-1448C18,-1448 12,-1442 12,-1436"/>
<polyline fill="none" stroke="gray" points="12,-1436 12,-56 "/>
<path fill="none" stroke="gray" d="M12,-56C12,-50 18,-44 24,-44"/>
<text text-anchor="middle" x="163" y="-1434.1" font-family="Times Roman,serif" font-size="11.00" fill="gray">OSS_SNMP</text>
</g>
<g id="graph3" class="cluster"><title>cluster_OSS_SNMP\Cache</title>
<polyline fill="none" stroke="gray" points="221,-1290 267,-1290 "/>
<path fill="none" stroke="gray" d="M267,-1290C273,-1290 279,-1296 279,-1302"/>
<polyline fill="none" stroke="gray" points="279,-1302 279,-1406 "/>
<path fill="none" stroke="gray" d="M279,-1406C279,-1412 273,-1418 267,-1418"/>
<polyline fill="none" stroke="gray" points="267,-1418 221,-1418 "/>
<path fill="none" stroke="gray" d="M221,-1418C215,-1418 209,-1412 209,-1406"/>
<polyline fill="none" stroke="gray" points="209,-1406 209,-1302 "/>
<path fill="none" stroke="gray" d="M209,-1302C209,-1296 215,-1290 221,-1290"/>
<text text-anchor="middle" x="244" y="-1404.1" font-family="Times Roman,serif" font-size="11.00" fill="gray">Cache</text>
</g>
<g id="graph4" class="cluster"><title>cluster_OSS_SNMP\MIBS</title>
<polyline fill="none" stroke="gray" points="40,-258 294,-258 "/>
<path fill="none" stroke="gray" d="M294,-258C300,-258 306,-264 306,-270"/>
<polyline fill="none" stroke="gray" points="306,-270 306,-1270 "/>
<path fill="none" stroke="gray" d="M306,-1270C306,-1276 300,-1282 294,-1282"/>
<polyline fill="none" stroke="gray" points="294,-1282 40,-1282 "/>
<path fill="none" stroke="gray" d="M40,-1282C34,-1282 28,-1276 28,-1270"/>
<polyline fill="none" stroke="gray" points="28,-1270 28,-270 "/>
<path fill="none" stroke="gray" d="M28,-270C28,-264 34,-258 40,-258"/>
<text text-anchor="middle" x="167" y="-1268.1" font-family="Times Roman,serif" font-size="11.00" fill="gray">MIBS</text>
</g>
<g id="graph5" class="cluster"><title>cluster_OSS_SNMP\MIBS\Asterisk</title>
<polyline fill="none" stroke="gray" points="202,-1124 286,-1124 "/>
<path fill="none" stroke="gray" d="M286,-1124C292,-1124 298,-1130 298,-1136"/>
<polyline fill="none" stroke="gray" points="298,-1136 298,-1240 "/>
<path fill="none" stroke="gray" d="M298,-1240C298,-1246 292,-1252 286,-1252"/>
<polyline fill="none" stroke="gray" points="286,-1252 202,-1252 "/>
<path fill="none" stroke="gray" d="M202,-1252C196,-1252 190,-1246 190,-1240"/>
<polyline fill="none" stroke="gray" points="190,-1240 190,-1136 "/>
<path fill="none" stroke="gray" d="M190,-1136C190,-1130 196,-1124 202,-1124"/>
<text text-anchor="middle" x="244" y="-1238.1" font-family="Times Roman,serif" font-size="11.00" fill="gray">Asterisk</text>
</g>
<g id="graph6" class="cluster"><title>cluster_OSS_SNMP\MIBS\Cisco</title>
<polyline fill="none" stroke="gray" points="221,-266 267,-266 "/>
<path fill="none" stroke="gray" d="M267,-266C273,-266 279,-272 279,-278"/>
<polyline fill="none" stroke="gray" points="279,-278 279,-544 "/>
<path fill="none" stroke="gray" d="M279,-544C279,-550 273,-556 267,-556"/>
<polyline fill="none" stroke="gray" points="267,-556 221,-556 "/>
<path fill="none" stroke="gray" d="M221,-556C215,-556 209,-550 209,-544"/>
<polyline fill="none" stroke="gray" points="209,-544 209,-278 "/>
<path fill="none" stroke="gray" d="M209,-278C209,-272 215,-266 221,-266"/>
<text text-anchor="middle" x="244" y="-542.1" font-family="Times Roman,serif" font-size="11.00" fill="gray">Cisco</text>
</g>
<g id="graph7" class="cluster"><title>cluster_OSS_SNMP\MIBS\MRV</title>
<polyline fill="none" stroke="gray" points="219,-1042 269,-1042 "/>
<path fill="none" stroke="gray" d="M269,-1042C275,-1042 281,-1048 281,-1054"/>
<polyline fill="none" stroke="gray" points="281,-1054 281,-1104 "/>
<path fill="none" stroke="gray" d="M281,-1104C281,-1110 275,-1116 269,-1116"/>
<polyline fill="none" stroke="gray" points="269,-1116 219,-1116 "/>
<path fill="none" stroke="gray" d="M219,-1116C213,-1116 207,-1110 207,-1104"/>
<polyline fill="none" stroke="gray" points="207,-1104 207,-1054 "/>
<path fill="none" stroke="gray" d="M207,-1054C207,-1048 213,-1042 219,-1042"/>
<text text-anchor="middle" x="244" y="-1102.1" font-family="Times Roman,serif" font-size="11.00" fill="gray">MRV</text>
</g>
<!-- \\OSS_SNMP\\Cache\\APC -->
<g id="node3" class="node"><title>\\OSS_SNMP\\Cache\\APC</title>
<a xlink:href="Cache.APC.html" xlink:title="APC" target="_parent">
<polygon fill="none" stroke="black" points="271,-1388 217,-1388 217,-1352 271,-1352 271,-1388"/>
<text text-anchor="middle" x="244" y="-1367.1" font-family="Courier,monospace" font-size="11.00">APC</text>
</a>
</g>
<!-- \\OSS_SNMP\\Cache -->
<g id="node30" class="node"><title>\\OSS_SNMP\\Cache</title>
<a xlink:href="Cache.html" xlink:title="«abstract»&lt;br/&gt;Cache" target="_parent">
<polygon fill="none" stroke="black" points="105,-1384 21,-1384 21,-1348 105,-1348 105,-1384"/>
<text text-anchor="start" x="29" y="-1371.43" font-family="Courier,monospace" font-size="11.00">«abstract»</text>
<text text-anchor="start" x="46" y="-1358.23" font-family="Courier,monospace" font-size="11.00">Cache</text>
</a>
</g>
<!-- \\OSS_SNMP\\Cache\\APC&#45;&gt;\\OSS_SNMP\\Cache -->
<g id="edge11" class="edge"><title>\\OSS_SNMP\\Cache\\APC&#45;&gt;\\OSS_SNMP\\Cache</title>
<path fill="none" stroke="black" d="M216.902,-1369.4C190.384,-1368.82 149.27,-1367.91 116.205,-1367.18"/>
<polygon fill="none" stroke="black" points="115.857,-1363.67 105.782,-1366.95 115.702,-1370.67 115.857,-1363.67"/>
</g>
<!-- \\OSS_SNMP\\Cache\\Basic -->
<g id="node4" class="node"><title>\\OSS_SNMP\\Cache\\Basic</title>
<a xlink:href="Cache.Basic.html" xlink:title="Basic" target="_parent">
<polygon fill="none" stroke="black" points="271,-1334 217,-1334 217,-1298 271,-1298 271,-1334"/>
<text text-anchor="middle" x="244" y="-1313.1" font-family="Courier,monospace" font-size="11.00">Basic</text>
</a>
</g>
<!-- \\OSS_SNMP\\Cache\\Basic&#45;&gt;\\OSS_SNMP\\Cache -->
<g id="edge13" class="edge"><title>\\OSS_SNMP\\Cache\\Basic&#45;&gt;\\OSS_SNMP\\Cache</title>
<path fill="none" stroke="black" d="M216.902,-1323.49C190.269,-1330.84 148.913,-1342.27 115.776,-1351.42"/>
<polygon fill="none" stroke="black" points="114.489,-1348.15 105.782,-1354.18 116.353,-1354.89 114.489,-1348.15"/>
</g>
<!-- \\OSS_SNMP\\MIBS\\Asterisk\\Indications -->
<g id="node7" class="node"><title>\\OSS_SNMP\\MIBS\\Asterisk\\Indications</title>
<a xlink:href="MIBS.Asterisk.Indications.html" xlink:title="Indications" target="_parent">
<polygon fill="none" stroke="black" points="289,-1222 199,-1222 199,-1186 289,-1186 289,-1222"/>
<text text-anchor="middle" x="244" y="-1201.1" font-family="Courier,monospace" font-size="11.00">Indications</text>
</a>
</g>
<!-- \\OSS_SNMP\\MIB -->
<g id="node34" class="node"><title>\\OSS_SNMP\\MIB</title>
<a xlink:href="MIB.html" xlink:title="MIB" target="_parent">
<polygon fill="none" stroke="black" points="90,-1326 36,-1326 36,-1290 90,-1290 90,-1326"/>
<text text-anchor="middle" x="63" y="-1305.1" font-family="Courier,monospace" font-size="11.00">MIB</text>
</a>
</g>
<!-- \\OSS_SNMP\\MIBS\\Asterisk\\Indications&#45;&gt;\\OSS_SNMP\\MIB -->
<g id="edge23" class="edge"><title>\\OSS_SNMP\\MIBS\\Asterisk\\Indications&#45;&gt;\\OSS_SNMP\\MIB</title>
<path fill="none" stroke="black" d="M221.665,-1222.29C198.762,-1240.37 161.557,-1267.86 126,-1286 117.752,-1290.21 108.513,-1293.93 99.7068,-1297.06"/>
<polygon fill="none" stroke="black" points="98.3717,-1293.82 90.0234,-1300.34 100.618,-1300.45 98.3717,-1293.82"/>
</g>
<!-- \\OSS_SNMP\\MIBS\\Asterisk\\Channels -->
<g id="node8" class="node"><title>\\OSS_SNMP\\MIBS\\Asterisk\\Channels</title>
<a xlink:href="MIBS.Asterisk.Channels.html" xlink:title="Channels" target="_parent">
<polygon fill="none" stroke="black" points="279,-1168 209,-1168 209,-1132 279,-1132 279,-1168"/>
<text text-anchor="middle" x="244" y="-1147.1" font-family="Courier,monospace" font-size="11.00">Channels</text>
</a>
</g>
<!-- \\OSS_SNMP\\MIBS\\Asterisk\\Channels&#45;&gt;\\OSS_SNMP\\MIB -->
<g id="edge25" class="edge"><title>\\OSS_SNMP\\MIBS\\Asterisk\\Channels&#45;&gt;\\OSS_SNMP\\MIB</title>
<path fill="none" stroke="black" d="M208.392,-1164.11C201.826,-1167.7 195.36,-1171.99 190,-1177 148.963,-1215.37 169.401,-1250.33 126,-1286 118.507,-1292.16 109.177,-1296.64 100.013,-1299.89"/>
<polygon fill="none" stroke="black" points="98.7309,-1296.62 90.2293,-1302.94 100.818,-1303.3 98.7309,-1296.62"/>
</g>
<!-- \\OSS_SNMP\\MIBS\\Cisco\\CDP -->
<g id="node10" class="node"><title>\\OSS_SNMP\\MIBS\\Cisco\\CDP</title>
<a xlink:href="MIBS.Cisco.CDP.html" xlink:title="CDP" target="_parent">
<polygon fill="none" stroke="black" points="271,-526 217,-526 217,-490 271,-490 271,-526"/>
<text text-anchor="middle" x="244" y="-505.1" font-family="Courier,monospace" font-size="11.00">CDP</text>
</a>
</g>
<!-- \\OSS_SNMP\\MIBS\\Cisco -->
<g id="node20" class="node"><title>\\OSS_SNMP\\MIBS\\Cisco</title>
<a xlink:href="MIBS.Cisco.html" xlink:title="Cisco" target="_parent">
<polygon fill="none" stroke="black" points="90,-418 36,-418 36,-382 90,-382 90,-418"/>
<text text-anchor="middle" x="63" y="-397.1" font-family="Courier,monospace" font-size="11.00">Cisco</text>
</a>
</g>
<!-- \\OSS_SNMP\\MIBS\\Cisco\\CDP&#45;&gt;\\OSS_SNMP\\MIBS\\Cisco -->
<g id="edge41" class="edge"><title>\\OSS_SNMP\\MIBS\\Cisco\\CDP&#45;&gt;\\OSS_SNMP\\MIBS\\Cisco</title>
<path fill="none" stroke="black" d="M216.79,-496.242C207.945,-491.943 198.281,-486.717 190,-481 158.162,-459.021 159.175,-441.903 126,-422 117.902,-417.142 108.573,-413.147 99.6188,-409.958"/>
<polygon fill="none" stroke="black" points="100.719,-406.635 90.1253,-406.811 98.5163,-413.28 100.719,-406.635"/>
</g>
<!-- \\OSS_SNMP\\MIBS\\Cisco\\MST -->
<g id="node11" class="node"><title>\\OSS_SNMP\\MIBS\\Cisco\\MST</title>
<a xlink:href="MIBS.Cisco.MST.html" xlink:title="MST" target="_parent">
<polygon fill="none" stroke="black" points="271,-472 217,-472 217,-436 271,-436 271,-472"/>
<text text-anchor="middle" x="244" y="-451.1" font-family="Courier,monospace" font-size="11.00">MST</text>
</a>
</g>
<!-- \\OSS_SNMP\\MIBS\\Cisco\\MST&#45;&gt;\\OSS_SNMP\\MIBS\\Cisco -->
<g id="edge43" class="edge"><title>\\OSS_SNMP\\MIBS\\Cisco\\MST&#45;&gt;\\OSS_SNMP\\MIBS\\Cisco</title>
<path fill="none" stroke="black" d="M216.902,-445.916C185.846,-436.65 134.771,-421.412 100.051,-411.054"/>
<polygon fill="none" stroke="black" points="100.866,-407.645 90.2828,-408.14 98.8648,-414.353 100.866,-407.645"/>
</g>
<!-- \\OSS_SNMP\\MIBS\\Cisco\\VTP -->
<g id="node12" class="node"><title>\\OSS_SNMP\\MIBS\\Cisco\\VTP</title>
<a xlink:href="MIBS.Cisco.VTP.html" xlink:title="VTP" target="_parent">
<polygon fill="none" stroke="black" points="271,-418 217,-418 217,-382 271,-382 271,-418"/>
<text text-anchor="middle" x="244" y="-397.1" font-family="Courier,monospace" font-size="11.00">VTP</text>
</a>
</g>
<!-- \\OSS_SNMP\\MIBS\\Cisco\\VTP&#45;&gt;\\OSS_SNMP\\MIBS\\Cisco -->
<g id="edge45" class="edge"><title>\\OSS_SNMP\\MIBS\\Cisco\\VTP&#45;&gt;\\OSS_SNMP\\MIBS\\Cisco</title>
<path fill="none" stroke="black" d="M216.902,-400C185.979,-400 135.209,-400 100.499,-400"/>
<polygon fill="none" stroke="black" points="100.283,-396.5 90.2828,-400 100.283,-403.5 100.283,-396.5"/>
</g>
<!-- \\OSS_SNMP\\MIBS\\Cisco\\RSTP -->
<g id="node13" class="node"><title>\\OSS_SNMP\\MIBS\\Cisco\\RSTP</title>
<a xlink:href="MIBS.Cisco.RSTP.html" xlink:title="RSTP" target="_parent">
<polygon fill="none" stroke="black" points="271,-364 217,-364 217,-328 271,-328 271,-364"/>
<text text-anchor="middle" x="244" y="-343.1" font-family="Courier,monospace" font-size="11.00">RSTP</text>
</a>
</g>
<!-- \\OSS_SNMP\\MIBS\\Cisco\\RSTP&#45;&gt;\\OSS_SNMP\\MIBS\\Cisco -->
<g id="edge47" class="edge"><title>\\OSS_SNMP\\MIBS\\Cisco\\RSTP&#45;&gt;\\OSS_SNMP\\MIBS\\Cisco</title>
<path fill="none" stroke="black" d="M216.902,-354.084C185.846,-363.35 134.771,-378.588 100.051,-388.946"/>
<polygon fill="none" stroke="black" points="98.8648,-385.647 90.2828,-391.86 100.866,-392.355 98.8648,-385.647"/>
</g>
<!-- \\OSS_SNMP\\MIBS\\Cisco\\SMST -->
<g id="node14" class="node"><title>\\OSS_SNMP\\MIBS\\Cisco\\SMST</title>
<a xlink:href="MIBS.Cisco.SMST.html" xlink:title="SMST" target="_parent">
<polygon fill="none" stroke="black" points="271,-310 217,-310 217,-274 271,-274 271,-310"/>
<text text-anchor="middle" x="244" y="-289.1" font-family="Courier,monospace" font-size="11.00">SMST</text>
</a>
</g>
<!-- \\OSS_SNMP\\MIBS\\Cisco\\SMST&#45;&gt;\\OSS_SNMP\\MIBS\\Cisco -->
<g id="edge49" class="edge"><title>\\OSS_SNMP\\MIBS\\Cisco\\SMST&#45;&gt;\\OSS_SNMP\\MIBS\\Cisco</title>
<path fill="none" stroke="black" d="M216.79,-303.758C207.945,-308.057 198.281,-313.283 190,-319 158.162,-340.979 159.175,-358.097 126,-378 117.902,-382.858 108.573,-386.853 99.6188,-390.042"/>
<polygon fill="none" stroke="black" points="98.5163,-386.72 90.1253,-393.189 100.719,-393.365 98.5163,-386.72"/>
</g>
<!-- \\OSS_SNMP\\MIBS\\MRV\\System -->
<g id="node16" class="node"><title>\\OSS_SNMP\\MIBS\\MRV\\System</title>
<a xlink:href="MIBS.MRV.System.html" xlink:title="System" target="_parent">
<polygon fill="none" stroke="black" points="272,-1086 216,-1086 216,-1050 272,-1050 272,-1086"/>
<text text-anchor="middle" x="244" y="-1065.1" font-family="Courier,monospace" font-size="11.00">System</text>
</a>
</g>
<!-- \\OSS_SNMP\\MIBS\\MRV\\System&#45;&gt;\\OSS_SNMP\\MIB -->
<g id="edge33" class="edge"><title>\\OSS_SNMP\\MIBS\\MRV\\System&#45;&gt;\\OSS_SNMP\\MIB</title>
<path fill="none" stroke="black" d="M220.978,-1086.12C210.426,-1095.36 198.423,-1107.31 190,-1120 146.263,-1185.87 182.8,-1230.99 126,-1286 118.835,-1292.94 109.364,-1297.7 99.9485,-1300.96"/>
<polygon fill="none" stroke="black" points="98.8412,-1297.64 90.2554,-1303.85 100.838,-1304.35 98.8412,-1297.64"/>
</g>
<!-- \\OSS_SNMP\\MIBS\\Iface -->
<g id="node17" class="node"><title>\\OSS_SNMP\\MIBS\\Iface</title>
<a xlink:href="MIBS.Iface.html" xlink:title="Iface" target="_parent">
<polygon fill="none" stroke="black" points="271,-1032 217,-1032 217,-996 271,-996 271,-1032"/>
<text text-anchor="middle" x="244" y="-1011.1" font-family="Courier,monospace" font-size="11.00">Iface</text>
</a>
</g>
<!-- \\OSS_SNMP\\MIBS\\Iface&#45;&gt;\\OSS_SNMP\\MIB -->
<g id="edge15" class="edge"><title>\\OSS_SNMP\\MIBS\\Iface&#45;&gt;\\OSS_SNMP\\MIB</title>
<path fill="none" stroke="black" d="M216.787,-1020.72C207.099,-1024.37 196.894,-1029.86 190,-1038 116.444,-1124.88 203.066,-1202.22 126,-1286 119.131,-1293.47 109.589,-1298.4 100.006,-1301.66"/>
<polygon fill="none" stroke="black" points="98.7693,-1298.37 90.1156,-1304.48 100.692,-1305.1 98.7693,-1298.37"/>
</g>
<!-- \\OSS_SNMP\\MIBS\\Bridge -->
<g id="node18" class="node"><title>\\OSS_SNMP\\MIBS\\Bridge</title>
<a xlink:href="MIBS.Bridge.html" xlink:title="Bridge" target="_parent">
<polygon fill="none" stroke="black" points="272,-978 216,-978 216,-942 272,-942 272,-978"/>
<text text-anchor="middle" x="244" y="-957.1" font-family="Courier,monospace" font-size="11.00">Bridge</text>
</a>
</g>
<!-- \\OSS_SNMP\\MIBS\\Bridge&#45;&gt;\\OSS_SNMP\\MIB -->
<g id="edge17" class="edge"><title>\\OSS_SNMP\\MIBS\\Bridge&#45;&gt;\\OSS_SNMP\\MIB</title>
<path fill="none" stroke="black" d="M215.432,-968.627C206.062,-972.781 196.418,-978.713 190,-987 106.785,-1094.44 215.9,-1184.09 126,-1286 119.288,-1293.61 109.795,-1298.59 100.21,-1301.84"/>
<polygon fill="none" stroke="black" points="98.9671,-1298.56 90.3002,-1304.65 100.876,-1305.29 98.9671,-1298.56"/>
</g>
<!-- \\OSS_SNMP\\MIBS\\LAG -->
<g id="node19" class="node"><title>\\OSS_SNMP\\MIBS\\LAG</title>
<a xlink:href="MIBS.LAG.html" xlink:title="LAG" target="_parent">
<polygon fill="none" stroke="black" points="271,-924 217,-924 217,-888 271,-888 271,-924"/>
<text text-anchor="middle" x="244" y="-903.1" font-family="Courier,monospace" font-size="11.00">LAG</text>
</a>
</g>
<!-- \\OSS_SNMP\\MIBS\\LAG&#45;&gt;\\OSS_SNMP\\MIB -->
<g id="edge19" class="edge"><title>\\OSS_SNMP\\MIBS\\LAG&#45;&gt;\\OSS_SNMP\\MIB</title>
<path fill="none" stroke="black" d="M216.971,-913.79C207.068,-917.953 196.664,-924.11 190,-933 94.3639,-1060.58 229.581,-1164.78 126,-1286 119.283,-1293.86 109.592,-1298.91 99.8176,-1302.16"/>
<polygon fill="none" stroke="black" points="98.8258,-1298.81 90.122,-1304.85 100.693,-1305.55 98.8258,-1298.81"/>
</g>
<!-- \\OSS_SNMP\\MIBS\\Cisco&#45;&gt;\\OSS_SNMP\\MIB -->
<g id="edge21" class="edge"><title>\\OSS_SNMP\\MIBS\\Cisco&#45;&gt;\\OSS_SNMP\\MIB</title>
<path fill="none" stroke="black" d="M63,-418.178C63,-705.298 63,-992.418 63,-1279.54"/>
<polygon fill="none" stroke="black" points="59.5001,-1279.75 63,-1289.75 66.5001,-1279.75 59.5001,-1279.75"/>
</g>
<!-- \\OSS_SNMP\\MIBS\\Entity -->
<g id="node21" class="node"><title>\\OSS_SNMP\\MIBS\\Entity</title>
<a xlink:href="MIBS.Entity.html" xlink:title="Entity" target="_parent">
<polygon fill="none" stroke="black" points="272,-870 216,-870 216,-834 272,-834 272,-870"/>
<text text-anchor="middle" x="244" y="-849.1" font-family="Courier,monospace" font-size="11.00">Entity</text>
</a>
</g>
<!-- \\OSS_SNMP\\MIBS\\Entity&#45;&gt;\\OSS_SNMP\\MIB -->
<g id="edge27" class="edge"><title>\\OSS_SNMP\\MIBS\\Entity&#45;&gt;\\OSS_SNMP\\MIB</title>
<path fill="none" stroke="black" d="M215.458,-860.311C205.974,-864.451 196.25,-870.456 190,-879 81.8901,-1026.79 243.318,-1145.41 126,-1286 119.375,-1293.94 109.713,-1299.02 99.9351,-1302.26"/>
<polygon fill="none" stroke="black" points="98.9393,-1298.91 90.2278,-1304.94 100.798,-1305.65 98.9393,-1298.91"/>
</g>
<!-- \\OSS_SNMP\\MIBS\\MRV -->
<g id="node22" class="node"><title>\\OSS_SNMP\\MIBS\\MRV</title>
<a xlink:href="MIBS.MRV.html" xlink:title="MRV" target="_parent">
<polygon fill="none" stroke="black" points="271,-816 217,-816 217,-780 271,-780 271,-816"/>
<text text-anchor="middle" x="244" y="-795.1" font-family="Courier,monospace" font-size="11.00">MRV</text>
</a>
</g>
<!-- \\OSS_SNMP\\MIBS\\MRV&#45;&gt;\\OSS_SNMP\\MIB -->
<g id="edge29" class="edge"><title>\\OSS_SNMP\\MIBS\\MRV&#45;&gt;\\OSS_SNMP\\MIB</title>
<path fill="none" stroke="black" d="M216.78,-805.65C206.85,-809.793 196.479,-815.974 190,-825 69.3821,-993.047 257.093,-1125.99 126,-1286 119.447,-1294 109.806,-1299.09 100.027,-1302.34"/>
<polygon fill="none" stroke="black" points="99.0273,-1298.98 90.3101,-1305 100.88,-1305.73 99.0273,-1298.98"/>
</g>
<!-- \\OSS_SNMP\\MIBS\\System -->
<g id="node23" class="node"><title>\\OSS_SNMP\\MIBS\\System</title>
<a xlink:href="MIBS.System.html" xlink:title="System" target="_parent">
<polygon fill="none" stroke="black" points="272,-762 216,-762 216,-726 272,-726 272,-762"/>
<text text-anchor="middle" x="244" y="-741.1" font-family="Courier,monospace" font-size="11.00">System</text>
</a>
</g>
<!-- \\OSS_SNMP\\MIBS\\System&#45;&gt;\\OSS_SNMP\\MIB -->
<g id="edge31" class="edge"><title>\\OSS_SNMP\\MIBS\\System&#45;&gt;\\OSS_SNMP\\MIB</title>
<path fill="none" stroke="black" d="M215.305,-752.201C205.806,-756.33 196.111,-762.356 190,-771 56.8507,-959.336 270.893,-1106.54 126,-1286 119.45,-1294.11 109.719,-1299.24 99.853,-1302.48"/>
<polygon fill="none" stroke="black" points="98.7945,-1299.14 90.0549,-1305.13 100.622,-1305.9 98.7945,-1299.14"/>
</g>
<!-- \\OSS_SNMP\\MIBS\\BGP -->
<g id="node24" class="node"><title>\\OSS_SNMP\\MIBS\\BGP</title>
<a xlink:href="MIBS.BGP.html" xlink:title="BGP" target="_parent">
<polygon fill="none" stroke="black" points="271,-708 217,-708 217,-672 271,-672 271,-708"/>
<text text-anchor="middle" x="244" y="-687.1" font-family="Courier,monospace" font-size="11.00">BGP</text>
</a>
</g>
<!-- \\OSS_SNMP\\MIBS\\BGP&#45;&gt;\\OSS_SNMP\\MIB -->
<g id="edge35" class="edge"><title>\\OSS_SNMP\\MIBS\\BGP&#45;&gt;\\OSS_SNMP\\MIB</title>
<path fill="none" stroke="black" d="M216.941,-697.447C206.908,-701.579 196.421,-707.805 190,-717 44.3027,-925.648 284.712,-1087.07 126,-1286 119.497,-1294.15 109.78,-1299.29 99.9126,-1302.53"/>
<polygon fill="none" stroke="black" points="98.8517,-1299.19 90.1083,-1305.17 100.675,-1305.95 98.8517,-1299.19"/>
</g>
<!-- \\OSS_SNMP\\MIBS\\Asterisk -->
<g id="node25" class="node"><title>\\OSS_SNMP\\MIBS\\Asterisk</title>
<a xlink:href="MIBS.Asterisk.html" xlink:title="Asterisk" target="_parent">
<polygon fill="none" stroke="black" points="279,-654 209,-654 209,-618 279,-618 279,-654"/>
<text text-anchor="middle" x="244" y="-633.1" font-family="Courier,monospace" font-size="11.00">Asterisk</text>
</a>
</g>
<!-- \\OSS_SNMP\\MIBS\\Asterisk&#45;&gt;\\OSS_SNMP\\MIB -->
<g id="edge37" class="edge"><title>\\OSS_SNMP\\MIBS\\Asterisk&#45;&gt;\\OSS_SNMP\\MIB</title>
<path fill="none" stroke="black" d="M208.448,-647.403C201.302,-651.273 194.589,-656.361 190,-663 31.7424,-891.978 298.543,-1067.58 126,-1286 119.537,-1294.18 109.831,-1299.33 99.9623,-1302.57"/>
<polygon fill="none" stroke="black" points="98.8993,-1299.23 90.1527,-1305.21 100.719,-1305.99 98.8993,-1299.23"/>
</g>
<!-- \\OSS_SNMP\\MIBS\\Host -->
<g id="node26" class="node"><title>\\OSS_SNMP\\MIBS\\Host</title>
<a xlink:href="MIBS.Host.html" xlink:title="Host" target="_parent">
<polygon fill="none" stroke="black" points="271,-600 217,-600 217,-564 271,-564 271,-600"/>
<text text-anchor="middle" x="244" y="-579.1" font-family="Courier,monospace" font-size="11.00">Host</text>
</a>
</g>
<!-- \\OSS_SNMP\\MIBS\\Host&#45;&gt;\\OSS_SNMP\\MIB -->
<g id="edge39" class="edge"><title>\\OSS_SNMP\\MIBS\\Host&#45;&gt;\\OSS_SNMP\\MIB</title>
<path fill="none" stroke="black" d="M216.857,-589.39C206.813,-593.513 196.339,-599.748 190,-609 104.586,-733.661 219.192,-1167.04 126,-1286 119.57,-1294.21 109.874,-1299.36 100.004,-1302.6"/>
<polygon fill="none" stroke="black" points="98.9395,-1299.26 90.1903,-1305.24 100.756,-1306.02 98.9395,-1299.26"/>
</g>
<!-- \\OSS_SNMP\\Platform -->
<g id="node31" class="node"><title>\\OSS_SNMP\\Platform</title>
<a xlink:href="Platform.html" xlink:title="Platform" target="_parent">
<polygon fill="none" stroke="black" points="279,-250 209,-250 209,-214 279,-214 279,-250"/>
<text text-anchor="middle" x="244" y="-229.1" font-family="Courier,monospace" font-size="11.00">Platform</text>
</a>
</g>
<!-- \\OSS_SNMP\\Timer -->
<g id="node32" class="node"><title>\\OSS_SNMP\\Timer</title>
<a xlink:href="Timer.html" xlink:title="Timer" target="_parent">
<polygon fill="none" stroke="black" points="271,-196 217,-196 217,-160 271,-160 271,-196"/>
<text text-anchor="middle" x="244" y="-175.1" font-family="Courier,monospace" font-size="11.00">Timer</text>
</a>
</g>
<!-- \\OSS_SNMP\\SNMP -->
<g id="node33" class="node"><title>\\OSS_SNMP\\SNMP</title>
<a xlink:href="SNMP.html" xlink:title="SNMP" target="_parent">
<polygon fill="none" stroke="black" points="271,-142 217,-142 217,-106 271,-106 271,-142"/>
<text text-anchor="middle" x="244" y="-121.1" font-family="Courier,monospace" font-size="11.00">SNMP</text>
</a>
</g>
<!-- \\OSS_SNMP\\Exception -->
<g id="node35" class="node"><title>\\OSS_SNMP\\Exception</title>
<a xlink:href="Exception.html" xlink:title="Exception" target="_parent">
<polygon fill="none" stroke="black" points="282,-88 206,-88 206,-52 282,-52 282,-88"/>
<text text-anchor="middle" x="244" y="-67.1" font-family="Courier,monospace" font-size="11.00">Exception</text>
</a>
</g>
<!-- \\Exception -->
<g id="node57" class="node"><title>\\Exception</title>
<ellipse fill="none" stroke="black" cx="63" cy="-18" rx="62.9325" ry="18.3848"/>
<text text-anchor="middle" x="63" y="-14.4" font-family="Times Roman,serif" font-size="14.00" fill="gray">\Exception</text>
</g>
<!-- \\OSS_SNMP\\Exception&#45;&gt;\\Exception -->
<g id="edge51" class="edge"><title>\\OSS_SNMP\\Exception&#45;&gt;\\Exception</title>
<path fill="none" stroke="black" d="M205.171,-58.8447C179.525,-51.4769 145.554,-41.7173 117.251,-33.5858"/>
<polygon fill="none" stroke="black" points="118.076,-30.1815 107.499,-30.7841 116.143,-36.9093 118.076,-30.1815"/>
</g>
</g>
</svg>
