<?xml version="1.0" encoding="UTF-8" standalone="no"?>
<!DOCTYPE svg PUBLIC "-//W3C//DTD SVG 1.1//EN"
 "http://www.w3.org/Graphics/SVG/1.1/DTD/svg11.dtd">
<!-- Generated by graphviz version 2.38.0 (20140413.2041)
 -->
<!-- Title: G Pages: 1 -->
<svg width="432pt" height="1826pt"
 viewBox="0.00 0.00 431.71 1826.00" xmlns="http://www.w3.org/2000/svg" xmlns:xlink="http://www.w3.org/1999/xlink">
<g id="graph0" class="graph" transform="scale(1 1) rotate(0) translate(4 1822)">
<title>G</title>
<polygon fill="white" stroke="none" points="-4,4 -4,-1822 427.711,-1822 427.711,4 -4,4"/>
<g id="clust1" class="cluster"><title>cluster_Global</title>
<path fill="none" stroke="gray" d="M20,-44C20,-44 403.711,-44 403.711,-44 409.711,-44 415.711,-50 415.711,-56 415.711,-56 415.711,-1798 415.711,-1798 415.711,-1804 409.711,-1810 403.711,-1810 403.711,-1810 20,-1810 20,-1810 14,-1810 8,-1804 8,-1798 8,-1798 8,-56 8,-56 8,-50 14,-44 20,-44"/>
<text text-anchor="middle" x="211.855" y="-1797.2" font-family="Times,serif" font-size="11.00" fill="gray">Global</text>
</g>
<g id="clust2" class="cluster"><title>cluster_\OSS_SNMP</title>
<path fill="none" stroke="gray" d="M28,-52C28,-52 395.711,-52 395.711,-52 401.711,-52 407.711,-58 407.711,-64 407.711,-64 407.711,-1771 407.711,-1771 407.711,-1777 401.711,-1783 395.711,-1783 395.711,-1783 28,-1783 28,-1783 22,-1783 16,-1777 16,-1771 16,-1771 16,-64 16,-64 16,-58 22,-52 28,-52"/>
<text text-anchor="middle" x="211.855" y="-1770.2" font-family="Times,serif" font-size="11.00" fill="gray">OSS_SNMP</text>
</g>
<g id="clust3" class="cluster"><title>cluster_\OSS_SNMP\MIBS</title>
<path fill="none" stroke="gray" d="M175.417,-401C175.417,-401 387.711,-401 387.711,-401 393.711,-401 399.711,-407 399.711,-413 399.711,-413 399.711,-1744 399.711,-1744 399.711,-1750 393.711,-1756 387.711,-1756 387.711,-1756 175.417,-1756 175.417,-1756 169.417,-1756 163.417,-1750 163.417,-1744 163.417,-1744 163.417,-413 163.417,-413 163.417,-407 169.417,-401 175.417,-401"/>
<text text-anchor="middle" x="281.564" y="-1743.2" font-family="Times,serif" font-size="11.00" fill="gray">MIBS</text>
</g>
<g id="clust4" class="cluster"><title>cluster_\OSS_SNMP\MIBS\Cisco</title>
<path fill="none" stroke="gray" d="M328.272,-621C328.272,-621 374.272,-621 374.272,-621 380.272,-621 386.272,-627 386.272,-633 386.272,-633 386.272,-896 386.272,-896 386.272,-902 380.272,-908 374.272,-908 374.272,-908 328.272,-908 328.272,-908 322.272,-908 316.272,-902 316.272,-896 316.272,-896 316.272,-633 316.272,-633 316.272,-627 322.272,-621 328.272,-621"/>
<text text-anchor="middle" x="351.272" y="-895.2" font-family="Times,serif" font-size="11.00" fill="gray">Cisco</text>
</g>
<g id="clust5" class="cluster"><title>cluster_\OSS_SNMP\MIBS\Foundry</title>
<path fill="none" stroke="gray" d="M328.272,-542C328.272,-542 374.272,-542 374.272,-542 380.272,-542 386.272,-548 386.272,-554 386.272,-554 386.272,-601 386.272,-601 386.272,-607 380.272,-613 374.272,-613 374.272,-613 328.272,-613 328.272,-613 322.272,-613 316.272,-607 316.272,-601 316.272,-601 316.272,-554 316.272,-554 316.272,-548 322.272,-542 328.272,-542"/>
<text text-anchor="middle" x="351.272" y="-600.2" font-family="Times,serif" font-size="11.00" fill="gray">Foundry</text>
</g>
<g id="clust6" class="cluster"><title>cluster_\OSS_SNMP\MIBS\SNMP</title>
<path fill="none" stroke="gray" d="M328.272,-916C328.272,-916 374.272,-916 374.272,-916 380.272,-916 386.272,-922 386.272,-928 386.272,-928 386.272,-975 386.272,-975 386.272,-981 380.272,-987 374.272,-987 374.272,-987 328.272,-987 328.272,-987 322.272,-987 316.272,-981 316.272,-975 316.272,-975 316.272,-928 316.272,-928 316.272,-922 322.272,-916 328.272,-916"/>
<text text-anchor="middle" x="351.272" y="-974.2" font-family="Times,serif" font-size="11.00" fill="gray">SNMP</text>
</g>
<g id="clust7" class="cluster"><title>cluster_\OSS_SNMP\MIBS\MRV</title>
<path fill="none" stroke="gray" d="M328.272,-995C328.272,-995 374.272,-995 374.272,-995 380.272,-995 386.272,-1001 386.272,-1007 386.272,-1007 386.272,-1054 386.272,-1054 386.272,-1060 380.272,-1066 374.272,-1066 374.272,-1066 328.272,-1066 328.272,-1066 322.272,-1066 316.272,-1060 316.272,-1054 316.272,-1054 316.272,-1007 316.272,-1007 316.272,-1001 322.272,-995 328.272,-995"/>
<text text-anchor="middle" x="351.272" y="-1053.2" font-family="Times,serif" font-size="11.00" fill="gray">MRV</text>
</g>
<g id="clust8" class="cluster"><title>cluster_\OSS_SNMP\MIBS\Asterisk</title>
<path fill="none" stroke="gray" d="M322.834,-1074C322.834,-1074 379.711,-1074 379.711,-1074 385.711,-1074 391.711,-1080 391.711,-1086 391.711,-1086 391.711,-1187 391.711,-1187 391.711,-1193 385.711,-1199 379.711,-1199 379.711,-1199 322.834,-1199 322.834,-1199 316.834,-1199 310.834,-1193 310.834,-1187 310.834,-1187 310.834,-1086 310.834,-1086 310.834,-1080 316.834,-1074 322.834,-1074"/>
<text text-anchor="middle" x="351.272" y="-1186.2" font-family="Times,serif" font-size="11.00" fill="gray">Asterisk</text>
</g>
<g id="clust9" class="cluster"><title>cluster_\OSS_SNMP\MIBS\Extreme</title>
<path fill="none" stroke="gray" d="M328.272,-409C328.272,-409 374.272,-409 374.272,-409 380.272,-409 386.272,-415 386.272,-421 386.272,-421 386.272,-522 386.272,-522 386.272,-528 380.272,-534 374.272,-534 374.272,-534 328.272,-534 328.272,-534 322.272,-534 316.272,-528 316.272,-522 316.272,-522 316.272,-421 316.272,-421 316.272,-415 322.272,-409 328.272,-409"/>
<text text-anchor="middle" x="351.272" y="-521.2" font-family="Times,serif" font-size="11.00" fill="gray">Extreme</text>
</g>
<g id="clust10" class="cluster"><title>cluster_\OSS_SNMP\Cache</title>
<path fill="none" stroke="gray" d="M328.272,-268C328.272,-268 374.272,-268 374.272,-268 380.272,-268 386.272,-274 386.272,-280 386.272,-280 386.272,-381 386.272,-381 386.272,-387 380.272,-393 374.272,-393 374.272,-393 328.272,-393 328.272,-393 322.272,-393 316.272,-387 316.272,-381 316.272,-381 316.272,-280 316.272,-280 316.272,-274 322.272,-268 328.272,-268"/>
<text text-anchor="middle" x="351.272" y="-380.2" font-family="Times,serif" font-size="11.00" fill="gray">Cache</text>
</g>
<!-- \\OSS_SNMP\\MIBS\\Cisco\\RSTP -->
<g id="node1" class="node"><title>\\OSS_SNMP\\MIBS\\Cisco\\RSTP</title>
<polygon fill="none" stroke="black" points="378.272,-881 324.272,-881 324.272,-845 378.272,-845 378.272,-881"/>
<text text-anchor="middle" x="351.272" y="-859.7" font-family="Times,serif" font-size="11.00">RSTP</text>
</g>
<!-- \\OSS_SNMP\\MIBS\\Cisco -->
<g id="node18" class="node"><title>\\OSS_SNMP\\MIBS\\Cisco</title>
<polygon fill="none" stroke="black" points="225.417,-746 171.417,-746 171.417,-710 225.417,-710 225.417,-746"/>
<text text-anchor="middle" x="198.417" y="-724.7" font-family="Times,serif" font-size="11.00">Cisco</text>
</g>
<!-- \\OSS_SNMP\\MIBS\\Cisco\\RSTP&#45;&gt;\\OSS_SNMP\\MIBS\\Cisco -->
<g id="edge1" class="edge"><title>\\OSS_SNMP\\MIBS\\Cisco\\RSTP&#45;&gt;\\OSS_SNMP\\MIBS\\Cisco</title>
<path fill="none" stroke="black" d="M323.871,-846.73C319.316,-843.428 314.782,-839.795 310.834,-836 276.486,-802.981 283.8,-780.059 246.834,-750 243.252,-747.087 239.221,-744.463 235.061,-742.128"/>
<polygon fill="none" stroke="black" points="236.375,-738.871 225.872,-737.479 233.214,-745.117 236.375,-738.871"/>
</g>
<!-- \\OSS_SNMP\\MIBS\\Cisco\\CDP -->
<g id="node2" class="node"><title>\\OSS_SNMP\\MIBS\\Cisco\\CDP</title>
<polygon fill="none" stroke="black" points="378.272,-827 324.272,-827 324.272,-791 378.272,-791 378.272,-827"/>
<text text-anchor="middle" x="351.272" y="-805.7" font-family="Times,serif" font-size="11.00">CDP</text>
</g>
<!-- \\OSS_SNMP\\MIBS\\Cisco\\CDP&#45;&gt;\\OSS_SNMP\\MIBS\\Cisco -->
<g id="edge2" class="edge"><title>\\OSS_SNMP\\MIBS\\Cisco\\CDP&#45;&gt;\\OSS_SNMP\\MIBS\\Cisco</title>
<path fill="none" stroke="black" d="M324.248,-793.348C303.529,-781.085 273.657,-763.841 246.834,-750 243.023,-748.034 239.004,-746.044 234.983,-744.106"/>
<polygon fill="none" stroke="black" points="236.231,-740.825 225.695,-739.714 233.239,-747.153 236.231,-740.825"/>
</g>
<!-- \\OSS_SNMP\\MIBS\\Cisco\\MST -->
<g id="node3" class="node"><title>\\OSS_SNMP\\MIBS\\Cisco\\MST</title>
<polygon fill="none" stroke="black" points="378.272,-773 324.272,-773 324.272,-737 378.272,-737 378.272,-773"/>
<text text-anchor="middle" x="351.272" y="-751.7" font-family="Times,serif" font-size="11.00">MST</text>
</g>
<!-- \\OSS_SNMP\\MIBS\\Cisco\\MST&#45;&gt;\\OSS_SNMP\\MIBS\\Cisco -->
<g id="edge8" class="edge"><title>\\OSS_SNMP\\MIBS\\Cisco\\MST&#45;&gt;\\OSS_SNMP\\MIBS\\Cisco</title>
<path fill="none" stroke="black" d="M323.995,-750.297C299.518,-745.916 262.81,-739.346 235.575,-734.471"/>
<polygon fill="none" stroke="black" points="236.106,-731.011 225.646,-732.694 234.872,-737.901 236.106,-731.011"/>
</g>
<!-- \\OSS_SNMP\\MIBS\\Cisco\\VTP -->
<g id="node4" class="node"><title>\\OSS_SNMP\\MIBS\\Cisco\\VTP</title>
<polygon fill="none" stroke="black" points="378.272,-719 324.272,-719 324.272,-683 378.272,-683 378.272,-719"/>
<text text-anchor="middle" x="351.272" y="-697.7" font-family="Times,serif" font-size="11.00">VTP</text>
</g>
<!-- \\OSS_SNMP\\MIBS\\Cisco\\VTP&#45;&gt;\\OSS_SNMP\\MIBS\\Cisco -->
<g id="edge20" class="edge"><title>\\OSS_SNMP\\MIBS\\Cisco\\VTP&#45;&gt;\\OSS_SNMP\\MIBS\\Cisco</title>
<path fill="none" stroke="black" d="M323.995,-705.703C299.518,-710.084 262.81,-716.654 235.575,-721.529"/>
<polygon fill="none" stroke="black" points="234.872,-718.099 225.646,-723.306 236.106,-724.989 234.872,-718.099"/>
</g>
<!-- \\OSS_SNMP\\MIBS\\Cisco\\SMST -->
<g id="node5" class="node"><title>\\OSS_SNMP\\MIBS\\Cisco\\SMST</title>
<polygon fill="none" stroke="black" points="378.272,-665 324.272,-665 324.272,-629 378.272,-629 378.272,-665"/>
<text text-anchor="middle" x="351.272" y="-643.7" font-family="Times,serif" font-size="11.00">SMST</text>
</g>
<!-- \\OSS_SNMP\\MIBS\\Cisco\\SMST&#45;&gt;\\OSS_SNMP\\MIBS\\Cisco -->
<g id="edge23" class="edge"><title>\\OSS_SNMP\\MIBS\\Cisco\\SMST&#45;&gt;\\OSS_SNMP\\MIBS\\Cisco</title>
<path fill="none" stroke="black" d="M323.995,-661.109C299.195,-674.425 261.838,-694.484 234.5,-709.163"/>
<polygon fill="none" stroke="black" points="232.8,-706.103 225.646,-713.917 236.112,-712.27 232.8,-706.103"/>
</g>
<!-- \\OSS_SNMP\\MIBS\\Foundry\\Chassis -->
<g id="node6" class="node"><title>\\OSS_SNMP\\MIBS\\Foundry\\Chassis</title>
<polygon fill="none" stroke="black" points="378.272,-586 324.272,-586 324.272,-550 378.272,-550 378.272,-586"/>
<text text-anchor="middle" x="351.272" y="-564.7" font-family="Times,serif" font-size="11.00">Chassis</text>
</g>
<!-- \\OSS_SNMP\\MIBS\\Foundry -->
<g id="node24" class="node"><title>\\OSS_SNMP\\MIBS\\Foundry</title>
<polygon fill="none" stroke="black" points="225.417,-639 171.417,-639 171.417,-603 225.417,-603 225.417,-639"/>
<text text-anchor="middle" x="198.417" y="-617.7" font-family="Times,serif" font-size="11.00">Foundry</text>
</g>
<!-- \\OSS_SNMP\\MIBS\\Foundry\\Chassis&#45;&gt;\\OSS_SNMP\\MIBS\\Foundry -->
<g id="edge9" class="edge"><title>\\OSS_SNMP\\MIBS\\Foundry\\Chassis&#45;&gt;\\OSS_SNMP\\MIBS\\Foundry</title>
<path fill="none" stroke="black" d="M323.995,-577.232C299.411,-585.869 262.487,-598.842 235.215,-608.423"/>
<polygon fill="none" stroke="black" points="233.92,-605.168 225.646,-611.785 236.24,-611.773 233.92,-605.168"/>
</g>
<!-- \\OSS_SNMP\\MIBS\\SNMP\\Engine -->
<g id="node7" class="node"><title>\\OSS_SNMP\\MIBS\\SNMP\\Engine</title>
<polygon fill="none" stroke="black" points="378.272,-960 324.272,-960 324.272,-924 378.272,-924 378.272,-960"/>
<text text-anchor="middle" x="351.272" y="-938.7" font-family="Times,serif" font-size="11.00">Engine</text>
</g>
<!-- \\OSS_SNMP\\MIB -->
<g id="node28" class="node"><title>\\OSS_SNMP\\MIB</title>
<polygon fill="none" stroke="black" points="78,-692 24,-692 24,-656 78,-656 78,-692"/>
<text text-anchor="middle" x="51" y="-670.7" font-family="Times,serif" font-size="11.00">MIB</text>
</g>
<!-- \\OSS_SNMP\\MIBS\\SNMP\\Engine&#45;&gt;\\OSS_SNMP\\MIB -->
<g id="edge14" class="edge"><title>\\OSS_SNMP\\MIBS\\SNMP\\Engine&#45;&gt;\\OSS_SNMP\\MIB</title>
<path fill="none" stroke="black" d="M197.417,-1360C180.499,-1347.24 165.265,-1369.7 150,-1355 54.6607,-1263.2 50.9456,-820.046 51.6686,-702.61"/>
<polygon fill="none" stroke="black" points="55.171,-702.312 51.7495,-692.285 48.1712,-702.257 55.171,-702.312"/>
<path fill="none" stroke="black" d="M332.078,-960.039C324.36,-968.706 315.977,-979.663 310.834,-991 240.062,-1147.01 336.189,-1463.16 199.417,-1360"/>
</g>
<!-- \\OSS_SNMP\\MIBS\\MRV\\System -->
<g id="node8" class="node"><title>\\OSS_SNMP\\MIBS\\MRV\\System</title>
<polygon fill="none" stroke="black" points="378.272,-1039 324.272,-1039 324.272,-1003 378.272,-1003 378.272,-1039"/>
<text text-anchor="middle" x="351.272" y="-1017.7" font-family="Times,serif" font-size="11.00">System</text>
</g>
<!-- \\OSS_SNMP\\MIBS\\MRV\\System&#45;&gt;\\OSS_SNMP\\MIB -->
<g id="edge16" class="edge"><title>\\OSS_SNMP\\MIBS\\MRV\\System&#45;&gt;\\OSS_SNMP\\MIB</title>
<path fill="none" stroke="black" d="M332.322,-1039.15C324.653,-1047.84 316.241,-1058.79 310.834,-1070 250.864,-1194.37 309.652,-1443.14 199.417,-1360"/>
</g>
<!-- \\OSS_SNMP\\MIBS\\Asterisk\\Indications -->
<g id="node9" class="node"><title>\\OSS_SNMP\\MIBS\\Asterisk\\Indications</title>
<polygon fill="none" stroke="black" points="383.65,-1118 318.895,-1118 318.895,-1082 383.65,-1082 383.65,-1118"/>
<text text-anchor="middle" x="351.272" y="-1096.7" font-family="Times,serif" font-size="11.00">Indications</text>
</g>
<!-- \\OSS_SNMP\\MIBS\\Asterisk\\Indications&#45;&gt;\\OSS_SNMP\\MIB -->
<g id="edge18" class="edge"><title>\\OSS_SNMP\\MIBS\\Asterisk\\Indications&#45;&gt;\\OSS_SNMP\\MIB</title>
<path fill="none" stroke="black" d="M319.07,-1118.1C315.992,-1120.79 313.155,-1123.76 310.834,-1127 243.946,-1220.28 291.06,-1429.12 199.417,-1360"/>
</g>
<!-- \\OSS_SNMP\\MIBS\\Asterisk\\Channels -->
<g id="node10" class="node"><title>\\OSS_SNMP\\MIBS\\Asterisk\\Channels</title>
<polygon fill="none" stroke="black" points="379.711,-1172 322.834,-1172 322.834,-1136 379.711,-1136 379.711,-1172"/>
<text text-anchor="middle" x="351.272" y="-1150.7" font-family="Times,serif" font-size="11.00">Channels</text>
</g>
<!-- \\OSS_SNMP\\MIBS\\Asterisk\\Channels&#45;&gt;\\OSS_SNMP\\MIB -->
<g id="edge22" class="edge"><title>\\OSS_SNMP\\MIBS\\Asterisk\\Channels&#45;&gt;\\OSS_SNMP\\MIB</title>
<path fill="none" stroke="black" d="M322.468,-1166.1C318.163,-1168.88 314.077,-1172.17 310.834,-1176 249.051,-1248.96 275.743,-1417.57 199.417,-1360"/>
</g>
<!-- \\OSS_SNMP\\MIBS\\Extreme\\Chassis -->
<g id="node11" class="node"><title>\\OSS_SNMP\\MIBS\\Extreme\\Chassis</title>
<polygon fill="none" stroke="black" points="378.272,-507 324.272,-507 324.272,-471 378.272,-471 378.272,-507"/>
<text text-anchor="middle" x="351.272" y="-485.7" font-family="Times,serif" font-size="11.00">Chassis</text>
</g>
<!-- \\OSS_SNMP\\MIBS\\Extreme -->
<g id="node14" class="node"><title>\\OSS_SNMP\\MIBS\\Extreme</title>
<polygon fill="none" stroke="black" points="225.417,-507 171.417,-507 171.417,-471 225.417,-471 225.417,-507"/>
<text text-anchor="middle" x="198.417" y="-485.7" font-family="Times,serif" font-size="11.00">Extreme</text>
</g>
<!-- \\OSS_SNMP\\MIBS\\Extreme\\Chassis&#45;&gt;\\OSS_SNMP\\MIBS\\Extreme -->
<g id="edge21" class="edge"><title>\\OSS_SNMP\\MIBS\\Extreme\\Chassis&#45;&gt;\\OSS_SNMP\\MIBS\\Extreme</title>
<path fill="none" stroke="black" d="M323.995,-489C299.626,-489 263.133,-489 235.935,-489"/>
<polygon fill="none" stroke="black" points="235.646,-485.5 225.646,-489 235.645,-492.5 235.646,-485.5"/>
</g>
<!-- \\OSS_SNMP\\MIBS\\Extreme\\Vlan -->
<g id="node12" class="node"><title>\\OSS_SNMP\\MIBS\\Extreme\\Vlan</title>
<polygon fill="none" stroke="black" points="378.272,-453 324.272,-453 324.272,-417 378.272,-417 378.272,-453"/>
<text text-anchor="middle" x="351.272" y="-431.7" font-family="Times,serif" font-size="11.00">Vlan</text>
</g>
<!-- \\OSS_SNMP\\MIBS\\Extreme\\Vlan&#45;&gt;\\OSS_SNMP\\MIBS\\Extreme -->
<g id="edge24" class="edge"><title>\\OSS_SNMP\\MIBS\\Extreme\\Vlan&#45;&gt;\\OSS_SNMP\\MIBS\\Extreme</title>
<path fill="none" stroke="black" d="M323.995,-444.406C299.411,-453.206 262.487,-466.424 235.215,-476.186"/>
<polygon fill="none" stroke="black" points="233.881,-472.946 225.646,-479.611 236.24,-479.536 233.881,-472.946"/>
</g>
<!-- \\OSS_SNMP\\MIBS\\Asterisk -->
<g id="node13" class="node"><title>\\OSS_SNMP\\MIBS\\Asterisk</title>
<polygon fill="none" stroke="black" points="378.272,-1243 324.272,-1243 324.272,-1207 378.272,-1207 378.272,-1243"/>
<text text-anchor="middle" x="351.272" y="-1221.7" font-family="Times,serif" font-size="11.00">Asterisk</text>
</g>
<!-- \\OSS_SNMP\\MIBS\\Asterisk&#45;&gt;\\OSS_SNMP\\MIB -->
<g id="edge3" class="edge"><title>\\OSS_SNMP\\MIBS\\Asterisk&#45;&gt;\\OSS_SNMP\\MIB</title>
<path fill="none" stroke="black" d="M324.014,-1240.7C319.345,-1244.11 314.734,-1247.92 310.834,-1252 263.162,-1301.83 254.477,-1401.53 199.417,-1360"/>
</g>
<!-- \\OSS_SNMP\\MIBS\\Extreme&#45;&gt;\\OSS_SNMP\\MIB -->
<g id="edge4" class="edge"><title>\\OSS_SNMP\\MIBS\\Extreme&#45;&gt;\\OSS_SNMP\\MIB</title>
<path fill="none" stroke="black" d="M183.209,-507.075C157.363,-539.956 102.566,-609.669 72.6124,-647.777"/>
<polygon fill="none" stroke="black" points="69.6938,-645.826 66.2656,-655.851 75.1971,-650.152 69.6938,-645.826"/>
</g>
<!-- \\OSS_SNMP\\MIBS\\Host -->
<g id="node15" class="node"><title>\\OSS_SNMP\\MIBS\\Host</title>
<polygon fill="none" stroke="black" points="378.272,-1297 324.272,-1297 324.272,-1261 378.272,-1261 378.272,-1297"/>
<text text-anchor="middle" x="351.272" y="-1275.7" font-family="Times,serif" font-size="11.00">Host</text>
</g>
<!-- \\OSS_SNMP\\MIBS\\Host&#45;&gt;\\OSS_SNMP\\MIB -->
<g id="edge5" class="edge"><title>\\OSS_SNMP\\MIBS\\Host&#45;&gt;\\OSS_SNMP\\MIB</title>
<path fill="none" stroke="black" d="M324.254,-1296.52C319.75,-1299.64 315.135,-1302.88 310.834,-1306 266.269,-1338.28 243.35,-1393.14 199.417,-1360"/>
</g>
<!-- \\OSS_SNMP\\MIBS\\System -->
<g id="node16" class="node"><title>\\OSS_SNMP\\MIBS\\System</title>
<polygon fill="none" stroke="black" points="378.272,-1351 324.272,-1351 324.272,-1315 378.272,-1315 378.272,-1351"/>
<text text-anchor="middle" x="351.272" y="-1329.7" font-family="Times,serif" font-size="11.00">System</text>
</g>
<!-- \\OSS_SNMP\\MIBS\\System&#45;&gt;\\OSS_SNMP\\MIB -->
<g id="edge6" class="edge"><title>\\OSS_SNMP\\MIBS\\System&#45;&gt;\\OSS_SNMP\\MIB</title>
<path fill="none" stroke="black" d="M324.006,-1348.71C291.492,-1365.9 235.953,-1387.56 199.417,-1360"/>
</g>
<!-- \\OSS_SNMP\\MIBS\\Bridge -->
<g id="node17" class="node"><title>\\OSS_SNMP\\MIBS\\Bridge</title>
<polygon fill="none" stroke="black" points="378.272,-1405 324.272,-1405 324.272,-1369 378.272,-1369 378.272,-1405"/>
<text text-anchor="middle" x="351.272" y="-1383.7" font-family="Times,serif" font-size="11.00">Bridge</text>
</g>
<!-- \\OSS_SNMP\\MIBS\\Bridge&#45;&gt;\\OSS_SNMP\\MIB -->
<g id="edge7" class="edge"><title>\\OSS_SNMP\\MIBS\\Bridge&#45;&gt;\\OSS_SNMP\\MIB</title>
<path fill="none" stroke="black" d="M324.006,-1389.09C291.492,-1390.27 235.953,-1387.56 199.417,-1360"/>
</g>
<!-- \\OSS_SNMP\\MIBS\\Cisco&#45;&gt;\\OSS_SNMP\\MIB -->
<g id="edge10" class="edge"><title>\\OSS_SNMP\\MIBS\\Cisco&#45;&gt;\\OSS_SNMP\\MIB</title>
<path fill="none" stroke="black" d="M171.083,-718.221C147.714,-709.543 113.376,-696.792 87.5699,-687.209"/>
<polygon fill="none" stroke="black" points="88.731,-683.906 78.138,-683.706 86.2941,-690.469 88.731,-683.906"/>
</g>
<!-- \\OSS_SNMP\\MIBS\\Entity -->
<g id="node19" class="node"><title>\\OSS_SNMP\\MIBS\\Entity</title>
<polygon fill="none" stroke="black" points="378.272,-1459 324.272,-1459 324.272,-1423 378.272,-1423 378.272,-1459"/>
<text text-anchor="middle" x="351.272" y="-1437.7" font-family="Times,serif" font-size="11.00">Entity</text>
</g>
<!-- \\OSS_SNMP\\MIBS\\Entity&#45;&gt;\\OSS_SNMP\\MIB -->
<g id="edge11" class="edge"><title>\\OSS_SNMP\\MIBS\\Entity&#45;&gt;\\OSS_SNMP\\MIB</title>
<path fill="none" stroke="black" d="M324.02,-1429.9C292.736,-1416.01 239.645,-1390.34 199.417,-1360"/>
</g>
<!-- \\OSS_SNMP\\MIBS\\MRV -->
<g id="node20" class="node"><title>\\OSS_SNMP\\MIBS\\MRV</title>
<polygon fill="none" stroke="black" points="378.272,-1513 324.272,-1513 324.272,-1477 378.272,-1477 378.272,-1513"/>
<text text-anchor="middle" x="351.272" y="-1491.7" font-family="Times,serif" font-size="11.00">MRV</text>
</g>
<!-- \\OSS_SNMP\\MIBS\\MRV&#45;&gt;\\OSS_SNMP\\MIB -->
<g id="edge12" class="edge"><title>\\OSS_SNMP\\MIBS\\MRV&#45;&gt;\\OSS_SNMP\\MIB</title>
<path fill="none" stroke="black" d="M323.936,-1477.89C319.467,-1474.73 314.946,-1471.36 310.834,-1468 257.43,-1424.36 254.477,-1401.53 199.417,-1360"/>
</g>
<!-- \\OSS_SNMP\\MIBS\\SNMP -->
<g id="node21" class="node"><title>\\OSS_SNMP\\MIBS\\SNMP</title>
<polygon fill="none" stroke="black" points="378.272,-1567 324.272,-1567 324.272,-1531 378.272,-1531 378.272,-1567"/>
<text text-anchor="middle" x="351.272" y="-1545.7" font-family="Times,serif" font-size="11.00">SNMP</text>
</g>
<!-- \\OSS_SNMP\\MIBS\\SNMP&#45;&gt;\\OSS_SNMP\\MIB -->
<g id="edge15" class="edge"><title>\\OSS_SNMP\\MIBS\\SNMP&#45;&gt;\\OSS_SNMP\\MIB</title>
<path fill="none" stroke="black" d="M324.166,-1533.15C319.483,-1529.76 314.828,-1525.99 310.834,-1522 248.978,-1460.28 269.183,-1412.62 199.417,-1360"/>
</g>
<!-- \\OSS_SNMP\\MIBS\\Iface -->
<g id="node22" class="node"><title>\\OSS_SNMP\\MIBS\\Iface</title>
<polygon fill="none" stroke="black" points="378.272,-1621 324.272,-1621 324.272,-1585 378.272,-1585 378.272,-1621"/>
<text text-anchor="middle" x="351.272" y="-1599.7" font-family="Times,serif" font-size="11.00">Iface</text>
</g>
<!-- \\OSS_SNMP\\MIBS\\Iface&#45;&gt;\\OSS_SNMP\\MIB -->
<g id="edge19" class="edge"><title>\\OSS_SNMP\\MIBS\\Iface&#45;&gt;\\OSS_SNMP\\MIB</title>
<path fill="none" stroke="black" d="M324.156,-1587.85C319.369,-1584.35 314.679,-1580.35 310.834,-1576 239.336,-1495.03 285.657,-1425.04 199.417,-1360"/>
</g>
<!-- \\OSS_SNMP\\MIBS\\LAG -->
<g id="node23" class="node"><title>\\OSS_SNMP\\MIBS\\LAG</title>
<polygon fill="none" stroke="black" points="378.272,-1675 324.272,-1675 324.272,-1639 378.272,-1639 378.272,-1675"/>
<text text-anchor="middle" x="351.272" y="-1653.7" font-family="Times,serif" font-size="11.00">LAG</text>
</g>
<!-- \\OSS_SNMP\\MIBS\\LAG&#45;&gt;\\OSS_SNMP\\MIB -->
<g id="edge26" class="edge"><title>\\OSS_SNMP\\MIBS\\LAG&#45;&gt;\\OSS_SNMP\\MIB</title>
<path fill="none" stroke="black" d="M324.267,-1642.4C319.36,-1638.81 314.595,-1634.64 310.834,-1630 229.114,-1529.13 303.059,-1438.17 199.417,-1360"/>
</g>
<!-- \\OSS_SNMP\\MIBS\\Foundry&#45;&gt;\\OSS_SNMP\\MIB -->
<g id="edge27" class="edge"><title>\\OSS_SNMP\\MIBS\\Foundry&#45;&gt;\\OSS_SNMP\\MIB</title>
<path fill="none" stroke="black" d="M171.083,-630.598C147.714,-639.115 113.376,-651.63 87.5699,-661.036"/>
<polygon fill="none" stroke="black" points="86.3349,-657.761 78.138,-664.474 88.732,-664.337 86.3349,-657.761"/>
</g>
<!-- \\OSS_SNMP\\MIBS\\BGP -->
<g id="node25" class="node"><title>\\OSS_SNMP\\MIBS\\BGP</title>
<polygon fill="none" stroke="black" points="378.272,-1729 324.272,-1729 324.272,-1693 378.272,-1693 378.272,-1729"/>
<text text-anchor="middle" x="351.272" y="-1707.7" font-family="Times,serif" font-size="11.00">BGP</text>
</g>
<!-- \\OSS_SNMP\\MIBS\\BGP&#45;&gt;\\OSS_SNMP\\MIB -->
<g id="edge28" class="edge"><title>\\OSS_SNMP\\MIBS\\BGP&#45;&gt;\\OSS_SNMP\\MIB</title>
<path fill="none" stroke="black" d="M324.048,-1696.57C319.157,-1692.97 314.454,-1688.75 310.834,-1684 218.576,-1562.85 320.991,-1451.69 199.417,-1360"/>
</g>
<!-- \\OSS_SNMP\\Cache\\APC -->
<g id="node26" class="node"><title>\\OSS_SNMP\\Cache\\APC</title>
<polygon fill="none" stroke="black" points="378.272,-366 324.272,-366 324.272,-330 378.272,-330 378.272,-366"/>
<text text-anchor="middle" x="351.272" y="-344.7" font-family="Times,serif" font-size="11.00">APC</text>
</g>
<!-- \\OSS_SNMP\\Cache -->
<g id="node29" class="node"><title>\\OSS_SNMP\\Cache</title>
<polygon fill="none" stroke="black" points="229.12,-339 167.714,-339 167.714,-303 229.12,-303 229.12,-339"/>
<text text-anchor="start" x="175.815" y="-323.2" font-family="Times,serif" font-size="11.00">«abstract»</text>
<text text-anchor="start" x="184.675" y="-312.2" font-family="Times,serif" font-size="11.00">Cache</text>
</g>
<!-- \\OSS_SNMP\\Cache\\APC&#45;&gt;\\OSS_SNMP\\Cache -->
<g id="edge13" class="edge"><title>\\OSS_SNMP\\Cache\\APC&#45;&gt;\\OSS_SNMP\\Cache</title>
<path fill="none" stroke="black" d="M323.995,-343.297C300.566,-339.104 265.931,-332.905 239.123,-328.107"/>
<polygon fill="none" stroke="black" points="239.732,-324.66 229.272,-326.343 238.499,-331.551 239.732,-324.66"/>
</g>
<!-- \\OSS_SNMP\\Cache\\Basic -->
<g id="node27" class="node"><title>\\OSS_SNMP\\Cache\\Basic</title>
<polygon fill="none" stroke="black" points="378.272,-312 324.272,-312 324.272,-276 378.272,-276 378.272,-312"/>
<text text-anchor="middle" x="351.272" y="-290.7" font-family="Times,serif" font-size="11.00">Basic</text>
</g>
<!-- \\OSS_SNMP\\Cache\\Basic&#45;&gt;\\OSS_SNMP\\Cache -->
<g id="edge25" class="edge"><title>\\OSS_SNMP\\Cache\\Basic&#45;&gt;\\OSS_SNMP\\Cache</title>
<path fill="none" stroke="black" d="M323.995,-298.703C300.566,-302.896 265.931,-309.095 239.123,-313.893"/>
<polygon fill="none" stroke="black" points="238.499,-310.449 229.272,-315.657 239.732,-317.34 238.499,-310.449"/>
</g>
<!-- \\OSS_SNMP\\Platform -->
<g id="node30" class="node"><title>\\OSS_SNMP\\Platform</title>
<polygon fill="none" stroke="black" points="378.769,-258 323.776,-258 323.776,-222 378.769,-222 378.769,-258"/>
<text text-anchor="middle" x="351.272" y="-236.7" font-family="Times,serif" font-size="11.00">Platform</text>
</g>
<!-- \\OSS_SNMP\\Exception -->
<g id="node31" class="node"><title>\\OSS_SNMP\\Exception</title>
<polygon fill="none" stroke="black" points="381.37,-204 321.175,-204 321.175,-168 381.37,-168 381.37,-204"/>
<text text-anchor="middle" x="351.272" y="-182.7" font-family="Times,serif" font-size="11.00">Exception</text>
</g>
<!-- \\Exception -->
<g id="node34" class="node"><title>\\Exception</title>
<ellipse fill="none" stroke="black" cx="198.417" cy="-18" rx="48.3341" ry="18"/>
<text text-anchor="middle" x="198.417" y="-13.8" font-family="Times,serif" font-size="14.00" fill="gray">\Exception</text>
</g>
<!-- \\OSS_SNMP\\Exception&#45;&gt;\\Exception -->
<g id="edge17" class="edge"><title>\\OSS_SNMP\\Exception&#45;&gt;\\Exception</title>
<path fill="none" stroke="black" d="M321.043,-168.24C317.392,-165.391 313.878,-162.288 310.834,-159 272.153,-117.207 286.265,-89.0857 246.834,-48 243.636,-44.6682 239.997,-41.5416 236.189,-38.6584"/>
<polygon fill="none" stroke="black" points="237.899,-35.5844 227.69,-32.7505 233.903,-41.3322 237.899,-35.5844"/>
</g>
<!-- \\OSS_SNMP\\Timer -->
<g id="node32" class="node"><title>\\OSS_SNMP\\Timer</title>
<polygon fill="none" stroke="black" points="378.272,-150 324.272,-150 324.272,-114 378.272,-114 378.272,-150"/>
<text text-anchor="middle" x="351.272" y="-128.7" font-family="Times,serif" font-size="11.00">Timer</text>
</g>
<!-- \\OSS_SNMP\\SNMP -->
<g id="node33" class="node"><title>\\OSS_SNMP\\SNMP</title>
<polygon fill="none" stroke="black" points="378.272,-96 324.272,-96 324.272,-60 378.272,-60 378.272,-96"/>
<text text-anchor="middle" x="351.272" y="-74.7" font-family="Times,serif" font-size="11.00">SNMP</text>
</g>
</g>
</svg>
