<?xml version="1.0" encoding="UTF-8" standalone="no"?>
<!DOCTYPE svg PUBLIC "-//W3C//DTD SVG 1.1//EN"
 "http://www.w3.org/Graphics/SVG/1.1/DTD/svg11.dtd">
<!-- Generated by graphviz version 2.26.3 (20100126.1600)
 -->
<!-- Title: G Pages: 1 -->
<svg width="450pt" height="1362pt"
 viewBox="0.00 0.00 450.00 1362.00" xmlns="http://www.w3.org/2000/svg" xmlns:xlink="http://www.w3.org/1999/xlink">
<g id="graph1" class="graph" transform="scale(1 1) rotate(0) translate(4 1358)">
<title>G</title>
<polygon fill="white" stroke="white" points="-4,5 -4,-1358 447,-1358 447,5 -4,5"/>
<g id="graph2" class="cluster"><title>cluster_OSS</title>
<polyline fill="none" stroke="gray" points="317,-8 411,-8 "/>
<path fill="none" stroke="gray" d="M411,-8C417,-8 423,-14 423,-20"/>
<polyline fill="none" stroke="gray" points="423,-20 423,-230 "/>
<path fill="none" stroke="gray" d="M423,-230C423,-236 417,-242 411,-242"/>
<polyline fill="none" stroke="gray" points="411,-242 317,-242 "/>
<path fill="none" stroke="gray" d="M317,-242C311,-242 305,-236 305,-230"/>
<polyline fill="none" stroke="gray" points="305,-230 305,-20 "/>
<path fill="none" stroke="gray" d="M305,-20C305,-14 311,-8 317,-8"/>
<text text-anchor="middle" x="364" y="-228.1" font-family="Times Roman,serif" font-size="11.00" fill="gray">OSS</text>
</g>
<g id="graph3" class="cluster"><title>cluster_OSS\SNMP</title>
<polyline fill="none" stroke="gray" points="325,-16 403,-16 "/>
<path fill="none" stroke="gray" d="M403,-16C409,-16 415,-22 415,-28"/>
<polyline fill="none" stroke="gray" points="415,-28 415,-200 "/>
<path fill="none" stroke="gray" d="M415,-200C415,-206 409,-212 403,-212"/>
<polyline fill="none" stroke="gray" points="403,-212 325,-212 "/>
<path fill="none" stroke="gray" d="M325,-212C319,-212 313,-206 313,-200"/>
<polyline fill="none" stroke="gray" points="313,-200 313,-28 "/>
<path fill="none" stroke="gray" d="M313,-28C313,-22 319,-16 325,-16"/>
<text text-anchor="middle" x="364" y="-198.1" font-family="Times Roman,serif" font-size="11.00" fill="gray">SNMP</text>
</g>
<g id="graph4" class="cluster"><title>cluster_OSS\SNMP\MIBS</title>
<polyline fill="none" stroke="gray" points="333,-24 395,-24 "/>
<path fill="none" stroke="gray" d="M395,-24C401,-24 407,-30 407,-36"/>
<polyline fill="none" stroke="gray" points="407,-36 407,-170 "/>
<path fill="none" stroke="gray" d="M407,-170C407,-176 401,-182 395,-182"/>
<polyline fill="none" stroke="gray" points="395,-182 333,-182 "/>
<path fill="none" stroke="gray" d="M333,-182C327,-182 321,-176 321,-170"/>
<polyline fill="none" stroke="gray" points="321,-170 321,-36 "/>
<path fill="none" stroke="gray" d="M321,-36C321,-30 327,-24 333,-24"/>
<text text-anchor="middle" x="364" y="-168.1" font-family="Times Roman,serif" font-size="11.00" fill="gray">MIBS</text>
</g>
<g id="graph5" class="cluster"><title>cluster_OSS\SNMP\MIBS\Cisco</title>
<polyline fill="none" stroke="gray" points="341,-78 387,-78 "/>
<path fill="none" stroke="gray" d="M387,-78C393,-78 399,-84 399,-90"/>
<polyline fill="none" stroke="gray" points="399,-90 399,-140 "/>
<path fill="none" stroke="gray" d="M399,-140C399,-146 393,-152 387,-152"/>
<polyline fill="none" stroke="gray" points="387,-152 341,-152 "/>
<path fill="none" stroke="gray" d="M341,-152C335,-152 329,-146 329,-140"/>
<polyline fill="none" stroke="gray" points="329,-140 329,-90 "/>
<path fill="none" stroke="gray" d="M329,-90C329,-84 335,-78 341,-78"/>
<text text-anchor="middle" x="364" y="-138.1" font-family="Times Roman,serif" font-size="11.00" fill="gray">Cisco</text>
</g>
<g id="graph10" class="cluster"><title>cluster_OSS_SNMP</title>
<polyline fill="none" stroke="gray" points="306,-250 422,-250 "/>
<path fill="none" stroke="gray" d="M422,-250C428,-250 434,-256 434,-262"/>
<polyline fill="none" stroke="gray" points="434,-262 434,-1334 "/>
<path fill="none" stroke="gray" d="M434,-1334C434,-1340 428,-1346 422,-1346"/>
<polyline fill="none" stroke="gray" points="422,-1346 306,-1346 "/>
<path fill="none" stroke="gray" d="M306,-1346C300,-1346 294,-1340 294,-1334"/>
<polyline fill="none" stroke="gray" points="294,-1334 294,-262 "/>
<path fill="none" stroke="gray" d="M294,-262C294,-256 300,-250 306,-250"/>
<text text-anchor="middle" x="364" y="-1332.1" font-family="Times Roman,serif" font-size="11.00" fill="gray">OSS_SNMP</text>
</g>
<g id="graph11" class="cluster"><title>cluster_OSS_SNMP\Cache</title>
<polyline fill="none" stroke="gray" points="341,-1188 387,-1188 "/>
<path fill="none" stroke="gray" d="M387,-1188C393,-1188 399,-1194 399,-1200"/>
<polyline fill="none" stroke="gray" points="399,-1200 399,-1304 "/>
<path fill="none" stroke="gray" d="M399,-1304C399,-1310 393,-1316 387,-1316"/>
<polyline fill="none" stroke="gray" points="387,-1316 341,-1316 "/>
<path fill="none" stroke="gray" d="M341,-1316C335,-1316 329,-1310 329,-1304"/>
<polyline fill="none" stroke="gray" points="329,-1304 329,-1200 "/>
<path fill="none" stroke="gray" d="M329,-1200C329,-1194 335,-1188 341,-1188"/>
<text text-anchor="middle" x="364" y="-1302.1" font-family="Times Roman,serif" font-size="11.00" fill="gray">Cache</text>
</g>
<g id="graph12" class="cluster"><title>cluster_OSS_SNMP\MIBS</title>
<polyline fill="none" stroke="gray" points="314,-518 414,-518 "/>
<path fill="none" stroke="gray" d="M414,-518C420,-518 426,-524 426,-530"/>
<polyline fill="none" stroke="gray" points="426,-530 426,-1168 "/>
<path fill="none" stroke="gray" d="M426,-1168C426,-1174 420,-1180 414,-1180"/>
<polyline fill="none" stroke="gray" points="414,-1180 314,-1180 "/>
<path fill="none" stroke="gray" d="M314,-1180C308,-1180 302,-1174 302,-1168"/>
<polyline fill="none" stroke="gray" points="302,-1168 302,-530 "/>
<path fill="none" stroke="gray" d="M302,-530C302,-524 308,-518 314,-518"/>
<text text-anchor="middle" x="364" y="-1166.1" font-family="Times Roman,serif" font-size="11.00" fill="gray">MIBS</text>
</g>
<g id="graph13" class="cluster"><title>cluster_OSS_SNMP\MIBS\Asterisk</title>
<polyline fill="none" stroke="gray" points="322,-978 406,-978 "/>
<path fill="none" stroke="gray" d="M406,-978C412,-978 418,-984 418,-990"/>
<polyline fill="none" stroke="gray" points="418,-990 418,-1094 "/>
<path fill="none" stroke="gray" d="M418,-1094C418,-1100 412,-1106 406,-1106"/>
<polyline fill="none" stroke="gray" points="406,-1106 322,-1106 "/>
<path fill="none" stroke="gray" d="M322,-1106C316,-1106 310,-1100 310,-1094"/>
<polyline fill="none" stroke="gray" points="310,-1094 310,-990 "/>
<path fill="none" stroke="gray" d="M310,-990C310,-984 316,-978 322,-978"/>
<text text-anchor="middle" x="364" y="-1092.1" font-family="Times Roman,serif" font-size="11.00" fill="gray">Asterisk</text>
</g>
<g id="graph14" class="cluster"><title>cluster_OSS_SNMP\MIBS\Cisco</title>
<polyline fill="none" stroke="gray" points="341,-526 387,-526 "/>
<path fill="none" stroke="gray" d="M387,-526C393,-526 399,-532 399,-538"/>
<polyline fill="none" stroke="gray" points="399,-538 399,-642 "/>
<path fill="none" stroke="gray" d="M399,-642C399,-648 393,-654 387,-654"/>
<polyline fill="none" stroke="gray" points="387,-654 341,-654 "/>
<path fill="none" stroke="gray" d="M341,-654C335,-654 329,-648 329,-642"/>
<polyline fill="none" stroke="gray" points="329,-642 329,-538 "/>
<path fill="none" stroke="gray" d="M329,-538C329,-532 335,-526 341,-526"/>
<text text-anchor="middle" x="364" y="-640.1" font-family="Times Roman,serif" font-size="11.00" fill="gray">Cisco</text>
</g>
<!-- \\OSS\\SNMP\\MIBS\\Cisco\\CDP -->
<g id="node5" class="node"><title>\\OSS\\SNMP\\MIBS\\Cisco\\CDP</title>
<a xlink:href="MIBS.Cisco.CDP.html" xlink:title="CDP" target="_parent">
<polygon fill="none" stroke="black" points="391,-122 337,-122 337,-86 391,-86 391,-122"/>
<text text-anchor="middle" x="364" y="-101.1" font-family="Courier,monospace" font-size="11.00">CDP</text>
</a>
</g>
<!-- OSS\\SNMP\\MIBS\\Cisco -->
<g id="node52" class="node"><title>OSS\\SNMP\\MIBS\\Cisco</title>
<ellipse fill="none" stroke="black" cx="123" cy="-104" rx="120.208" ry="18.3848"/>
<text text-anchor="middle" x="123" y="-100.4" font-family="Times Roman,serif" font-size="14.00" fill="gray">OSS\SNMP\MIBS\Cisco</text>
</g>
<!-- \\OSS\\SNMP\\MIBS\\Cisco\\CDP&#45;&gt;OSS\\SNMP\\MIBS\\Cisco -->
<g id="edge41" class="edge"><title>\\OSS\\SNMP\\MIBS\\Cisco\\CDP&#45;&gt;OSS\\SNMP\\MIBS\\Cisco</title>
<path fill="none" stroke="black" d="M336.823,-104C315.829,-104 285.097,-104 253.444,-104"/>
<polygon fill="none" stroke="black" points="253.146,-100.5 243.146,-104 253.146,-107.5 253.146,-100.5"/>
</g>
<!-- \\OSS\\SNMP\\MIBS\\Cisco -->
<g id="node6" class="node"><title>\\OSS\\SNMP\\MIBS\\Cisco</title>
<a xlink:href="MIBS.Cisco.html" xlink:title="Cisco" target="_parent">
<polygon fill="none" stroke="black" points="391,-68 337,-68 337,-32 391,-32 391,-68"/>
<text text-anchor="middle" x="364" y="-47.1" font-family="Courier,monospace" font-size="11.00">Cisco</text>
</a>
</g>
<!-- OSS\\SNMP\\MIB -->
<g id="node47" class="node"><title>OSS\\SNMP\\MIB</title>
<ellipse fill="none" stroke="black" cx="123" cy="-50" rx="85.7684" ry="18.3848"/>
<text text-anchor="middle" x="123" y="-46.4" font-family="Times Roman,serif" font-size="14.00" fill="gray">OSS\SNMP\MIB</text>
</g>
<!-- \\OSS\\SNMP\\MIBS\\Cisco&#45;&gt;OSS\\SNMP\\MIB -->
<g id="edge35" class="edge"><title>\\OSS\\SNMP\\MIBS\\Cisco&#45;&gt;OSS\\SNMP\\MIB</title>
<path fill="none" stroke="black" d="M336.823,-50C308.389,-50 262.092,-50 219.836,-50"/>
<polygon fill="none" stroke="black" points="219.762,-46.5001 209.762,-50 219.762,-53.5001 219.762,-46.5001"/>
</g>
<!-- \\OSS_SNMP\\Cache\\APC -->
<g id="node13" class="node"><title>\\OSS_SNMP\\Cache\\APC</title>
<a xlink:href="Cache.APC.html" xlink:title="APC" target="_parent">
<polygon fill="none" stroke="black" points="391,-1286 337,-1286 337,-1250 391,-1250 391,-1286"/>
<text text-anchor="middle" x="364" y="-1265.1" font-family="Courier,monospace" font-size="11.00">APC</text>
</a>
</g>
<!-- OSS_SNMP\\Cache -->
<g id="node54" class="node"><title>OSS_SNMP\\Cache</title>
<ellipse fill="none" stroke="black" cx="123" cy="-1241" rx="98.9949" ry="18.3848"/>
<text text-anchor="middle" x="123" y="-1237.4" font-family="Times Roman,serif" font-size="14.00" fill="gray">OSS_SNMP\Cache</text>
</g>
<!-- \\OSS_SNMP\\Cache\\APC&#45;&gt;OSS_SNMP\\Cache -->
<g id="edge43" class="edge"><title>\\OSS_SNMP\\Cache\\APC&#45;&gt;OSS_SNMP\\Cache</title>
<path fill="none" stroke="black" d="M336.823,-1264.96C307.876,-1261.71 260.416,-1256.4 217.554,-1251.59"/>
<polygon fill="none" stroke="black" points="217.673,-1248.08 207.346,-1250.45 216.894,-1255.04 217.673,-1248.08"/>
</g>
<!-- \\OSS_SNMP\\Cache\\Basic -->
<g id="node14" class="node"><title>\\OSS_SNMP\\Cache\\Basic</title>
<a xlink:href="Cache.Basic.html" xlink:title="Basic" target="_parent">
<polygon fill="none" stroke="black" points="391,-1232 337,-1232 337,-1196 391,-1196 391,-1232"/>
<text text-anchor="middle" x="364" y="-1211.1" font-family="Courier,monospace" font-size="11.00">Basic</text>
</a>
</g>
<!-- \\OSS_SNMP\\Cache\\Basic&#45;&gt;OSS_SNMP\\Cache -->
<g id="edge45" class="edge"><title>\\OSS_SNMP\\Cache\\Basic&#45;&gt;OSS_SNMP\\Cache</title>
<path fill="none" stroke="black" d="M336.823,-1217.04C307.876,-1220.29 260.416,-1225.6 217.554,-1230.41"/>
<polygon fill="none" stroke="black" points="216.894,-1226.96 207.346,-1231.55 217.673,-1233.92 216.894,-1226.96"/>
</g>
<!-- \\OSS_SNMP\\MIBS\\Asterisk\\Indications -->
<g id="node17" class="node"><title>\\OSS_SNMP\\MIBS\\Asterisk\\Indications</title>
<a xlink:href="MIBS.Asterisk.Indications.html" xlink:title="Indications" target="_parent">
<polygon fill="none" stroke="black" points="409,-1076 319,-1076 319,-1040 409,-1040 409,-1076"/>
<text text-anchor="middle" x="364" y="-1055.1" font-family="Courier,monospace" font-size="11.00">Indications</text>
</a>
</g>
<!-- OSS_SNMP\\MIB -->
<g id="node37" class="node"><title>OSS_SNMP\\MIB</title>
<ellipse fill="none" stroke="black" cx="123" cy="-896" rx="87.889" ry="18.3848"/>
<text text-anchor="middle" x="123" y="-892.4" font-family="Times Roman,serif" font-size="14.00" fill="gray">OSS_SNMP\MIB</text>
</g>
<!-- \\OSS_SNMP\\MIBS\\Asterisk\\Indications&#45;&gt;OSS_SNMP\\MIB -->
<g id="edge23" class="edge"><title>\\OSS_SNMP\\MIBS\\Asterisk\\Indications&#45;&gt;OSS_SNMP\\MIB</title>
<path fill="none" stroke="black" d="M318.271,-1042.65C309.989,-1039.23 301.581,-1035.32 294,-1031 238.264,-999.22 181.314,-950.285 149.229,-920.881"/>
<polygon fill="none" stroke="black" points="151.342,-918.068 141.623,-913.849 146.59,-923.208 151.342,-918.068"/>
</g>
<!-- \\OSS_SNMP\\MIBS\\Asterisk\\Channels -->
<g id="node18" class="node"><title>\\OSS_SNMP\\MIBS\\Asterisk\\Channels</title>
<a xlink:href="MIBS.Asterisk.Channels.html" xlink:title="Channels" target="_parent">
<polygon fill="none" stroke="black" points="399,-1022 329,-1022 329,-986 399,-986 399,-1022"/>
<text text-anchor="middle" x="364" y="-1001.1" font-family="Courier,monospace" font-size="11.00">Channels</text>
</a>
</g>
<!-- \\OSS_SNMP\\MIBS\\Asterisk\\Channels&#45;&gt;OSS_SNMP\\MIB -->
<g id="edge25" class="edge"><title>\\OSS_SNMP\\MIBS\\Asterisk\\Channels&#45;&gt;OSS_SNMP\\MIB</title>
<path fill="none" stroke="black" d="M328.355,-994.015C317.219,-990.573 304.979,-986.452 294,-982 247.555,-963.166 196.483,-936.674 162.357,-918.085"/>
<polygon fill="none" stroke="black" points="163.65,-914.802 153.199,-913.064 160.285,-920.94 163.65,-914.802"/>
</g>
<!-- \\OSS_SNMP\\MIBS\\Cisco\\RSTP -->
<g id="node20" class="node"><title>\\OSS_SNMP\\MIBS\\Cisco\\RSTP</title>
<a xlink:href="MIBS.Cisco.RSTP.html" xlink:title="RSTP" target="_parent">
<polygon fill="none" stroke="black" points="391,-624 337,-624 337,-588 391,-588 391,-624"/>
<text text-anchor="middle" x="364" y="-603.1" font-family="Courier,monospace" font-size="11.00">RSTP</text>
</a>
</g>
<!-- OSS_SNMP\\MIBS\\Cisco -->
<g id="node49" class="node"><title>OSS_SNMP\\MIBS\\Cisco</title>
<ellipse fill="none" stroke="black" cx="123" cy="-579" rx="121.83" ry="18.3848"/>
<text text-anchor="middle" x="123" y="-575.4" font-family="Times Roman,serif" font-size="14.00" fill="gray">OSS_SNMP\MIBS\Cisco</text>
</g>
<!-- \\OSS_SNMP\\MIBS\\Cisco\\RSTP&#45;&gt;OSS_SNMP\\MIBS\\Cisco -->
<g id="edge37" class="edge"><title>\\OSS_SNMP\\MIBS\\Cisco\\RSTP&#45;&gt;OSS_SNMP\\MIBS\\Cisco</title>
<path fill="none" stroke="black" d="M336.823,-602.955C310.889,-600.05 270.095,-595.479 231.06,-591.106"/>
<polygon fill="none" stroke="black" points="230.978,-587.575 220.65,-589.94 230.198,-594.532 230.978,-587.575"/>
</g>
<!-- \\OSS_SNMP\\MIBS\\Cisco\\VTP -->
<g id="node21" class="node"><title>\\OSS_SNMP\\MIBS\\Cisco\\VTP</title>
<a xlink:href="MIBS.Cisco.VTP.html" xlink:title="VTP" target="_parent">
<polygon fill="none" stroke="black" points="391,-570 337,-570 337,-534 391,-534 391,-570"/>
<text text-anchor="middle" x="364" y="-549.1" font-family="Courier,monospace" font-size="11.00">VTP</text>
</a>
</g>
<!-- \\OSS_SNMP\\MIBS\\Cisco\\VTP&#45;&gt;OSS_SNMP\\MIBS\\Cisco -->
<g id="edge39" class="edge"><title>\\OSS_SNMP\\MIBS\\Cisco\\VTP&#45;&gt;OSS_SNMP\\MIBS\\Cisco</title>
<path fill="none" stroke="black" d="M336.823,-555.045C310.889,-557.95 270.095,-562.521 231.06,-566.894"/>
<polygon fill="none" stroke="black" points="230.198,-563.468 220.65,-568.06 230.978,-570.425 230.198,-563.468"/>
</g>
<!-- \\OSS_SNMP\\MIBS\\Host -->
<g id="node22" class="node"><title>\\OSS_SNMP\\MIBS\\Host</title>
<a xlink:href="MIBS.Host.html" xlink:title="Host" target="_parent">
<polygon fill="none" stroke="black" points="391,-968 337,-968 337,-932 391,-932 391,-968"/>
<text text-anchor="middle" x="364" y="-947.1" font-family="Courier,monospace" font-size="11.00">Host</text>
</a>
</g>
<!-- \\OSS_SNMP\\MIBS\\Host&#45;&gt;OSS_SNMP\\MIB -->
<g id="edge17" class="edge"><title>\\OSS_SNMP\\MIBS\\Host&#45;&gt;OSS_SNMP\\MIB</title>
<path fill="none" stroke="black" d="M336.823,-943.91C302.115,-936.134 240.792,-922.393 192.692,-911.616"/>
<polygon fill="none" stroke="black" points="193.166,-908.135 182.643,-909.364 191.636,-914.966 193.166,-908.135"/>
</g>
<!-- \\OSS_SNMP\\MIBS\\System -->
<g id="node23" class="node"><title>\\OSS_SNMP\\MIBS\\System</title>
<a xlink:href="MIBS.System.html" xlink:title="System" target="_parent">
<polygon fill="none" stroke="black" points="392,-914 336,-914 336,-878 392,-878 392,-914"/>
<text text-anchor="middle" x="364" y="-893.1" font-family="Courier,monospace" font-size="11.00">System</text>
</a>
</g>
<!-- \\OSS_SNMP\\MIBS\\System&#45;&gt;OSS_SNMP\\MIB -->
<g id="edge19" class="edge"><title>\\OSS_SNMP\\MIBS\\System&#45;&gt;OSS_SNMP\\MIB</title>
<path fill="none" stroke="black" d="M335.408,-896C307.302,-896 262.773,-896 221.73,-896"/>
<polygon fill="none" stroke="black" points="221.659,-892.5 211.659,-896 221.659,-899.5 221.659,-892.5"/>
</g>
<!-- \\OSS_SNMP\\MIBS\\Bridge -->
<g id="node24" class="node"><title>\\OSS_SNMP\\MIBS\\Bridge</title>
<a xlink:href="MIBS.Bridge.html" xlink:title="Bridge" target="_parent">
<polygon fill="none" stroke="black" points="392,-860 336,-860 336,-824 392,-824 392,-860"/>
<text text-anchor="middle" x="364" y="-839.1" font-family="Courier,monospace" font-size="11.00">Bridge</text>
</a>
</g>
<!-- \\OSS_SNMP\\MIBS\\Bridge&#45;&gt;OSS_SNMP\\MIB -->
<g id="edge21" class="edge"><title>\\OSS_SNMP\\MIBS\\Bridge&#45;&gt;OSS_SNMP\\MIB</title>
<path fill="none" stroke="black" d="M335.408,-848.407C300.486,-856.231 240.21,-869.737 192.769,-880.367"/>
<polygon fill="none" stroke="black" points="191.846,-876.987 182.854,-882.589 193.377,-883.818 191.846,-876.987"/>
</g>
<!-- \\OSS_SNMP\\MIBS\\Entity -->
<g id="node25" class="node"><title>\\OSS_SNMP\\MIBS\\Entity</title>
<a xlink:href="MIBS.Entity.html" xlink:title="Entity" target="_parent">
<polygon fill="none" stroke="black" points="392,-806 336,-806 336,-770 392,-770 392,-806"/>
<text text-anchor="middle" x="364" y="-785.1" font-family="Courier,monospace" font-size="11.00">Entity</text>
</a>
</g>
<!-- \\OSS_SNMP\\MIBS\\Entity&#45;&gt;OSS_SNMP\\MIB -->
<g id="edge27" class="edge"><title>\\OSS_SNMP\\MIBS\\Entity&#45;&gt;OSS_SNMP\\MIB</title>
<path fill="none" stroke="black" d="M335.198,-798.559C322.481,-803.362 307.407,-809.248 294,-815 249.711,-834 200.025,-857.825 165.673,-874.704"/>
<polygon fill="none" stroke="black" points="163.83,-871.711 156.407,-879.271 166.924,-877.99 163.83,-871.711"/>
</g>
<!-- \\OSS_SNMP\\MIBS\\Iface -->
<g id="node26" class="node"><title>\\OSS_SNMP\\MIBS\\Iface</title>
<a xlink:href="MIBS.Iface.html" xlink:title="Iface" target="_parent">
<polygon fill="none" stroke="black" points="391,-752 337,-752 337,-716 391,-716 391,-752"/>
<text text-anchor="middle" x="364" y="-731.1" font-family="Courier,monospace" font-size="11.00">Iface</text>
</a>
</g>
<!-- \\OSS_SNMP\\MIBS\\Iface&#45;&gt;OSS_SNMP\\MIB -->
<g id="edge29" class="edge"><title>\\OSS_SNMP\\MIBS\\Iface&#45;&gt;OSS_SNMP\\MIB</title>
<path fill="none" stroke="black" d="M336.884,-742.325C323.538,-746.948 307.465,-753.322 294,-761 238.264,-792.78 181.314,-841.715 149.229,-871.119"/>
<polygon fill="none" stroke="black" points="146.59,-868.792 141.623,-878.151 151.342,-873.932 146.59,-868.792"/>
</g>
<!-- \\OSS_SNMP\\MIBS\\Asterisk -->
<g id="node27" class="node"><title>\\OSS_SNMP\\MIBS\\Asterisk</title>
<a xlink:href="MIBS.Asterisk.html" xlink:title="Asterisk" target="_parent">
<polygon fill="none" stroke="black" points="399,-698 329,-698 329,-662 399,-662 399,-698"/>
<text text-anchor="middle" x="364" y="-677.1" font-family="Courier,monospace" font-size="11.00">Asterisk</text>
</a>
</g>
<!-- \\OSS_SNMP\\MIBS\\Asterisk&#45;&gt;OSS_SNMP\\MIB -->
<g id="edge31" class="edge"><title>\\OSS_SNMP\\MIBS\\Asterisk&#45;&gt;OSS_SNMP\\MIB</title>
<path fill="none" stroke="black" d="M328.228,-690.162C316.729,-694.355 304.308,-699.921 294,-707 227.363,-752.76 168.752,-829.456 140.646,-869.633"/>
<polygon fill="none" stroke="black" points="137.606,-867.876 134.802,-878.093 143.366,-871.855 137.606,-867.876"/>
</g>
<!-- \\OSS_SNMP\\MIBS\\LAG -->
<g id="node28" class="node"><title>\\OSS_SNMP\\MIBS\\LAG</title>
<a xlink:href="MIBS.LAG.html" xlink:title="LAG" target="_parent">
<polygon fill="none" stroke="black" points="391,-1150 337,-1150 337,-1114 391,-1114 391,-1150"/>
<text text-anchor="middle" x="364" y="-1129.1" font-family="Courier,monospace" font-size="11.00">LAG</text>
</a>
</g>
<!-- \\OSS_SNMP\\MIBS\\LAG&#45;&gt;OSS_SNMP\\MIB -->
<g id="edge33" class="edge"><title>\\OSS_SNMP\\MIBS\\LAG&#45;&gt;OSS_SNMP\\MIB</title>
<path fill="none" stroke="black" d="M336.741,-1127.37C323.051,-1124.1 306.717,-1118.71 294,-1110 220.374,-1059.57 162.806,-968.086 137.314,-922.832"/>
<polygon fill="none" stroke="black" points="140.277,-920.958 132.367,-913.909 134.155,-924.352 140.277,-920.958"/>
</g>
<!-- \\OSS_SNMP\\Cache -->
<g id="node31" class="node"><title>\\OSS_SNMP\\Cache</title>
<a xlink:href="Cache.html" xlink:title="Cache" target="_parent">
<polygon fill="none" stroke="black" points="391,-510 337,-510 337,-474 391,-474 391,-510"/>
<text text-anchor="middle" x="364" y="-489.1" font-family="Courier,monospace" font-size="11.00">Cache</text>
</a>
</g>
<!-- \\OSS_SNMP\\Exception -->
<g id="node32" class="node"><title>\\OSS_SNMP\\Exception</title>
<a xlink:href="Exception.html" xlink:title="Exception" target="_parent">
<polygon fill="none" stroke="black" points="402,-456 326,-456 326,-420 402,-420 402,-456"/>
<text text-anchor="middle" x="364" y="-435.1" font-family="Courier,monospace" font-size="11.00">Exception</text>
</a>
</g>
<!-- Exception -->
<g id="node57" class="node"><title>Exception</title>
<ellipse fill="none" stroke="black" cx="123" cy="-438" rx="58.8978" ry="18.3848"/>
<text text-anchor="middle" x="123" y="-434.4" font-family="Times Roman,serif" font-size="14.00" fill="gray">Exception</text>
</g>
<!-- \\OSS_SNMP\\Exception&#45;&gt;Exception -->
<g id="edge47" class="edge"><title>\\OSS_SNMP\\Exception&#45;&gt;Exception</title>
<path fill="none" stroke="black" d="M325.279,-438C289.68,-438 236.05,-438 192.955,-438"/>
<polygon fill="none" stroke="black" points="192.808,-434.5 182.808,-438 192.808,-441.5 192.808,-434.5"/>
</g>
<!-- \\OSS_SNMP\\MIB -->
<g id="node33" class="node"><title>\\OSS_SNMP\\MIB</title>
<a xlink:href="MIB.html" xlink:title="MIB" target="_parent">
<polygon fill="none" stroke="black" points="391,-402 337,-402 337,-366 391,-366 391,-402"/>
<text text-anchor="middle" x="364" y="-381.1" font-family="Courier,monospace" font-size="11.00">MIB</text>
</a>
</g>
<!-- \\OSS_SNMP\\SNMP -->
<g id="node34" class="node"><title>\\OSS_SNMP\\SNMP</title>
<a xlink:href="SNMP.html" xlink:title="SNMP" target="_parent">
<polygon fill="none" stroke="black" points="391,-348 337,-348 337,-312 391,-312 391,-348"/>
<text text-anchor="middle" x="364" y="-327.1" font-family="Courier,monospace" font-size="11.00">SNMP</text>
</a>
</g>
<!-- \\OSS_SNMP\\Timer -->
<g id="node35" class="node"><title>\\OSS_SNMP\\Timer</title>
<a xlink:href="Timer.html" xlink:title="Timer" target="_parent">
<polygon fill="none" stroke="black" points="391,-294 337,-294 337,-258 391,-258 391,-294"/>
<text text-anchor="middle" x="364" y="-273.1" font-family="Courier,monospace" font-size="11.00">Timer</text>
</a>
</g>
</g>
</svg>
