<?xml version="1.0" encoding="UTF-8" standalone="no"?>
<!DOCTYPE svg PUBLIC "-//W3C//DTD SVG 1.1//EN"
 "http://www.w3.org/Graphics/SVG/1.1/DTD/svg11.dtd">
<!-- Generated by graphviz version 2.26.3 (20100126.1600)
 -->
<!-- Title: G Pages: 1 -->
<svg width="450pt" height="1282pt"
 viewBox="0.00 0.00 450.00 1282.00" xmlns="http://www.w3.org/2000/svg" xmlns:xlink="http://www.w3.org/1999/xlink">
<g id="graph1" class="graph" transform="scale(1 1) rotate(0) translate(4 1278)">
<title>G</title>
<polygon fill="white" stroke="white" points="-4,5 -4,-1278 447,-1278 447,5 -4,5"/>
<g id="graph2" class="cluster"><title>cluster_OSS_SNMP</title>
<polyline fill="none" stroke="gray" points="306,-8 422,-8 "/>
<path fill="none" stroke="gray" d="M422,-8C428,-8 434,-14 434,-20"/>
<polyline fill="none" stroke="gray" points="434,-20 434,-1254 "/>
<path fill="none" stroke="gray" d="M434,-1254C434,-1260 428,-1266 422,-1266"/>
<polyline fill="none" stroke="gray" points="422,-1266 306,-1266 "/>
<path fill="none" stroke="gray" d="M306,-1266C300,-1266 294,-1260 294,-1254"/>
<polyline fill="none" stroke="gray" points="294,-1254 294,-20 "/>
<path fill="none" stroke="gray" d="M294,-20C294,-14 300,-8 306,-8"/>
<text text-anchor="middle" x="364" y="-1252.1" font-family="Times Roman,serif" font-size="11.00" fill="gray">OSS_SNMP</text>
</g>
<g id="graph3" class="cluster"><title>cluster_OSS_SNMP\Cache</title>
<polyline fill="none" stroke="gray" points="341,-1108 387,-1108 "/>
<path fill="none" stroke="gray" d="M387,-1108C393,-1108 399,-1114 399,-1120"/>
<polyline fill="none" stroke="gray" points="399,-1120 399,-1224 "/>
<path fill="none" stroke="gray" d="M399,-1224C399,-1230 393,-1236 387,-1236"/>
<polyline fill="none" stroke="gray" points="387,-1236 341,-1236 "/>
<path fill="none" stroke="gray" d="M341,-1236C335,-1236 329,-1230 329,-1224"/>
<polyline fill="none" stroke="gray" points="329,-1224 329,-1120 "/>
<path fill="none" stroke="gray" d="M329,-1120C329,-1114 335,-1108 341,-1108"/>
<text text-anchor="middle" x="364" y="-1222.1" font-family="Times Roman,serif" font-size="11.00" fill="gray">Cache</text>
</g>
<g id="graph4" class="cluster"><title>cluster_OSS_SNMP\MIBS</title>
<polyline fill="none" stroke="gray" points="314,-276 414,-276 "/>
<path fill="none" stroke="gray" d="M414,-276C420,-276 426,-282 426,-288"/>
<polyline fill="none" stroke="gray" points="426,-288 426,-1088 "/>
<path fill="none" stroke="gray" d="M426,-1088C426,-1094 420,-1100 414,-1100"/>
<polyline fill="none" stroke="gray" points="414,-1100 314,-1100 "/>
<path fill="none" stroke="gray" d="M314,-1100C308,-1100 302,-1094 302,-1088"/>
<polyline fill="none" stroke="gray" points="302,-1088 302,-288 "/>
<path fill="none" stroke="gray" d="M302,-288C302,-282 308,-276 314,-276"/>
<text text-anchor="middle" x="364" y="-1086.1" font-family="Times Roman,serif" font-size="11.00" fill="gray">MIBS</text>
</g>
<g id="graph5" class="cluster"><title>cluster_OSS_SNMP\MIBS\Asterisk</title>
<polyline fill="none" stroke="gray" points="322,-898 406,-898 "/>
<path fill="none" stroke="gray" d="M406,-898C412,-898 418,-904 418,-910"/>
<polyline fill="none" stroke="gray" points="418,-910 418,-1014 "/>
<path fill="none" stroke="gray" d="M418,-1014C418,-1020 412,-1026 406,-1026"/>
<polyline fill="none" stroke="gray" points="406,-1026 322,-1026 "/>
<path fill="none" stroke="gray" d="M322,-1026C316,-1026 310,-1020 310,-1014"/>
<polyline fill="none" stroke="gray" points="310,-1014 310,-910 "/>
<path fill="none" stroke="gray" d="M310,-910C310,-904 316,-898 322,-898"/>
<text text-anchor="middle" x="364" y="-1012.1" font-family="Times Roman,serif" font-size="11.00" fill="gray">Asterisk</text>
</g>
<g id="graph6" class="cluster"><title>cluster_OSS_SNMP\MIBS\Cisco</title>
<polyline fill="none" stroke="gray" points="341,-284 387,-284 "/>
<path fill="none" stroke="gray" d="M387,-284C393,-284 399,-290 399,-296"/>
<polyline fill="none" stroke="gray" points="399,-296 399,-454 "/>
<path fill="none" stroke="gray" d="M399,-454C399,-460 393,-466 387,-466"/>
<polyline fill="none" stroke="gray" points="387,-466 341,-466 "/>
<path fill="none" stroke="gray" d="M341,-466C335,-466 329,-460 329,-454"/>
<polyline fill="none" stroke="gray" points="329,-454 329,-296 "/>
<path fill="none" stroke="gray" d="M329,-296C329,-290 335,-284 341,-284"/>
<text text-anchor="middle" x="364" y="-452.1" font-family="Times Roman,serif" font-size="11.00" fill="gray">Cisco</text>
</g>
<!-- \\OSS_SNMP\\Cache\\APC -->
<g id="node3" class="node"><title>\\OSS_SNMP\\Cache\\APC</title>
<a xlink:href="Cache.APC.html" xlink:title="APC" target="_parent">
<polygon fill="none" stroke="black" points="391,-1206 337,-1206 337,-1170 391,-1170 391,-1206"/>
<text text-anchor="middle" x="364" y="-1185.1" font-family="Courier,monospace" font-size="11.00">APC</text>
</a>
</g>
<!-- OSS_SNMP\\Cache -->
<g id="node30" class="node"><title>OSS_SNMP\\Cache</title>
<ellipse fill="none" stroke="black" cx="123" cy="-1161" rx="98.9949" ry="18.3848"/>
<text text-anchor="middle" x="123" y="-1157.4" font-family="Times Roman,serif" font-size="14.00" fill="gray">OSS_SNMP\Cache</text>
</g>
<!-- \\OSS_SNMP\\Cache\\APC&#45;&gt;OSS_SNMP\\Cache -->
<g id="edge9" class="edge"><title>\\OSS_SNMP\\Cache\\APC&#45;&gt;OSS_SNMP\\Cache</title>
<path fill="none" stroke="black" d="M336.823,-1184.96C307.876,-1181.71 260.416,-1176.4 217.554,-1171.59"/>
<polygon fill="none" stroke="black" points="217.673,-1168.08 207.346,-1170.45 216.894,-1175.04 217.673,-1168.08"/>
</g>
<!-- \\OSS_SNMP\\Cache\\Basic -->
<g id="node4" class="node"><title>\\OSS_SNMP\\Cache\\Basic</title>
<a xlink:href="Cache.Basic.html" xlink:title="Basic" target="_parent">
<polygon fill="none" stroke="black" points="391,-1152 337,-1152 337,-1116 391,-1116 391,-1152"/>
<text text-anchor="middle" x="364" y="-1131.1" font-family="Courier,monospace" font-size="11.00">Basic</text>
</a>
</g>
<!-- \\OSS_SNMP\\Cache\\Basic&#45;&gt;OSS_SNMP\\Cache -->
<g id="edge11" class="edge"><title>\\OSS_SNMP\\Cache\\Basic&#45;&gt;OSS_SNMP\\Cache</title>
<path fill="none" stroke="black" d="M336.823,-1137.04C307.876,-1140.29 260.416,-1145.6 217.554,-1150.41"/>
<polygon fill="none" stroke="black" points="216.894,-1146.96 207.346,-1151.55 217.673,-1153.92 216.894,-1146.96"/>
</g>
<!-- \\OSS_SNMP\\MIBS\\Asterisk\\Indications -->
<g id="node7" class="node"><title>\\OSS_SNMP\\MIBS\\Asterisk\\Indications</title>
<a xlink:href="MIBS.Asterisk.Indications.html" xlink:title="Indications" target="_parent">
<polygon fill="none" stroke="black" points="409,-996 319,-996 319,-960 409,-960 409,-996"/>
<text text-anchor="middle" x="364" y="-975.1" font-family="Courier,monospace" font-size="11.00">Indications</text>
</a>
</g>
<!-- OSS_SNMP\\MIB -->
<g id="node33" class="node"><title>OSS_SNMP\\MIB</title>
<ellipse fill="none" stroke="black" cx="123" cy="-762" rx="87.889" ry="18.3848"/>
<text text-anchor="middle" x="123" y="-758.4" font-family="Times Roman,serif" font-size="14.00" fill="gray">OSS_SNMP\MIB</text>
</g>
<!-- \\OSS_SNMP\\MIBS\\Asterisk\\Indications&#45;&gt;OSS_SNMP\\MIB -->
<g id="edge21" class="edge"><title>\\OSS_SNMP\\MIBS\\Asterisk\\Indications&#45;&gt;OSS_SNMP\\MIB</title>
<path fill="none" stroke="black" d="M318.374,-963.971C309.909,-960.394 301.409,-956.088 294,-951 227.363,-905.24 168.752,-828.544 140.646,-788.367"/>
<polygon fill="none" stroke="black" points="143.366,-786.145 134.802,-779.907 137.606,-790.124 143.366,-786.145"/>
</g>
<!-- \\OSS_SNMP\\MIBS\\Asterisk\\Channels -->
<g id="node8" class="node"><title>\\OSS_SNMP\\MIBS\\Asterisk\\Channels</title>
<a xlink:href="MIBS.Asterisk.Channels.html" xlink:title="Channels" target="_parent">
<polygon fill="none" stroke="black" points="399,-942 329,-942 329,-906 399,-906 399,-942"/>
<text text-anchor="middle" x="364" y="-921.1" font-family="Courier,monospace" font-size="11.00">Channels</text>
</a>
</g>
<!-- \\OSS_SNMP\\MIBS\\Asterisk\\Channels&#45;&gt;OSS_SNMP\\MIB -->
<g id="edge23" class="edge"><title>\\OSS_SNMP\\MIBS\\Asterisk\\Channels&#45;&gt;OSS_SNMP\\MIB</title>
<path fill="none" stroke="black" d="M328.399,-915.665C317.033,-912.264 304.648,-907.752 294,-902 236.116,-870.732 179.058,-818.542 147.687,-787.485"/>
<polygon fill="none" stroke="black" points="149.824,-784.672 140.28,-780.07 144.871,-789.619 149.824,-784.672"/>
</g>
<!-- \\OSS_SNMP\\MIBS\\Cisco\\CDP -->
<g id="node10" class="node"><title>\\OSS_SNMP\\MIBS\\Cisco\\CDP</title>
<a xlink:href="MIBS.Cisco.CDP.html" xlink:title="CDP" target="_parent">
<polygon fill="none" stroke="black" points="391,-436 337,-436 337,-400 391,-400 391,-436"/>
<text text-anchor="middle" x="364" y="-415.1" font-family="Courier,monospace" font-size="11.00">CDP</text>
</a>
</g>
<!-- OSS_SNMP\\MIBS\\Cisco -->
<g id="node45" class="node"><title>OSS_SNMP\\MIBS\\Cisco</title>
<ellipse fill="none" stroke="black" cx="123" cy="-364" rx="121.83" ry="18.3848"/>
<text text-anchor="middle" x="123" y="-360.4" font-family="Times Roman,serif" font-size="14.00" fill="gray">OSS_SNMP\MIBS\Cisco</text>
</g>
<!-- \\OSS_SNMP\\MIBS\\Cisco\\CDP&#45;&gt;OSS_SNMP\\MIBS\\Cisco -->
<g id="edge35" class="edge"><title>\\OSS_SNMP\\MIBS\\Cisco\\CDP&#45;&gt;OSS_SNMP\\MIBS\\Cisco</title>
<path fill="none" stroke="black" d="M336.823,-411.91C303.896,-404.533 247.017,-391.788 200.197,-381.297"/>
<polygon fill="none" stroke="black" points="200.895,-377.867 190.372,-379.096 199.364,-384.698 200.895,-377.867"/>
</g>
<!-- \\OSS_SNMP\\MIBS\\Cisco\\VTP -->
<g id="node11" class="node"><title>\\OSS_SNMP\\MIBS\\Cisco\\VTP</title>
<a xlink:href="MIBS.Cisco.VTP.html" xlink:title="VTP" target="_parent">
<polygon fill="none" stroke="black" points="391,-382 337,-382 337,-346 391,-346 391,-382"/>
<text text-anchor="middle" x="364" y="-361.1" font-family="Courier,monospace" font-size="11.00">VTP</text>
</a>
</g>
<!-- \\OSS_SNMP\\MIBS\\Cisco\\VTP&#45;&gt;OSS_SNMP\\MIBS\\Cisco -->
<g id="edge37" class="edge"><title>\\OSS_SNMP\\MIBS\\Cisco\\VTP&#45;&gt;OSS_SNMP\\MIBS\\Cisco</title>
<path fill="none" stroke="black" d="M336.823,-364C316.329,-364 286.555,-364 255.703,-364"/>
<polygon fill="none" stroke="black" points="255.659,-360.5 245.659,-364 255.659,-367.5 255.659,-360.5"/>
</g>
<!-- \\OSS_SNMP\\MIBS\\Cisco\\RSTP -->
<g id="node12" class="node"><title>\\OSS_SNMP\\MIBS\\Cisco\\RSTP</title>
<a xlink:href="MIBS.Cisco.RSTP.html" xlink:title="RSTP" target="_parent">
<polygon fill="none" stroke="black" points="391,-328 337,-328 337,-292 391,-292 391,-328"/>
<text text-anchor="middle" x="364" y="-307.1" font-family="Courier,monospace" font-size="11.00">RSTP</text>
</a>
</g>
<!-- \\OSS_SNMP\\MIBS\\Cisco\\RSTP&#45;&gt;OSS_SNMP\\MIBS\\Cisco -->
<g id="edge39" class="edge"><title>\\OSS_SNMP\\MIBS\\Cisco\\RSTP&#45;&gt;OSS_SNMP\\MIBS\\Cisco</title>
<path fill="none" stroke="black" d="M336.823,-316.09C303.896,-323.467 247.017,-336.212 200.197,-346.703"/>
<polygon fill="none" stroke="black" points="199.364,-343.302 190.372,-348.904 200.895,-350.133 199.364,-343.302"/>
</g>
<!-- \\OSS_SNMP\\MIBS\\Iface -->
<g id="node13" class="node"><title>\\OSS_SNMP\\MIBS\\Iface</title>
<a xlink:href="MIBS.Iface.html" xlink:title="Iface" target="_parent">
<polygon fill="none" stroke="black" points="391,-888 337,-888 337,-852 391,-852 391,-888"/>
<text text-anchor="middle" x="364" y="-867.1" font-family="Courier,monospace" font-size="11.00">Iface</text>
</a>
</g>
<!-- \\OSS_SNMP\\MIBS\\Iface&#45;&gt;OSS_SNMP\\MIB -->
<g id="edge13" class="edge"><title>\\OSS_SNMP\\MIBS\\Iface&#45;&gt;OSS_SNMP\\MIB</title>
<path fill="none" stroke="black" d="M336.886,-860.078C323.83,-855.164 308.005,-849.008 294,-843 249.711,-824 200.025,-800.175 165.673,-783.296"/>
<polygon fill="none" stroke="black" points="166.924,-780.01 156.407,-778.729 163.83,-786.289 166.924,-780.01"/>
</g>
<!-- \\OSS_SNMP\\MIBS\\Bridge -->
<g id="node14" class="node"><title>\\OSS_SNMP\\MIBS\\Bridge</title>
<a xlink:href="MIBS.Bridge.html" xlink:title="Bridge" target="_parent">
<polygon fill="none" stroke="black" points="392,-834 336,-834 336,-798 392,-798 392,-834"/>
<text text-anchor="middle" x="364" y="-813.1" font-family="Courier,monospace" font-size="11.00">Bridge</text>
</a>
</g>
<!-- \\OSS_SNMP\\MIBS\\Bridge&#45;&gt;OSS_SNMP\\MIB -->
<g id="edge15" class="edge"><title>\\OSS_SNMP\\MIBS\\Bridge&#45;&gt;OSS_SNMP\\MIB</title>
<path fill="none" stroke="black" d="M335.408,-809.593C300.486,-801.769 240.21,-788.263 192.769,-777.633"/>
<polygon fill="none" stroke="black" points="193.377,-774.182 182.854,-775.411 191.846,-781.013 193.377,-774.182"/>
</g>
<!-- \\OSS_SNMP\\MIBS\\LAG -->
<g id="node15" class="node"><title>\\OSS_SNMP\\MIBS\\LAG</title>
<a xlink:href="MIBS.LAG.html" xlink:title="LAG" target="_parent">
<polygon fill="none" stroke="black" points="391,-780 337,-780 337,-744 391,-744 391,-780"/>
<text text-anchor="middle" x="364" y="-759.1" font-family="Courier,monospace" font-size="11.00">LAG</text>
</a>
</g>
<!-- \\OSS_SNMP\\MIBS\\LAG&#45;&gt;OSS_SNMP\\MIB -->
<g id="edge17" class="edge"><title>\\OSS_SNMP\\MIBS\\LAG&#45;&gt;OSS_SNMP\\MIB</title>
<path fill="none" stroke="black" d="M336.823,-762C308.847,-762 263.578,-762 221.881,-762"/>
<polygon fill="none" stroke="black" points="221.651,-758.5 211.651,-762 221.651,-765.5 221.651,-758.5"/>
</g>
<!-- \\OSS_SNMP\\MIBS\\Cisco -->
<g id="node16" class="node"><title>\\OSS_SNMP\\MIBS\\Cisco</title>
<a xlink:href="MIBS.Cisco.html" xlink:title="Cisco" target="_parent">
<polygon fill="none" stroke="black" points="391,-726 337,-726 337,-690 391,-690 391,-726"/>
<text text-anchor="middle" x="364" y="-705.1" font-family="Courier,monospace" font-size="11.00">Cisco</text>
</a>
</g>
<!-- \\OSS_SNMP\\MIBS\\Cisco&#45;&gt;OSS_SNMP\\MIB -->
<g id="edge19" class="edge"><title>\\OSS_SNMP\\MIBS\\Cisco&#45;&gt;OSS_SNMP\\MIB</title>
<path fill="none" stroke="black" d="M336.823,-714.09C302.115,-721.866 240.792,-735.607 192.692,-746.384"/>
<polygon fill="none" stroke="black" points="191.636,-743.034 182.643,-748.636 193.166,-749.865 191.636,-743.034"/>
</g>
<!-- \\OSS_SNMP\\MIBS\\Entity -->
<g id="node17" class="node"><title>\\OSS_SNMP\\MIBS\\Entity</title>
<a xlink:href="MIBS.Entity.html" xlink:title="Entity" target="_parent">
<polygon fill="none" stroke="black" points="392,-672 336,-672 336,-636 392,-636 392,-672"/>
<text text-anchor="middle" x="364" y="-651.1" font-family="Courier,monospace" font-size="11.00">Entity</text>
</a>
</g>
<!-- \\OSS_SNMP\\MIBS\\Entity&#45;&gt;OSS_SNMP\\MIB -->
<g id="edge25" class="edge"><title>\\OSS_SNMP\\MIBS\\Entity&#45;&gt;OSS_SNMP\\MIB</title>
<path fill="none" stroke="black" d="M335.198,-664.559C322.481,-669.362 307.407,-675.248 294,-681 249.711,-700 200.025,-723.825 165.673,-740.704"/>
<polygon fill="none" stroke="black" points="163.83,-737.711 156.407,-745.271 166.924,-743.99 163.83,-737.711"/>
</g>
<!-- \\OSS_SNMP\\MIBS\\System -->
<g id="node18" class="node"><title>\\OSS_SNMP\\MIBS\\System</title>
<a xlink:href="MIBS.System.html" xlink:title="System" target="_parent">
<polygon fill="none" stroke="black" points="392,-618 336,-618 336,-582 392,-582 392,-618"/>
<text text-anchor="middle" x="364" y="-597.1" font-family="Courier,monospace" font-size="11.00">System</text>
</a>
</g>
<!-- \\OSS_SNMP\\MIBS\\System&#45;&gt;OSS_SNMP\\MIB -->
<g id="edge27" class="edge"><title>\\OSS_SNMP\\MIBS\\System&#45;&gt;OSS_SNMP\\MIB</title>
<path fill="none" stroke="black" d="M335.187,-608.917C322.192,-613.486 306.899,-619.645 294,-627 238.264,-658.78 181.314,-707.715 149.229,-737.119"/>
<polygon fill="none" stroke="black" points="146.59,-734.792 141.623,-744.151 151.342,-739.932 146.59,-734.792"/>
</g>
<!-- \\OSS_SNMP\\MIBS\\BGP -->
<g id="node19" class="node"><title>\\OSS_SNMP\\MIBS\\BGP</title>
<a xlink:href="MIBS.BGP.html" xlink:title="BGP" target="_parent">
<polygon fill="none" stroke="black" points="391,-564 337,-564 337,-528 391,-528 391,-564"/>
<text text-anchor="middle" x="364" y="-543.1" font-family="Courier,monospace" font-size="11.00">BGP</text>
</a>
</g>
<!-- \\OSS_SNMP\\MIBS\\BGP&#45;&gt;OSS_SNMP\\MIB -->
<g id="edge29" class="edge"><title>\\OSS_SNMP\\MIBS\\BGP&#45;&gt;OSS_SNMP\\MIB</title>
<path fill="none" stroke="black" d="M336.971,-553.163C323.341,-557.558 306.992,-564.078 294,-573 227.363,-618.76 168.752,-695.456 140.646,-735.633"/>
<polygon fill="none" stroke="black" points="137.606,-733.876 134.802,-744.093 143.366,-737.855 137.606,-733.876"/>
</g>
<!-- \\OSS_SNMP\\MIBS\\Asterisk -->
<g id="node20" class="node"><title>\\OSS_SNMP\\MIBS\\Asterisk</title>
<a xlink:href="MIBS.Asterisk.html" xlink:title="Asterisk" target="_parent">
<polygon fill="none" stroke="black" points="399,-510 329,-510 329,-474 399,-474 399,-510"/>
<text text-anchor="middle" x="364" y="-489.1" font-family="Courier,monospace" font-size="11.00">Asterisk</text>
</a>
</g>
<!-- \\OSS_SNMP\\MIBS\\Asterisk&#45;&gt;OSS_SNMP\\MIB -->
<g id="edge31" class="edge"><title>\\OSS_SNMP\\MIBS\\Asterisk&#45;&gt;OSS_SNMP\\MIB</title>
<path fill="none" stroke="black" d="M328.419,-501.183C316.678,-505.347 304.062,-511.145 294,-519 216.234,-579.712 159.224,-685.333 135.36,-734.879"/>
<polygon fill="none" stroke="black" points="132.152,-733.475 131.032,-744.011 138.478,-736.473 132.152,-733.475"/>
</g>
<!-- \\OSS_SNMP\\MIBS\\Host -->
<g id="node21" class="node"><title>\\OSS_SNMP\\MIBS\\Host</title>
<a xlink:href="MIBS.Host.html" xlink:title="Host" target="_parent">
<polygon fill="none" stroke="black" points="391,-1070 337,-1070 337,-1034 391,-1034 391,-1070"/>
<text text-anchor="middle" x="364" y="-1049.1" font-family="Courier,monospace" font-size="11.00">Host</text>
</a>
</g>
<!-- \\OSS_SNMP\\MIBS\\Host&#45;&gt;OSS_SNMP\\MIB -->
<g id="edge33" class="edge"><title>\\OSS_SNMP\\MIBS\\Host&#45;&gt;OSS_SNMP\\MIB</title>
<path fill="none" stroke="black" d="M336.682,-1048C322.814,-1044.89 306.337,-1039.45 294,-1030 208.796,-964.731 154.365,-843.975 133.121,-789.695"/>
<polygon fill="none" stroke="black" points="136.276,-788.145 129.428,-780.061 129.74,-790.651 136.276,-788.145"/>
</g>
<!-- \\OSS_SNMP\\Cache -->
<g id="node24" class="node"><title>\\OSS_SNMP\\Cache</title>
<a xlink:href="Cache.html" xlink:title="Cache" target="_parent">
<polygon fill="none" stroke="black" points="391,-268 337,-268 337,-232 391,-232 391,-268"/>
<text text-anchor="middle" x="364" y="-247.1" font-family="Courier,monospace" font-size="11.00">Cache</text>
</a>
</g>
<!-- \\OSS_SNMP\\Timer -->
<g id="node25" class="node"><title>\\OSS_SNMP\\Timer</title>
<a xlink:href="Timer.html" xlink:title="Timer" target="_parent">
<polygon fill="none" stroke="black" points="391,-214 337,-214 337,-178 391,-178 391,-214"/>
<text text-anchor="middle" x="364" y="-193.1" font-family="Courier,monospace" font-size="11.00">Timer</text>
</a>
</g>
<!-- \\OSS_SNMP\\SNMP -->
<g id="node26" class="node"><title>\\OSS_SNMP\\SNMP</title>
<a xlink:href="SNMP.html" xlink:title="SNMP" target="_parent">
<polygon fill="none" stroke="black" points="391,-160 337,-160 337,-124 391,-124 391,-160"/>
<text text-anchor="middle" x="364" y="-139.1" font-family="Courier,monospace" font-size="11.00">SNMP</text>
</a>
</g>
<!-- \\OSS_SNMP\\MIB -->
<g id="node27" class="node"><title>\\OSS_SNMP\\MIB</title>
<a xlink:href="MIB.html" xlink:title="MIB" target="_parent">
<polygon fill="none" stroke="black" points="391,-106 337,-106 337,-70 391,-70 391,-106"/>
<text text-anchor="middle" x="364" y="-85.1" font-family="Courier,monospace" font-size="11.00">MIB</text>
</a>
</g>
<!-- \\OSS_SNMP\\Exception -->
<g id="node28" class="node"><title>\\OSS_SNMP\\Exception</title>
<a xlink:href="Exception.html" xlink:title="Exception" target="_parent">
<polygon fill="none" stroke="black" points="402,-52 326,-52 326,-16 402,-16 402,-52"/>
<text text-anchor="middle" x="364" y="-31.1" font-family="Courier,monospace" font-size="11.00">Exception</text>
</a>
</g>
<!-- Exception -->
<g id="node49" class="node"><title>Exception</title>
<ellipse fill="none" stroke="black" cx="123" cy="-34" rx="58.8978" ry="18.3848"/>
<text text-anchor="middle" x="123" y="-30.4" font-family="Times Roman,serif" font-size="14.00" fill="gray">Exception</text>
</g>
<!-- \\OSS_SNMP\\Exception&#45;&gt;Exception -->
<g id="edge41" class="edge"><title>\\OSS_SNMP\\Exception&#45;&gt;Exception</title>
<path fill="none" stroke="black" d="M325.279,-34C289.68,-34 236.05,-34 192.955,-34"/>
<polygon fill="none" stroke="black" points="192.808,-30.5001 182.808,-34 192.808,-37.5001 192.808,-30.5001"/>
</g>
</g>
</svg>
