<?xml version="1.0" encoding="UTF-8" standalone="no"?>
<!DOCTYPE svg PUBLIC "-//W3C//DTD SVG 1.1//EN"
 "http://www.w3.org/Graphics/SVG/1.1/DTD/svg11.dtd">
<!-- Generated by graphviz version 2.26.3 (20100126.1600)
 -->
<!-- Title: G Pages: 1 -->
<svg width="426pt" height="918pt"
 viewBox="0.00 0.00 426.00 918.00" xmlns="http://www.w3.org/2000/svg" xmlns:xlink="http://www.w3.org/1999/xlink">
<g id="graph1" class="graph" transform="scale(1 1) rotate(0) translate(4 914)">
<title>G</title>
<polygon fill="white" stroke="white" points="-4,5 -4,-914 423,-914 423,5 -4,5"/>
<g id="graph2" class="cluster"><title>cluster_OSS</title>
<polyline fill="none" stroke="gray" points="304,-8 398,-8 "/>
<path fill="none" stroke="gray" d="M398,-8C404,-8 410,-14 410,-20"/>
<polyline fill="none" stroke="gray" points="410,-20 410,-890 "/>
<path fill="none" stroke="gray" d="M410,-890C410,-896 404,-902 398,-902"/>
<polyline fill="none" stroke="gray" points="398,-902 304,-902 "/>
<path fill="none" stroke="gray" d="M304,-902C298,-902 292,-896 292,-890"/>
<polyline fill="none" stroke="gray" points="292,-890 292,-20 "/>
<path fill="none" stroke="gray" d="M292,-20C292,-14 298,-8 304,-8"/>
<text text-anchor="middle" x="351" y="-888.1" font-family="Times Roman,serif" font-size="11.00" fill="gray">OSS</text>
</g>
<g id="graph3" class="cluster"><title>cluster_OSS\Cache</title>
<polyline fill="none" stroke="gray" points="328,-798 374,-798 "/>
<path fill="none" stroke="gray" d="M374,-798C380,-798 386,-804 386,-810"/>
<polyline fill="none" stroke="gray" points="386,-810 386,-860 "/>
<path fill="none" stroke="gray" d="M386,-860C386,-866 380,-872 374,-872"/>
<polyline fill="none" stroke="gray" points="374,-872 328,-872 "/>
<path fill="none" stroke="gray" d="M328,-872C322,-872 316,-866 316,-860"/>
<polyline fill="none" stroke="gray" points="316,-860 316,-810 "/>
<path fill="none" stroke="gray" d="M316,-810C316,-804 322,-798 328,-798"/>
<text text-anchor="middle" x="351" y="-858.1" font-family="Times Roman,serif" font-size="11.00" fill="gray">Cache</text>
</g>
<g id="graph4" class="cluster"><title>cluster_OSS\SNMP</title>
<polyline fill="none" stroke="gray" points="312,-224 390,-224 "/>
<path fill="none" stroke="gray" d="M390,-224C396,-224 402,-230 402,-236"/>
<polyline fill="none" stroke="gray" points="402,-236 402,-778 "/>
<path fill="none" stroke="gray" d="M402,-778C402,-784 396,-790 390,-790"/>
<polyline fill="none" stroke="gray" points="390,-790 312,-790 "/>
<path fill="none" stroke="gray" d="M312,-790C306,-790 300,-784 300,-778"/>
<polyline fill="none" stroke="gray" points="300,-778 300,-236 "/>
<path fill="none" stroke="gray" d="M300,-236C300,-230 306,-224 312,-224"/>
<text text-anchor="middle" x="351" y="-776.1" font-family="Times Roman,serif" font-size="11.00" fill="gray">SNMP</text>
</g>
<g id="graph5" class="cluster"><title>cluster_OSS\SNMP\MIBS</title>
<polyline fill="none" stroke="gray" points="320,-278 382,-278 "/>
<path fill="none" stroke="gray" d="M382,-278C388,-278 394,-284 394,-290"/>
<polyline fill="none" stroke="gray" points="394,-290 394,-748 "/>
<path fill="none" stroke="gray" d="M394,-748C394,-754 388,-760 382,-760"/>
<polyline fill="none" stroke="gray" points="382,-760 320,-760 "/>
<path fill="none" stroke="gray" d="M320,-760C314,-760 308,-754 308,-748"/>
<polyline fill="none" stroke="gray" points="308,-748 308,-290 "/>
<path fill="none" stroke="gray" d="M308,-290C308,-284 314,-278 320,-278"/>
<text text-anchor="middle" x="351" y="-746.1" font-family="Times Roman,serif" font-size="11.00" fill="gray">MIBS</text>
</g>
<g id="graph6" class="cluster"><title>cluster_OSS\SNMP\MIBS\Cisco</title>
<polyline fill="none" stroke="gray" points="328,-548 374,-548 "/>
<path fill="none" stroke="gray" d="M374,-548C380,-548 386,-554 386,-560"/>
<polyline fill="none" stroke="gray" points="386,-560 386,-718 "/>
<path fill="none" stroke="gray" d="M386,-718C386,-724 380,-730 374,-730"/>
<polyline fill="none" stroke="gray" points="374,-730 328,-730 "/>
<path fill="none" stroke="gray" d="M328,-730C322,-730 316,-724 316,-718"/>
<polyline fill="none" stroke="gray" points="316,-718 316,-560 "/>
<path fill="none" stroke="gray" d="M316,-560C316,-554 322,-548 328,-548"/>
<text text-anchor="middle" x="351" y="-716.1" font-family="Times Roman,serif" font-size="11.00" fill="gray">Cisco</text>
</g>
<!-- \\OSS\\Cache\\Basic -->
<g id="node3" class="node"><title>\\OSS\\Cache\\Basic</title>
<a xlink:href="Cache.Basic.html" xlink:title="Basic" target="_parent">
<polygon fill="none" stroke="black" points="378,-842 324,-842 324,-806 378,-806 378,-842"/>
<text text-anchor="middle" x="351" y="-821.1" font-family="Courier,monospace" font-size="11.00">Basic</text>
</a>
</g>
<!-- OSS\\Cache -->
<g id="node25" class="node"><title>OSS\\Cache</title>
<ellipse fill="none" stroke="black" cx="120" cy="-824" rx="65.0538" ry="18.3848"/>
<text text-anchor="middle" x="120" y="-820.4" font-family="Times Roman,serif" font-size="14.00" fill="gray">OSS\Cache</text>
</g>
<!-- \\OSS\\Cache\\Basic&#45;&gt;OSS\\Cache -->
<g id="edge11" class="edge"><title>\\OSS\\Cache\\Basic&#45;&gt;OSS\\Cache</title>
<path fill="none" stroke="black" d="M323.594,-824C292.217,-824 239.483,-824 195.547,-824"/>
<polygon fill="none" stroke="black" points="195.455,-820.5 185.455,-824 195.454,-827.5 195.455,-820.5"/>
</g>
<!-- \\OSS\\SNMP\\MIBS\\Cisco\\CDP -->
<g id="node7" class="node"><title>\\OSS\\SNMP\\MIBS\\Cisco\\CDP</title>
<a xlink:href="SNMP.MIBS.Cisco.CDP.html" xlink:title="CDP" target="_parent">
<polygon fill="none" stroke="black" points="378,-700 324,-700 324,-664 378,-664 378,-700"/>
<text text-anchor="middle" x="351" y="-679.1" font-family="Courier,monospace" font-size="11.00">CDP</text>
</a>
</g>
<!-- OSS\\SNMP\\MIBS\\Cisco -->
<g id="node33" class="node"><title>OSS\\SNMP\\MIBS\\Cisco</title>
<ellipse fill="none" stroke="black" cx="120" cy="-628" rx="120.208" ry="18.3848"/>
<text text-anchor="middle" x="120" y="-624.4" font-family="Times Roman,serif" font-size="14.00" fill="gray">OSS\SNMP\MIBS\Cisco</text>
</g>
<!-- \\OSS\\SNMP\\MIBS\\Cisco\\CDP&#45;&gt;OSS\\SNMP\\MIBS\\Cisco -->
<g id="edge23" class="edge"><title>\\OSS\\SNMP\\MIBS\\Cisco\\CDP&#45;&gt;OSS\\SNMP\\MIBS\\Cisco</title>
<path fill="none" stroke="black" d="M323.594,-675.593C292.04,-668.217 238.887,-655.792 194.804,-645.487"/>
<polygon fill="none" stroke="black" points="195.505,-642.056 184.971,-643.188 193.911,-648.872 195.505,-642.056"/>
</g>
<!-- \\OSS\\SNMP\\MIBS\\Cisco\\VTP -->
<g id="node8" class="node"><title>\\OSS\\SNMP\\MIBS\\Cisco\\VTP</title>
<a xlink:href="SNMP.MIBS.Cisco.VTP.html" xlink:title="VTP" target="_parent">
<polygon fill="none" stroke="black" points="378,-646 324,-646 324,-610 378,-610 378,-646"/>
<text text-anchor="middle" x="351" y="-625.1" font-family="Courier,monospace" font-size="11.00">VTP</text>
</a>
</g>
<!-- \\OSS\\SNMP\\MIBS\\Cisco\\VTP&#45;&gt;OSS\\SNMP\\MIBS\\Cisco -->
<g id="edge25" class="edge"><title>\\OSS\\SNMP\\MIBS\\Cisco\\VTP&#45;&gt;OSS\\SNMP\\MIBS\\Cisco</title>
<path fill="none" stroke="black" d="M323.594,-628C304.754,-628 278.216,-628 250.505,-628"/>
<polygon fill="none" stroke="black" points="250.255,-624.5 240.255,-628 250.255,-631.5 250.255,-624.5"/>
</g>
<!-- \\OSS\\SNMP\\MIBS\\Cisco\\RSTP -->
<g id="node9" class="node"><title>\\OSS\\SNMP\\MIBS\\Cisco\\RSTP</title>
<a xlink:href="SNMP.MIBS.Cisco.RSTP.html" xlink:title="RSTP" target="_parent">
<polygon fill="none" stroke="black" points="378,-592 324,-592 324,-556 378,-556 378,-592"/>
<text text-anchor="middle" x="351" y="-571.1" font-family="Courier,monospace" font-size="11.00">RSTP</text>
</a>
</g>
<!-- \\OSS\\SNMP\\MIBS\\Cisco\\RSTP&#45;&gt;OSS\\SNMP\\MIBS\\Cisco -->
<g id="edge27" class="edge"><title>\\OSS\\SNMP\\MIBS\\Cisco\\RSTP&#45;&gt;OSS\\SNMP\\MIBS\\Cisco</title>
<path fill="none" stroke="black" d="M323.594,-580.407C292.04,-587.783 238.887,-600.208 194.804,-610.513"/>
<polygon fill="none" stroke="black" points="193.911,-607.128 184.971,-612.812 195.505,-613.944 193.911,-607.128"/>
</g>
<!-- \\OSS\\SNMP\\MIBS\\Iface -->
<g id="node10" class="node"><title>\\OSS\\SNMP\\MIBS\\Iface</title>
<a xlink:href="SNMP.MIBS.Iface.html" xlink:title="Iface" target="_parent">
<polygon fill="none" stroke="black" points="378,-538 324,-538 324,-502 378,-502 378,-538"/>
<text text-anchor="middle" x="351" y="-517.1" font-family="Courier,monospace" font-size="11.00">Iface</text>
</a>
</g>
<!-- OSS\\SNMP\\MIB -->
<g id="node27" class="node"><title>OSS\\SNMP\\MIB</title>
<ellipse fill="none" stroke="black" cx="120" cy="-412" rx="85.7684" ry="18.3848"/>
<text text-anchor="middle" x="120" y="-408.4" font-family="Times Roman,serif" font-size="14.00" fill="gray">OSS\SNMP\MIB</text>
</g>
<!-- \\OSS\\SNMP\\MIBS\\Iface&#45;&gt;OSS\\SNMP\\MIB -->
<g id="edge13" class="edge"><title>\\OSS\\SNMP\\MIBS\\Iface&#45;&gt;OSS\\SNMP\\MIB</title>
<path fill="none" stroke="black" d="M323.949,-507.696C313.905,-503.107 302.422,-497.838 292,-493 248.49,-472.8 198.946,-449.429 164.244,-432.998"/>
<polygon fill="none" stroke="black" points="165.402,-429.674 154.867,-428.556 162.406,-436 165.402,-429.674"/>
</g>
<!-- \\OSS\\SNMP\\MIBS\\Bridge -->
<g id="node11" class="node"><title>\\OSS\\SNMP\\MIBS\\Bridge</title>
<a xlink:href="SNMP.MIBS.Bridge.html" xlink:title="Bridge" target="_parent">
<polygon fill="none" stroke="black" points="379,-484 323,-484 323,-448 379,-448 379,-484"/>
<text text-anchor="middle" x="351" y="-463.1" font-family="Courier,monospace" font-size="11.00">Bridge</text>
</a>
</g>
<!-- \\OSS\\SNMP\\MIBS\\Bridge&#45;&gt;OSS\\SNMP\\MIB -->
<g id="edge15" class="edge"><title>\\OSS\\SNMP\\MIBS\\Bridge&#45;&gt;OSS\\SNMP\\MIB</title>
<path fill="none" stroke="black" d="M322.211,-459.27C288.703,-451.437 232.252,-438.241 187.497,-427.778"/>
<polygon fill="none" stroke="black" points="188.092,-424.323 177.558,-425.455 186.499,-431.14 188.092,-424.323"/>
</g>
<!-- \\OSS\\SNMP\\MIBS\\LAG -->
<g id="node12" class="node"><title>\\OSS\\SNMP\\MIBS\\LAG</title>
<a xlink:href="SNMP.MIBS.LAG.html" xlink:title="LAG" target="_parent">
<polygon fill="none" stroke="black" points="378,-430 324,-430 324,-394 378,-394 378,-430"/>
<text text-anchor="middle" x="351" y="-409.1" font-family="Courier,monospace" font-size="11.00">LAG</text>
</a>
</g>
<!-- \\OSS\\SNMP\\MIBS\\LAG&#45;&gt;OSS\\SNMP\\MIB -->
<g id="edge17" class="edge"><title>\\OSS\\SNMP\\MIBS\\LAG&#45;&gt;OSS\\SNMP\\MIB</title>
<path fill="none" stroke="black" d="M323.594,-412C297.155,-412 255.552,-412 216.827,-412"/>
<polygon fill="none" stroke="black" points="216.527,-408.5 206.527,-412 216.527,-415.5 216.527,-408.5"/>
</g>
<!-- \\OSS\\SNMP\\MIBS\\Cisco -->
<g id="node13" class="node"><title>\\OSS\\SNMP\\MIBS\\Cisco</title>
<a xlink:href="SNMP.MIBS.Cisco.html" xlink:title="Cisco" target="_parent">
<polygon fill="none" stroke="black" points="378,-376 324,-376 324,-340 378,-340 378,-376"/>
<text text-anchor="middle" x="351" y="-355.1" font-family="Courier,monospace" font-size="11.00">Cisco</text>
</a>
</g>
<!-- \\OSS\\SNMP\\MIBS\\Cisco&#45;&gt;OSS\\SNMP\\MIB -->
<g id="edge19" class="edge"><title>\\OSS\\SNMP\\MIBS\\Cisco&#45;&gt;OSS\\SNMP\\MIB</title>
<path fill="none" stroke="black" d="M323.594,-364.407C290.303,-372.189 232.972,-385.591 187.614,-396.194"/>
<polygon fill="none" stroke="black" points="186.778,-392.795 177.837,-398.48 188.371,-399.611 186.778,-392.795"/>
</g>
<!-- \\OSS\\SNMP\\MIBS\\Host -->
<g id="node14" class="node"><title>\\OSS\\SNMP\\MIBS\\Host</title>
<a xlink:href="SNMP.MIBS.Host.html" xlink:title="Host" target="_parent">
<polygon fill="none" stroke="black" points="378,-322 324,-322 324,-286 378,-286 378,-322"/>
<text text-anchor="middle" x="351" y="-301.1" font-family="Courier,monospace" font-size="11.00">Host</text>
</a>
</g>
<!-- \\OSS\\SNMP\\MIBS\\Host&#45;&gt;OSS\\SNMP\\MIB -->
<g id="edge21" class="edge"><title>\\OSS\\SNMP\\MIBS\\Host&#45;&gt;OSS\\SNMP\\MIB</title>
<path fill="none" stroke="black" d="M323.949,-316.304C313.905,-320.893 302.422,-326.162 292,-331 248.49,-351.2 198.946,-374.571 164.244,-391.002"/>
<polygon fill="none" stroke="black" points="162.406,-388 154.867,-395.444 165.402,-394.326 162.406,-388"/>
</g>
<!-- \\OSS\\SNMP\\MIB -->
<g id="node16" class="node"><title>\\OSS\\SNMP\\MIB</title>
<a xlink:href="SNMP.MIB.html" xlink:title="MIB" target="_parent">
<polygon fill="none" stroke="black" points="378,-268 324,-268 324,-232 378,-232 378,-268"/>
<text text-anchor="middle" x="351" y="-247.1" font-family="Courier,monospace" font-size="11.00">MIB</text>
</a>
</g>
<!-- \\OSS\\Cache -->
<g id="node20" class="node"><title>\\OSS\\Cache</title>
<a xlink:href="Cache.html" xlink:title="Cache" target="_parent">
<polygon fill="none" stroke="black" points="378,-214 324,-214 324,-178 378,-178 378,-214"/>
<text text-anchor="middle" x="351" y="-193.1" font-family="Courier,monospace" font-size="11.00">Cache</text>
</a>
</g>
<!-- \\OSS\\Timer -->
<g id="node21" class="node"><title>\\OSS\\Timer</title>
<a xlink:href="Timer.html" xlink:title="Timer" target="_parent">
<polygon fill="none" stroke="black" points="378,-160 324,-160 324,-124 378,-124 378,-160"/>
<text text-anchor="middle" x="351" y="-139.1" font-family="Courier,monospace" font-size="11.00">Timer</text>
</a>
</g>
<!-- \\OSS\\SNMP -->
<g id="node22" class="node"><title>\\OSS\\SNMP</title>
<a xlink:href="SNMP.html" xlink:title="SNMP" target="_parent">
<polygon fill="none" stroke="black" points="378,-106 324,-106 324,-70 378,-70 378,-106"/>
<text text-anchor="middle" x="351" y="-85.1" font-family="Courier,monospace" font-size="11.00">SNMP</text>
</a>
</g>
<!-- \\OSS\\Exception -->
<g id="node23" class="node"><title>\\OSS\\Exception</title>
<a xlink:href="Exception.html" xlink:title="Exception" target="_parent">
<polygon fill="none" stroke="black" points="389,-52 313,-52 313,-16 389,-16 389,-52"/>
<text text-anchor="middle" x="351" y="-31.1" font-family="Courier,monospace" font-size="11.00">Exception</text>
</a>
</g>
<!-- Exception -->
<g id="node37" class="node"><title>Exception</title>
<ellipse fill="none" stroke="black" cx="120" cy="-34" rx="58.8978" ry="18.3848"/>
<text text-anchor="middle" x="120" y="-30.4" font-family="Times Roman,serif" font-size="14.00" fill="gray">Exception</text>
</g>
<!-- \\OSS\\Exception&#45;&gt;Exception -->
<g id="edge29" class="edge"><title>\\OSS\\Exception&#45;&gt;Exception</title>
<path fill="none" stroke="black" d="M312.336,-34C278.946,-34 229.877,-34 189.66,-34"/>
<polygon fill="none" stroke="black" points="189.641,-30.5001 179.641,-34 189.641,-37.5001 189.641,-30.5001"/>
</g>
</g>
</svg>
