<?xml version="1.0" encoding="UTF-8" standalone="no"?>
<!DOCTYPE svg PUBLIC "-//W3C//DTD SVG 1.1//EN"
 "http://www.w3.org/Graphics/SVG/1.1/DTD/svg11.dtd">
<!-- Generated by graphviz version 2.26.3 (20100126.1600)
 -->
<!-- Title: G Pages: 1 -->
<svg width="450pt" height="1228pt"
 viewBox="0.00 0.00 450.00 1228.00" xmlns="http://www.w3.org/2000/svg" xmlns:xlink="http://www.w3.org/1999/xlink">
<g id="graph1" class="graph" transform="scale(1 1) rotate(0) translate(4 1224)">
<title>G</title>
<polygon fill="white" stroke="white" points="-4,5 -4,-1224 447,-1224 447,5 -4,5"/>
<g id="graph2" class="cluster"><title>cluster_OSS_SNMP</title>
<polyline fill="none" stroke="gray" points="306,-8 422,-8 "/>
<path fill="none" stroke="gray" d="M422,-8C428,-8 434,-14 434,-20"/>
<polyline fill="none" stroke="gray" points="434,-20 434,-1200 "/>
<path fill="none" stroke="gray" d="M434,-1200C434,-1206 428,-1212 422,-1212"/>
<polyline fill="none" stroke="gray" points="422,-1212 306,-1212 "/>
<path fill="none" stroke="gray" d="M306,-1212C300,-1212 294,-1206 294,-1200"/>
<polyline fill="none" stroke="gray" points="294,-1200 294,-20 "/>
<path fill="none" stroke="gray" d="M294,-20C294,-14 300,-8 306,-8"/>
<text text-anchor="middle" x="364" y="-1198.1" font-family="Times Roman,serif" font-size="11.00" fill="gray">OSS_SNMP</text>
</g>
<g id="graph3" class="cluster"><title>cluster_OSS_SNMP\Cache</title>
<polyline fill="none" stroke="gray" points="341,-1054 387,-1054 "/>
<path fill="none" stroke="gray" d="M387,-1054C393,-1054 399,-1060 399,-1066"/>
<polyline fill="none" stroke="gray" points="399,-1066 399,-1170 "/>
<path fill="none" stroke="gray" d="M399,-1170C399,-1176 393,-1182 387,-1182"/>
<polyline fill="none" stroke="gray" points="387,-1182 341,-1182 "/>
<path fill="none" stroke="gray" d="M341,-1182C335,-1182 329,-1176 329,-1170"/>
<polyline fill="none" stroke="gray" points="329,-1170 329,-1066 "/>
<path fill="none" stroke="gray" d="M329,-1066C329,-1060 335,-1054 341,-1054"/>
<text text-anchor="middle" x="364" y="-1168.1" font-family="Times Roman,serif" font-size="11.00" fill="gray">Cache</text>
</g>
<g id="graph4" class="cluster"><title>cluster_OSS_SNMP\MIBS</title>
<polyline fill="none" stroke="gray" points="314,-276 414,-276 "/>
<path fill="none" stroke="gray" d="M414,-276C420,-276 426,-282 426,-288"/>
<polyline fill="none" stroke="gray" points="426,-288 426,-1034 "/>
<path fill="none" stroke="gray" d="M426,-1034C426,-1040 420,-1046 414,-1046"/>
<polyline fill="none" stroke="gray" points="414,-1046 314,-1046 "/>
<path fill="none" stroke="gray" d="M314,-1046C308,-1046 302,-1040 302,-1034"/>
<polyline fill="none" stroke="gray" points="302,-1034 302,-288 "/>
<path fill="none" stroke="gray" d="M302,-288C302,-282 308,-276 314,-276"/>
<text text-anchor="middle" x="364" y="-1032.1" font-family="Times Roman,serif" font-size="11.00" fill="gray">MIBS</text>
</g>
<g id="graph5" class="cluster"><title>cluster_OSS_SNMP\MIBS\Asterisk</title>
<polyline fill="none" stroke="gray" points="322,-844 406,-844 "/>
<path fill="none" stroke="gray" d="M406,-844C412,-844 418,-850 418,-856"/>
<polyline fill="none" stroke="gray" points="418,-856 418,-960 "/>
<path fill="none" stroke="gray" d="M418,-960C418,-966 412,-972 406,-972"/>
<polyline fill="none" stroke="gray" points="406,-972 322,-972 "/>
<path fill="none" stroke="gray" d="M322,-972C316,-972 310,-966 310,-960"/>
<polyline fill="none" stroke="gray" points="310,-960 310,-856 "/>
<path fill="none" stroke="gray" d="M310,-856C310,-850 316,-844 322,-844"/>
<text text-anchor="middle" x="364" y="-958.1" font-family="Times Roman,serif" font-size="11.00" fill="gray">Asterisk</text>
</g>
<g id="graph6" class="cluster"><title>cluster_OSS_SNMP\MIBS\Cisco</title>
<polyline fill="none" stroke="gray" points="341,-284 387,-284 "/>
<path fill="none" stroke="gray" d="M387,-284C393,-284 399,-290 399,-296"/>
<polyline fill="none" stroke="gray" points="399,-296 399,-454 "/>
<path fill="none" stroke="gray" d="M399,-454C399,-460 393,-466 387,-466"/>
<polyline fill="none" stroke="gray" points="387,-466 341,-466 "/>
<path fill="none" stroke="gray" d="M341,-466C335,-466 329,-460 329,-454"/>
<polyline fill="none" stroke="gray" points="329,-454 329,-296 "/>
<path fill="none" stroke="gray" d="M329,-296C329,-290 335,-284 341,-284"/>
<text text-anchor="middle" x="364" y="-452.1" font-family="Times Roman,serif" font-size="11.00" fill="gray">Cisco</text>
</g>
<!-- \\OSS_SNMP\\Cache\\APC -->
<g id="node3" class="node"><title>\\OSS_SNMP\\Cache\\APC</title>
<a xlink:href="Cache.APC.html" xlink:title="APC" target="_parent">
<polygon fill="none" stroke="black" points="391,-1152 337,-1152 337,-1116 391,-1116 391,-1152"/>
<text text-anchor="middle" x="364" y="-1131.1" font-family="Courier,monospace" font-size="11.00">APC</text>
</a>
</g>
<!-- OSS_SNMP\\Cache -->
<g id="node29" class="node"><title>OSS_SNMP\\Cache</title>
<ellipse fill="none" stroke="black" cx="123" cy="-1107" rx="98.9949" ry="18.3848"/>
<text text-anchor="middle" x="123" y="-1103.4" font-family="Times Roman,serif" font-size="14.00" fill="gray">OSS_SNMP\Cache</text>
</g>
<!-- \\OSS_SNMP\\Cache\\APC&#45;&gt;OSS_SNMP\\Cache -->
<g id="edge9" class="edge"><title>\\OSS_SNMP\\Cache\\APC&#45;&gt;OSS_SNMP\\Cache</title>
<path fill="none" stroke="black" d="M336.823,-1130.96C307.876,-1127.71 260.416,-1122.4 217.554,-1117.59"/>
<polygon fill="none" stroke="black" points="217.673,-1114.08 207.346,-1116.45 216.894,-1121.04 217.673,-1114.08"/>
</g>
<!-- \\OSS_SNMP\\Cache\\Basic -->
<g id="node4" class="node"><title>\\OSS_SNMP\\Cache\\Basic</title>
<a xlink:href="Cache.Basic.html" xlink:title="Basic" target="_parent">
<polygon fill="none" stroke="black" points="391,-1098 337,-1098 337,-1062 391,-1062 391,-1098"/>
<text text-anchor="middle" x="364" y="-1077.1" font-family="Courier,monospace" font-size="11.00">Basic</text>
</a>
</g>
<!-- \\OSS_SNMP\\Cache\\Basic&#45;&gt;OSS_SNMP\\Cache -->
<g id="edge11" class="edge"><title>\\OSS_SNMP\\Cache\\Basic&#45;&gt;OSS_SNMP\\Cache</title>
<path fill="none" stroke="black" d="M336.823,-1083.04C307.876,-1086.29 260.416,-1091.6 217.554,-1096.41"/>
<polygon fill="none" stroke="black" points="216.894,-1092.96 207.346,-1097.55 217.673,-1099.92 216.894,-1092.96"/>
</g>
<!-- \\OSS_SNMP\\MIBS\\Asterisk\\Indications -->
<g id="node7" class="node"><title>\\OSS_SNMP\\MIBS\\Asterisk\\Indications</title>
<a xlink:href="MIBS.Asterisk.Indications.html" xlink:title="Indications" target="_parent">
<polygon fill="none" stroke="black" points="409,-942 319,-942 319,-906 409,-906 409,-942"/>
<text text-anchor="middle" x="364" y="-921.1" font-family="Courier,monospace" font-size="11.00">Indications</text>
</a>
</g>
<!-- OSS_SNMP\\MIB -->
<g id="node32" class="node"><title>OSS_SNMP\\MIB</title>
<ellipse fill="none" stroke="black" cx="123" cy="-735" rx="87.889" ry="18.3848"/>
<text text-anchor="middle" x="123" y="-731.4" font-family="Times Roman,serif" font-size="14.00" fill="gray">OSS_SNMP\MIB</text>
</g>
<!-- \\OSS_SNMP\\MIBS\\Asterisk\\Indications&#45;&gt;OSS_SNMP\\MIB -->
<g id="edge21" class="edge"><title>\\OSS_SNMP\\MIBS\\Asterisk\\Indications&#45;&gt;OSS_SNMP\\MIB</title>
<path fill="none" stroke="black" d="M318.31,-909.355C309.939,-905.851 301.489,-901.729 294,-897 232.859,-858.39 174.598,-795.828 144.408,-760.823"/>
<polygon fill="none" stroke="black" points="146.854,-758.298 137.701,-752.962 141.529,-762.841 146.854,-758.298"/>
</g>
<!-- \\OSS_SNMP\\MIBS\\Asterisk\\Channels -->
<g id="node8" class="node"><title>\\OSS_SNMP\\MIBS\\Asterisk\\Channels</title>
<a xlink:href="MIBS.Asterisk.Channels.html" xlink:title="Channels" target="_parent">
<polygon fill="none" stroke="black" points="399,-888 329,-888 329,-852 399,-852 399,-888"/>
<text text-anchor="middle" x="364" y="-867.1" font-family="Courier,monospace" font-size="11.00">Channels</text>
</a>
</g>
<!-- \\OSS_SNMP\\MIBS\\Asterisk\\Channels&#45;&gt;OSS_SNMP\\MIB -->
<g id="edge23" class="edge"><title>\\OSS_SNMP\\MIBS\\Asterisk\\Channels&#45;&gt;OSS_SNMP\\MIB</title>
<path fill="none" stroke="black" d="M328.372,-860.903C317.122,-857.479 304.812,-853.146 294,-848 241.5,-823.012 186.354,-783.887 153.328,-758.851"/>
<polygon fill="none" stroke="black" points="155.091,-755.793 145.022,-752.497 150.838,-761.353 155.091,-755.793"/>
</g>
<!-- \\OSS_SNMP\\MIBS\\Cisco\\CDP -->
<g id="node10" class="node"><title>\\OSS_SNMP\\MIBS\\Cisco\\CDP</title>
<a xlink:href="MIBS.Cisco.CDP.html" xlink:title="CDP" target="_parent">
<polygon fill="none" stroke="black" points="391,-436 337,-436 337,-400 391,-400 391,-436"/>
<text text-anchor="middle" x="364" y="-415.1" font-family="Courier,monospace" font-size="11.00">CDP</text>
</a>
</g>
<!-- OSS_SNMP\\MIBS\\Cisco -->
<g id="node43" class="node"><title>OSS_SNMP\\MIBS\\Cisco</title>
<ellipse fill="none" stroke="black" cx="123" cy="-364" rx="121.83" ry="18.3848"/>
<text text-anchor="middle" x="123" y="-360.4" font-family="Times Roman,serif" font-size="14.00" fill="gray">OSS_SNMP\MIBS\Cisco</text>
</g>
<!-- \\OSS_SNMP\\MIBS\\Cisco\\CDP&#45;&gt;OSS_SNMP\\MIBS\\Cisco -->
<g id="edge33" class="edge"><title>\\OSS_SNMP\\MIBS\\Cisco\\CDP&#45;&gt;OSS_SNMP\\MIBS\\Cisco</title>
<path fill="none" stroke="black" d="M336.823,-411.91C303.896,-404.533 247.017,-391.788 200.197,-381.297"/>
<polygon fill="none" stroke="black" points="200.895,-377.867 190.372,-379.096 199.364,-384.698 200.895,-377.867"/>
</g>
<!-- \\OSS_SNMP\\MIBS\\Cisco\\VTP -->
<g id="node11" class="node"><title>\\OSS_SNMP\\MIBS\\Cisco\\VTP</title>
<a xlink:href="MIBS.Cisco.VTP.html" xlink:title="VTP" target="_parent">
<polygon fill="none" stroke="black" points="391,-382 337,-382 337,-346 391,-346 391,-382"/>
<text text-anchor="middle" x="364" y="-361.1" font-family="Courier,monospace" font-size="11.00">VTP</text>
</a>
</g>
<!-- \\OSS_SNMP\\MIBS\\Cisco\\VTP&#45;&gt;OSS_SNMP\\MIBS\\Cisco -->
<g id="edge35" class="edge"><title>\\OSS_SNMP\\MIBS\\Cisco\\VTP&#45;&gt;OSS_SNMP\\MIBS\\Cisco</title>
<path fill="none" stroke="black" d="M336.823,-364C316.329,-364 286.555,-364 255.703,-364"/>
<polygon fill="none" stroke="black" points="255.659,-360.5 245.659,-364 255.659,-367.5 255.659,-360.5"/>
</g>
<!-- \\OSS_SNMP\\MIBS\\Cisco\\RSTP -->
<g id="node12" class="node"><title>\\OSS_SNMP\\MIBS\\Cisco\\RSTP</title>
<a xlink:href="MIBS.Cisco.RSTP.html" xlink:title="RSTP" target="_parent">
<polygon fill="none" stroke="black" points="391,-328 337,-328 337,-292 391,-292 391,-328"/>
<text text-anchor="middle" x="364" y="-307.1" font-family="Courier,monospace" font-size="11.00">RSTP</text>
</a>
</g>
<!-- \\OSS_SNMP\\MIBS\\Cisco\\RSTP&#45;&gt;OSS_SNMP\\MIBS\\Cisco -->
<g id="edge37" class="edge"><title>\\OSS_SNMP\\MIBS\\Cisco\\RSTP&#45;&gt;OSS_SNMP\\MIBS\\Cisco</title>
<path fill="none" stroke="black" d="M336.823,-316.09C303.896,-323.467 247.017,-336.212 200.197,-346.703"/>
<polygon fill="none" stroke="black" points="199.364,-343.302 190.372,-348.904 200.895,-350.133 199.364,-343.302"/>
</g>
<!-- \\OSS_SNMP\\MIBS\\Iface -->
<g id="node13" class="node"><title>\\OSS_SNMP\\MIBS\\Iface</title>
<a xlink:href="MIBS.Iface.html" xlink:title="Iface" target="_parent">
<polygon fill="none" stroke="black" points="391,-834 337,-834 337,-798 391,-798 391,-834"/>
<text text-anchor="middle" x="364" y="-813.1" font-family="Courier,monospace" font-size="11.00">Iface</text>
</a>
</g>
<!-- \\OSS_SNMP\\MIBS\\Iface&#45;&gt;OSS_SNMP\\MIB -->
<g id="edge13" class="edge"><title>\\OSS_SNMP\\MIBS\\Iface&#45;&gt;OSS_SNMP\\MIB</title>
<path fill="none" stroke="black" d="M336.823,-806.866C298.623,-794.027 228.183,-770.352 178.616,-753.692"/>
<polygon fill="none" stroke="black" points="179.59,-750.328 168.996,-750.459 177.36,-756.963 179.59,-750.328"/>
</g>
<!-- \\OSS_SNMP\\MIBS\\Bridge -->
<g id="node14" class="node"><title>\\OSS_SNMP\\MIBS\\Bridge</title>
<a xlink:href="MIBS.Bridge.html" xlink:title="Bridge" target="_parent">
<polygon fill="none" stroke="black" points="392,-780 336,-780 336,-744 392,-744 392,-780"/>
<text text-anchor="middle" x="364" y="-759.1" font-family="Courier,monospace" font-size="11.00">Bridge</text>
</a>
</g>
<!-- \\OSS_SNMP\\MIBS\\Bridge&#45;&gt;OSS_SNMP\\MIB -->
<g id="edge15" class="edge"><title>\\OSS_SNMP\\MIBS\\Bridge&#45;&gt;OSS_SNMP\\MIB</title>
<path fill="none" stroke="black" d="M335.408,-758.797C304.754,-755.362 254.564,-749.74 210.668,-744.822"/>
<polygon fill="none" stroke="black" points="210.864,-741.322 200.536,-743.687 210.084,-748.278 210.864,-741.322"/>
</g>
<!-- \\OSS_SNMP\\MIBS\\LAG -->
<g id="node15" class="node"><title>\\OSS_SNMP\\MIBS\\LAG</title>
<a xlink:href="MIBS.LAG.html" xlink:title="LAG" target="_parent">
<polygon fill="none" stroke="black" points="391,-726 337,-726 337,-690 391,-690 391,-726"/>
<text text-anchor="middle" x="364" y="-705.1" font-family="Courier,monospace" font-size="11.00">LAG</text>
</a>
</g>
<!-- \\OSS_SNMP\\MIBS\\LAG&#45;&gt;OSS_SNMP\\MIB -->
<g id="edge17" class="edge"><title>\\OSS_SNMP\\MIBS\\LAG&#45;&gt;OSS_SNMP\\MIB</title>
<path fill="none" stroke="black" d="M336.823,-711.045C306.323,-714.462 255.271,-720.181 210.7,-725.175"/>
<polygon fill="none" stroke="black" points="210.258,-721.702 200.71,-726.294 211.037,-728.659 210.258,-721.702"/>
</g>
<!-- \\OSS_SNMP\\MIBS\\Cisco -->
<g id="node16" class="node"><title>\\OSS_SNMP\\MIBS\\Cisco</title>
<a xlink:href="MIBS.Cisco.html" xlink:title="Cisco" target="_parent">
<polygon fill="none" stroke="black" points="391,-672 337,-672 337,-636 391,-636 391,-672"/>
<text text-anchor="middle" x="364" y="-651.1" font-family="Courier,monospace" font-size="11.00">Cisco</text>
</a>
</g>
<!-- \\OSS_SNMP\\MIBS\\Cisco&#45;&gt;OSS_SNMP\\MIB -->
<g id="edge19" class="edge"><title>\\OSS_SNMP\\MIBS\\Cisco&#45;&gt;OSS_SNMP\\MIB</title>
<path fill="none" stroke="black" d="M336.823,-663.134C298.623,-675.973 228.183,-699.648 178.616,-716.308"/>
<polygon fill="none" stroke="black" points="177.36,-713.037 168.996,-719.541 179.59,-719.672 177.36,-713.037"/>
</g>
<!-- \\OSS_SNMP\\MIBS\\Entity -->
<g id="node17" class="node"><title>\\OSS_SNMP\\MIBS\\Entity</title>
<a xlink:href="MIBS.Entity.html" xlink:title="Entity" target="_parent">
<polygon fill="none" stroke="black" points="392,-618 336,-618 336,-582 392,-582 392,-618"/>
<text text-anchor="middle" x="364" y="-597.1" font-family="Courier,monospace" font-size="11.00">Entity</text>
</a>
</g>
<!-- \\OSS_SNMP\\MIBS\\Entity&#45;&gt;OSS_SNMP\\MIB -->
<g id="edge25" class="edge"><title>\\OSS_SNMP\\MIBS\\Entity&#45;&gt;OSS_SNMP\\MIB</title>
<path fill="none" stroke="black" d="M335.186,-609.675C322.331,-614.355 307.151,-620.39 294,-627 243.745,-652.258 189.429,-688.192 155.812,-711.553"/>
<polygon fill="none" stroke="black" points="153.501,-708.898 147.313,-717.498 157.513,-714.634 153.501,-708.898"/>
</g>
<!-- \\OSS_SNMP\\MIBS\\System -->
<g id="node18" class="node"><title>\\OSS_SNMP\\MIBS\\System</title>
<a xlink:href="MIBS.System.html" xlink:title="System" target="_parent">
<polygon fill="none" stroke="black" points="392,-564 336,-564 336,-528 392,-528 392,-564"/>
<text text-anchor="middle" x="364" y="-543.1" font-family="Courier,monospace" font-size="11.00">System</text>
</a>
</g>
<!-- \\OSS_SNMP\\MIBS\\System&#45;&gt;OSS_SNMP\\MIB -->
<g id="edge27" class="edge"><title>\\OSS_SNMP\\MIBS\\System&#45;&gt;OSS_SNMP\\MIB</title>
<path fill="none" stroke="black" d="M335.213,-554.271C322.077,-558.741 306.665,-565.002 294,-573 232.859,-611.61 174.598,-674.172 144.408,-709.177"/>
<polygon fill="none" stroke="black" points="141.529,-707.159 137.701,-717.038 146.854,-711.702 141.529,-707.159"/>
</g>
<!-- \\OSS_SNMP\\MIBS\\Asterisk -->
<g id="node19" class="node"><title>\\OSS_SNMP\\MIBS\\Asterisk</title>
<a xlink:href="MIBS.Asterisk.html" xlink:title="Asterisk" target="_parent">
<polygon fill="none" stroke="black" points="399,-510 329,-510 329,-474 399,-474 399,-510"/>
<text text-anchor="middle" x="364" y="-489.1" font-family="Courier,monospace" font-size="11.00">Asterisk</text>
</a>
</g>
<!-- \\OSS_SNMP\\MIBS\\Asterisk&#45;&gt;OSS_SNMP\\MIB -->
<g id="edge29" class="edge"><title>\\OSS_SNMP\\MIBS\\Asterisk&#45;&gt;OSS_SNMP\\MIB</title>
<path fill="none" stroke="black" d="M328.308,-501.639C316.689,-505.818 304.175,-511.509 294,-519 221.904,-572.081 163.816,-663.02 137.797,-708.075"/>
<polygon fill="none" stroke="black" points="134.643,-706.54 132.738,-716.962 140.727,-710.003 134.643,-706.54"/>
</g>
<!-- \\OSS_SNMP\\MIBS\\Host -->
<g id="node20" class="node"><title>\\OSS_SNMP\\MIBS\\Host</title>
<a xlink:href="MIBS.Host.html" xlink:title="Host" target="_parent">
<polygon fill="none" stroke="black" points="391,-1016 337,-1016 337,-980 391,-980 391,-1016"/>
<text text-anchor="middle" x="364" y="-995.1" font-family="Courier,monospace" font-size="11.00">Host</text>
</a>
</g>
<!-- \\OSS_SNMP\\MIBS\\Host&#45;&gt;OSS_SNMP\\MIB -->
<g id="edge31" class="edge"><title>\\OSS_SNMP\\MIBS\\Host&#45;&gt;OSS_SNMP\\MIB</title>
<path fill="none" stroke="black" d="M336.87,-993.744C323.053,-990.57 306.566,-985.145 294,-976 214.668,-918.267 158.431,-812.289 135.059,-762.373"/>
<polygon fill="none" stroke="black" points="138.184,-760.791 130.826,-753.169 131.824,-763.716 138.184,-760.791"/>
</g>
<!-- \\OSS_SNMP\\Cache -->
<g id="node23" class="node"><title>\\OSS_SNMP\\Cache</title>
<a xlink:href="Cache.html" xlink:title="Cache" target="_parent">
<polygon fill="none" stroke="black" points="391,-268 337,-268 337,-232 391,-232 391,-268"/>
<text text-anchor="middle" x="364" y="-247.1" font-family="Courier,monospace" font-size="11.00">Cache</text>
</a>
</g>
<!-- \\OSS_SNMP\\Timer -->
<g id="node24" class="node"><title>\\OSS_SNMP\\Timer</title>
<a xlink:href="Timer.html" xlink:title="Timer" target="_parent">
<polygon fill="none" stroke="black" points="391,-214 337,-214 337,-178 391,-178 391,-214"/>
<text text-anchor="middle" x="364" y="-193.1" font-family="Courier,monospace" font-size="11.00">Timer</text>
</a>
</g>
<!-- \\OSS_SNMP\\SNMP -->
<g id="node25" class="node"><title>\\OSS_SNMP\\SNMP</title>
<a xlink:href="SNMP.html" xlink:title="SNMP" target="_parent">
<polygon fill="none" stroke="black" points="391,-160 337,-160 337,-124 391,-124 391,-160"/>
<text text-anchor="middle" x="364" y="-139.1" font-family="Courier,monospace" font-size="11.00">SNMP</text>
</a>
</g>
<!-- \\OSS_SNMP\\MIB -->
<g id="node26" class="node"><title>\\OSS_SNMP\\MIB</title>
<a xlink:href="MIB.html" xlink:title="MIB" target="_parent">
<polygon fill="none" stroke="black" points="391,-106 337,-106 337,-70 391,-70 391,-106"/>
<text text-anchor="middle" x="364" y="-85.1" font-family="Courier,monospace" font-size="11.00">MIB</text>
</a>
</g>
<!-- \\OSS_SNMP\\Exception -->
<g id="node27" class="node"><title>\\OSS_SNMP\\Exception</title>
<a xlink:href="Exception.html" xlink:title="Exception" target="_parent">
<polygon fill="none" stroke="black" points="402,-52 326,-52 326,-16 402,-16 402,-52"/>
<text text-anchor="middle" x="364" y="-31.1" font-family="Courier,monospace" font-size="11.00">Exception</text>
</a>
</g>
<!-- Exception -->
<g id="node47" class="node"><title>Exception</title>
<ellipse fill="none" stroke="black" cx="123" cy="-34" rx="58.8978" ry="18.3848"/>
<text text-anchor="middle" x="123" y="-30.4" font-family="Times Roman,serif" font-size="14.00" fill="gray">Exception</text>
</g>
<!-- \\OSS_SNMP\\Exception&#45;&gt;Exception -->
<g id="edge39" class="edge"><title>\\OSS_SNMP\\Exception&#45;&gt;Exception</title>
<path fill="none" stroke="black" d="M325.279,-34C289.68,-34 236.05,-34 192.955,-34"/>
<polygon fill="none" stroke="black" points="192.808,-30.5001 182.808,-34 192.808,-37.5001 192.808,-30.5001"/>
</g>
</g>
</svg>
