<?xml version="1.0" encoding="UTF-8" standalone="no"?>
<!DOCTYPE svg PUBLIC "-//W3C//DTD SVG 1.1//EN"
 "http://www.w3.org/Graphics/SVG/1.1/DTD/svg11.dtd">
<!-- Generated by graphviz version 2.26.3 (20100126.1600)
 -->
<!-- Title: G Pages: 1 -->
<svg width="426pt" height="1026pt"
 viewBox="0.00 0.00 426.00 1026.00" xmlns="http://www.w3.org/2000/svg" xmlns:xlink="http://www.w3.org/1999/xlink">
<g id="graph1" class="graph" transform="scale(1 1) rotate(0) translate(4 1022)">
<title>G</title>
<polygon fill="white" stroke="white" points="-4,5 -4,-1022 423,-1022 423,5 -4,5"/>
<g id="graph2" class="cluster"><title>cluster_OSS</title>
<polyline fill="none" stroke="gray" points="304,-8 398,-8 "/>
<path fill="none" stroke="gray" d="M398,-8C404,-8 410,-14 410,-20"/>
<polyline fill="none" stroke="gray" points="410,-20 410,-998 "/>
<path fill="none" stroke="gray" d="M410,-998C410,-1004 404,-1010 398,-1010"/>
<polyline fill="none" stroke="gray" points="398,-1010 304,-1010 "/>
<path fill="none" stroke="gray" d="M304,-1010C298,-1010 292,-1004 292,-998"/>
<polyline fill="none" stroke="gray" points="292,-998 292,-20 "/>
<path fill="none" stroke="gray" d="M292,-20C292,-14 298,-8 304,-8"/>
<text text-anchor="middle" x="351" y="-996.1" font-family="Times Roman,serif" font-size="11.00" fill="gray">OSS</text>
</g>
<g id="graph3" class="cluster"><title>cluster_OSS\Cache</title>
<polyline fill="none" stroke="gray" points="328,-852 374,-852 "/>
<path fill="none" stroke="gray" d="M374,-852C380,-852 386,-858 386,-864"/>
<polyline fill="none" stroke="gray" points="386,-864 386,-968 "/>
<path fill="none" stroke="gray" d="M386,-968C386,-974 380,-980 374,-980"/>
<polyline fill="none" stroke="gray" points="374,-980 328,-980 "/>
<path fill="none" stroke="gray" d="M328,-980C322,-980 316,-974 316,-968"/>
<polyline fill="none" stroke="gray" points="316,-968 316,-864 "/>
<path fill="none" stroke="gray" d="M316,-864C316,-858 322,-852 328,-852"/>
<text text-anchor="middle" x="351" y="-966.1" font-family="Times Roman,serif" font-size="11.00" fill="gray">Cache</text>
</g>
<g id="graph4" class="cluster"><title>cluster_OSS\SNMP</title>
<polyline fill="none" stroke="gray" points="312,-224 390,-224 "/>
<path fill="none" stroke="gray" d="M390,-224C396,-224 402,-230 402,-236"/>
<polyline fill="none" stroke="gray" points="402,-236 402,-832 "/>
<path fill="none" stroke="gray" d="M402,-832C402,-838 396,-844 390,-844"/>
<polyline fill="none" stroke="gray" points="390,-844 312,-844 "/>
<path fill="none" stroke="gray" d="M312,-844C306,-844 300,-838 300,-832"/>
<polyline fill="none" stroke="gray" points="300,-832 300,-236 "/>
<path fill="none" stroke="gray" d="M300,-236C300,-230 306,-224 312,-224"/>
<text text-anchor="middle" x="351" y="-830.1" font-family="Times Roman,serif" font-size="11.00" fill="gray">SNMP</text>
</g>
<g id="graph5" class="cluster"><title>cluster_OSS\SNMP\MIBS</title>
<polyline fill="none" stroke="gray" points="320,-278 382,-278 "/>
<path fill="none" stroke="gray" d="M382,-278C388,-278 394,-284 394,-290"/>
<polyline fill="none" stroke="gray" points="394,-290 394,-802 "/>
<path fill="none" stroke="gray" d="M394,-802C394,-808 388,-814 382,-814"/>
<polyline fill="none" stroke="gray" points="382,-814 320,-814 "/>
<path fill="none" stroke="gray" d="M320,-814C314,-814 308,-808 308,-802"/>
<polyline fill="none" stroke="gray" points="308,-802 308,-290 "/>
<path fill="none" stroke="gray" d="M308,-290C308,-284 314,-278 320,-278"/>
<text text-anchor="middle" x="351" y="-800.1" font-family="Times Roman,serif" font-size="11.00" fill="gray">MIBS</text>
</g>
<g id="graph6" class="cluster"><title>cluster_OSS\SNMP\MIBS\Cisco</title>
<polyline fill="none" stroke="gray" points="328,-602 374,-602 "/>
<path fill="none" stroke="gray" d="M374,-602C380,-602 386,-608 386,-614"/>
<polyline fill="none" stroke="gray" points="386,-614 386,-772 "/>
<path fill="none" stroke="gray" d="M386,-772C386,-778 380,-784 374,-784"/>
<polyline fill="none" stroke="gray" points="374,-784 328,-784 "/>
<path fill="none" stroke="gray" d="M328,-784C322,-784 316,-778 316,-772"/>
<polyline fill="none" stroke="gray" points="316,-772 316,-614 "/>
<path fill="none" stroke="gray" d="M316,-614C316,-608 322,-602 328,-602"/>
<text text-anchor="middle" x="351" y="-770.1" font-family="Times Roman,serif" font-size="11.00" fill="gray">Cisco</text>
</g>
<!-- \\OSS\\Cache\\APC -->
<g id="node3" class="node"><title>\\OSS\\Cache\\APC</title>
<a xlink:href="Cache.APC.html" xlink:title="APC" target="_parent">
<polygon fill="none" stroke="black" points="378,-950 324,-950 324,-914 378,-914 378,-950"/>
<text text-anchor="middle" x="351" y="-929.1" font-family="Courier,monospace" font-size="11.00">APC</text>
</a>
</g>
<!-- OSS\\Cache -->
<g id="node27" class="node"><title>OSS\\Cache</title>
<ellipse fill="none" stroke="black" cx="120" cy="-905" rx="65.0538" ry="18.3848"/>
<text text-anchor="middle" x="120" y="-901.4" font-family="Times Roman,serif" font-size="14.00" fill="gray">OSS\Cache</text>
</g>
<!-- \\OSS\\Cache\\APC&#45;&gt;OSS\\Cache -->
<g id="edge11" class="edge"><title>\\OSS\\Cache\\APC&#45;&gt;OSS\\Cache</title>
<path fill="none" stroke="black" d="M323.594,-928.797C290.928,-924.979 235.117,-918.455 190.182,-913.203"/>
<polygon fill="none" stroke="black" points="190.527,-909.72 180.188,-912.035 189.714,-916.672 190.527,-909.72"/>
</g>
<!-- \\OSS\\Cache\\Basic -->
<g id="node4" class="node"><title>\\OSS\\Cache\\Basic</title>
<a xlink:href="Cache.Basic.html" xlink:title="Basic" target="_parent">
<polygon fill="none" stroke="black" points="378,-896 324,-896 324,-860 378,-860 378,-896"/>
<text text-anchor="middle" x="351" y="-875.1" font-family="Courier,monospace" font-size="11.00">Basic</text>
</a>
</g>
<!-- \\OSS\\Cache\\Basic&#45;&gt;OSS\\Cache -->
<g id="edge13" class="edge"><title>\\OSS\\Cache\\Basic&#45;&gt;OSS\\Cache</title>
<path fill="none" stroke="black" d="M323.594,-881.203C290.928,-885.021 235.117,-891.545 190.182,-896.797"/>
<polygon fill="none" stroke="black" points="189.714,-893.328 180.188,-897.965 190.527,-900.28 189.714,-893.328"/>
</g>
<!-- \\OSS\\SNMP\\MIBS\\Cisco\\CDP -->
<g id="node8" class="node"><title>\\OSS\\SNMP\\MIBS\\Cisco\\CDP</title>
<a xlink:href="SNMP.MIBS.Cisco.CDP.html" xlink:title="CDP" target="_parent">
<polygon fill="none" stroke="black" points="378,-754 324,-754 324,-718 378,-718 378,-754"/>
<text text-anchor="middle" x="351" y="-733.1" font-family="Courier,monospace" font-size="11.00">CDP</text>
</a>
</g>
<!-- OSS\\SNMP\\MIBS\\Cisco -->
<g id="node37" class="node"><title>OSS\\SNMP\\MIBS\\Cisco</title>
<ellipse fill="none" stroke="black" cx="120" cy="-682" rx="120.208" ry="18.3848"/>
<text text-anchor="middle" x="120" y="-678.4" font-family="Times Roman,serif" font-size="14.00" fill="gray">OSS\SNMP\MIBS\Cisco</text>
</g>
<!-- \\OSS\\SNMP\\MIBS\\Cisco\\CDP&#45;&gt;OSS\\SNMP\\MIBS\\Cisco -->
<g id="edge27" class="edge"><title>\\OSS\\SNMP\\MIBS\\Cisco\\CDP&#45;&gt;OSS\\SNMP\\MIBS\\Cisco</title>
<path fill="none" stroke="black" d="M323.594,-729.593C292.04,-722.217 238.887,-709.792 194.804,-699.487"/>
<polygon fill="none" stroke="black" points="195.505,-696.056 184.971,-697.188 193.911,-702.872 195.505,-696.056"/>
</g>
<!-- \\OSS\\SNMP\\MIBS\\Cisco\\VTP -->
<g id="node9" class="node"><title>\\OSS\\SNMP\\MIBS\\Cisco\\VTP</title>
<a xlink:href="SNMP.MIBS.Cisco.VTP.html" xlink:title="VTP" target="_parent">
<polygon fill="none" stroke="black" points="378,-700 324,-700 324,-664 378,-664 378,-700"/>
<text text-anchor="middle" x="351" y="-679.1" font-family="Courier,monospace" font-size="11.00">VTP</text>
</a>
</g>
<!-- \\OSS\\SNMP\\MIBS\\Cisco\\VTP&#45;&gt;OSS\\SNMP\\MIBS\\Cisco -->
<g id="edge29" class="edge"><title>\\OSS\\SNMP\\MIBS\\Cisco\\VTP&#45;&gt;OSS\\SNMP\\MIBS\\Cisco</title>
<path fill="none" stroke="black" d="M323.594,-682C304.754,-682 278.216,-682 250.505,-682"/>
<polygon fill="none" stroke="black" points="250.255,-678.5 240.255,-682 250.255,-685.5 250.255,-678.5"/>
</g>
<!-- \\OSS\\SNMP\\MIBS\\Cisco\\RSTP -->
<g id="node10" class="node"><title>\\OSS\\SNMP\\MIBS\\Cisco\\RSTP</title>
<a xlink:href="SNMP.MIBS.Cisco.RSTP.html" xlink:title="RSTP" target="_parent">
<polygon fill="none" stroke="black" points="378,-646 324,-646 324,-610 378,-610 378,-646"/>
<text text-anchor="middle" x="351" y="-625.1" font-family="Courier,monospace" font-size="11.00">RSTP</text>
</a>
</g>
<!-- \\OSS\\SNMP\\MIBS\\Cisco\\RSTP&#45;&gt;OSS\\SNMP\\MIBS\\Cisco -->
<g id="edge31" class="edge"><title>\\OSS\\SNMP\\MIBS\\Cisco\\RSTP&#45;&gt;OSS\\SNMP\\MIBS\\Cisco</title>
<path fill="none" stroke="black" d="M323.594,-634.407C292.04,-641.783 238.887,-654.208 194.804,-664.513"/>
<polygon fill="none" stroke="black" points="193.911,-661.128 184.971,-666.812 195.505,-667.944 193.911,-661.128"/>
</g>
<!-- \\OSS\\SNMP\\MIBS\\Iface -->
<g id="node11" class="node"><title>\\OSS\\SNMP\\MIBS\\Iface</title>
<a xlink:href="SNMP.MIBS.Iface.html" xlink:title="Iface" target="_parent">
<polygon fill="none" stroke="black" points="378,-592 324,-592 324,-556 378,-556 378,-592"/>
<text text-anchor="middle" x="351" y="-571.1" font-family="Courier,monospace" font-size="11.00">Iface</text>
</a>
</g>
<!-- OSS\\SNMP\\MIB -->
<g id="node30" class="node"><title>OSS\\SNMP\\MIB</title>
<ellipse fill="none" stroke="black" cx="120" cy="-439" rx="85.7684" ry="18.3848"/>
<text text-anchor="middle" x="120" y="-435.4" font-family="Times Roman,serif" font-size="14.00" fill="gray">OSS\SNMP\MIB</text>
</g>
<!-- \\OSS\\SNMP\\MIBS\\Iface&#45;&gt;OSS\\SNMP\\MIB -->
<g id="edge15" class="edge"><title>\\OSS\\SNMP\\MIBS\\Iface&#45;&gt;OSS\\SNMP\\MIB</title>
<path fill="none" stroke="black" d="M323.908,-562.501C313.755,-557.958 302.21,-552.511 292,-547 242.582,-520.327 188.08,-485.04 153.947,-462.182"/>
<polygon fill="none" stroke="black" points="155.554,-459.044 145.303,-456.367 151.647,-464.853 155.554,-459.044"/>
</g>
<!-- \\OSS\\SNMP\\MIBS\\Bridge -->
<g id="node12" class="node"><title>\\OSS\\SNMP\\MIBS\\Bridge</title>
<a xlink:href="SNMP.MIBS.Bridge.html" xlink:title="Bridge" target="_parent">
<polygon fill="none" stroke="black" points="379,-538 323,-538 323,-502 379,-502 379,-538"/>
<text text-anchor="middle" x="351" y="-517.1" font-family="Courier,monospace" font-size="11.00">Bridge</text>
</a>
</g>
<!-- \\OSS\\SNMP\\MIBS\\Bridge&#45;&gt;OSS\\SNMP\\MIB -->
<g id="edge17" class="edge"><title>\\OSS\\SNMP\\MIBS\\Bridge&#45;&gt;OSS\\SNMP\\MIB</title>
<path fill="none" stroke="black" d="M322.211,-509.905C285.175,-496.919 220.109,-474.103 173.789,-457.861"/>
<polygon fill="none" stroke="black" points="174.801,-454.507 164.206,-454.501 172.485,-461.113 174.801,-454.507"/>
</g>
<!-- \\OSS\\SNMP\\MIBS\\LAG -->
<g id="node13" class="node"><title>\\OSS\\SNMP\\MIBS\\LAG</title>
<a xlink:href="SNMP.MIBS.LAG.html" xlink:title="LAG" target="_parent">
<polygon fill="none" stroke="black" points="378,-484 324,-484 324,-448 378,-448 378,-484"/>
<text text-anchor="middle" x="351" y="-463.1" font-family="Courier,monospace" font-size="11.00">LAG</text>
</a>
</g>
<!-- \\OSS\\SNMP\\MIBS\\LAG&#45;&gt;OSS\\SNMP\\MIB -->
<g id="edge19" class="edge"><title>\\OSS\\SNMP\\MIBS\\LAG&#45;&gt;OSS\\SNMP\\MIB</title>
<path fill="none" stroke="black" d="M323.594,-462.797C294.612,-459.409 247.411,-453.892 205.75,-449.023"/>
<polygon fill="none" stroke="black" points="205.911,-445.518 195.572,-447.833 205.098,-452.47 205.911,-445.518"/>
</g>
<!-- \\OSS\\SNMP\\MIBS\\Cisco -->
<g id="node14" class="node"><title>\\OSS\\SNMP\\MIBS\\Cisco</title>
<a xlink:href="SNMP.MIBS.Cisco.html" xlink:title="Cisco" target="_parent">
<polygon fill="none" stroke="black" points="378,-430 324,-430 324,-394 378,-394 378,-430"/>
<text text-anchor="middle" x="351" y="-409.1" font-family="Courier,monospace" font-size="11.00">Cisco</text>
</a>
</g>
<!-- \\OSS\\SNMP\\MIBS\\Cisco&#45;&gt;OSS\\SNMP\\MIB -->
<g id="edge21" class="edge"><title>\\OSS\\SNMP\\MIBS\\Cisco&#45;&gt;OSS\\SNMP\\MIB</title>
<path fill="none" stroke="black" d="M323.594,-415.203C294.612,-418.591 247.411,-424.108 205.75,-428.977"/>
<polygon fill="none" stroke="black" points="205.098,-425.53 195.572,-430.167 205.911,-432.482 205.098,-425.53"/>
</g>
<!-- \\OSS\\SNMP\\MIBS\\System -->
<g id="node15" class="node"><title>\\OSS\\SNMP\\MIBS\\System</title>
<a xlink:href="SNMP.MIBS.System.html" xlink:title="System" target="_parent">
<polygon fill="none" stroke="black" points="379,-376 323,-376 323,-340 379,-340 379,-376"/>
<text text-anchor="middle" x="351" y="-355.1" font-family="Courier,monospace" font-size="11.00">System</text>
</a>
</g>
<!-- \\OSS\\SNMP\\MIBS\\System&#45;&gt;OSS\\SNMP\\MIB -->
<g id="edge23" class="edge"><title>\\OSS\\SNMP\\MIBS\\System&#45;&gt;OSS\\SNMP\\MIB</title>
<path fill="none" stroke="black" d="M322.211,-368.095C285.175,-381.081 220.109,-403.897 173.789,-420.139"/>
<polygon fill="none" stroke="black" points="172.485,-416.887 164.206,-423.499 174.801,-423.493 172.485,-416.887"/>
</g>
<!-- \\OSS\\SNMP\\MIBS\\Host -->
<g id="node16" class="node"><title>\\OSS\\SNMP\\MIBS\\Host</title>
<a xlink:href="SNMP.MIBS.Host.html" xlink:title="Host" target="_parent">
<polygon fill="none" stroke="black" points="378,-322 324,-322 324,-286 378,-286 378,-322"/>
<text text-anchor="middle" x="351" y="-301.1" font-family="Courier,monospace" font-size="11.00">Host</text>
</a>
</g>
<!-- \\OSS\\SNMP\\MIBS\\Host&#45;&gt;OSS\\SNMP\\MIB -->
<g id="edge25" class="edge"><title>\\OSS\\SNMP\\MIBS\\Host&#45;&gt;OSS\\SNMP\\MIB</title>
<path fill="none" stroke="black" d="M323.908,-315.499C313.755,-320.042 302.21,-325.489 292,-331 242.582,-357.673 188.08,-392.96 153.947,-415.818"/>
<polygon fill="none" stroke="black" points="151.647,-413.147 145.303,-421.633 155.554,-418.956 151.647,-413.147"/>
</g>
<!-- \\OSS\\SNMP\\MIB -->
<g id="node18" class="node"><title>\\OSS\\SNMP\\MIB</title>
<a xlink:href="SNMP.MIB.html" xlink:title="MIB" target="_parent">
<polygon fill="none" stroke="black" points="378,-268 324,-268 324,-232 378,-232 378,-268"/>
<text text-anchor="middle" x="351" y="-247.1" font-family="Courier,monospace" font-size="11.00">MIB</text>
</a>
</g>
<!-- \\OSS\\Cache -->
<g id="node22" class="node"><title>\\OSS\\Cache</title>
<a xlink:href="Cache.html" xlink:title="Cache" target="_parent">
<polygon fill="none" stroke="black" points="378,-214 324,-214 324,-178 378,-178 378,-214"/>
<text text-anchor="middle" x="351" y="-193.1" font-family="Courier,monospace" font-size="11.00">Cache</text>
</a>
</g>
<!-- \\OSS\\Timer -->
<g id="node23" class="node"><title>\\OSS\\Timer</title>
<a xlink:href="Timer.html" xlink:title="Timer" target="_parent">
<polygon fill="none" stroke="black" points="378,-160 324,-160 324,-124 378,-124 378,-160"/>
<text text-anchor="middle" x="351" y="-139.1" font-family="Courier,monospace" font-size="11.00">Timer</text>
</a>
</g>
<!-- \\OSS\\SNMP -->
<g id="node24" class="node"><title>\\OSS\\SNMP</title>
<a xlink:href="SNMP.html" xlink:title="SNMP" target="_parent">
<polygon fill="none" stroke="black" points="378,-106 324,-106 324,-70 378,-70 378,-106"/>
<text text-anchor="middle" x="351" y="-85.1" font-family="Courier,monospace" font-size="11.00">SNMP</text>
</a>
</g>
<!-- \\OSS\\Exception -->
<g id="node25" class="node"><title>\\OSS\\Exception</title>
<a xlink:href="Exception.html" xlink:title="Exception" target="_parent">
<polygon fill="none" stroke="black" points="389,-52 313,-52 313,-16 389,-16 389,-52"/>
<text text-anchor="middle" x="351" y="-31.1" font-family="Courier,monospace" font-size="11.00">Exception</text>
</a>
</g>
<!-- Exception -->
<g id="node41" class="node"><title>Exception</title>
<ellipse fill="none" stroke="black" cx="120" cy="-34" rx="58.8978" ry="18.3848"/>
<text text-anchor="middle" x="120" y="-30.4" font-family="Times Roman,serif" font-size="14.00" fill="gray">Exception</text>
</g>
<!-- \\OSS\\Exception&#45;&gt;Exception -->
<g id="edge33" class="edge"><title>\\OSS\\Exception&#45;&gt;Exception</title>
<path fill="none" stroke="black" d="M312.336,-34C278.946,-34 229.877,-34 189.66,-34"/>
<polygon fill="none" stroke="black" points="189.641,-30.5001 179.641,-34 189.641,-37.5001 189.641,-30.5001"/>
</g>
</g>
</svg>
