<?xml version="1.0" encoding="UTF-8" standalone="no"?>
<!DOCTYPE svg PUBLIC "-//W3C//DTD SVG 1.1//EN"
 "http://www.w3.org/Graphics/SVG/1.1/DTD/svg11.dtd">
<!-- Generated by graphviz version 2.26.3 (20100126.1600)
 -->
<!-- Title: G Pages: 1 -->
<svg width="426pt" height="782pt"
 viewBox="0.00 0.00 426.00 782.00" xmlns="http://www.w3.org/2000/svg" xmlns:xlink="http://www.w3.org/1999/xlink">
<g id="graph1" class="graph" transform="scale(1 1) rotate(0) translate(4 778)">
<title>G</title>
<polygon fill="white" stroke="white" points="-4,5 -4,-778 423,-778 423,5 -4,5"/>
<g id="graph2" class="cluster"><title>cluster_OSS</title>
<polyline fill="none" stroke="gray" points="304,-8 398,-8 "/>
<path fill="none" stroke="gray" d="M398,-8C404,-8 410,-14 410,-20"/>
<polyline fill="none" stroke="gray" points="410,-20 410,-754 "/>
<path fill="none" stroke="gray" d="M410,-754C410,-760 404,-766 398,-766"/>
<polyline fill="none" stroke="gray" points="398,-766 304,-766 "/>
<path fill="none" stroke="gray" d="M304,-766C298,-766 292,-760 292,-754"/>
<polyline fill="none" stroke="gray" points="292,-754 292,-20 "/>
<path fill="none" stroke="gray" d="M292,-20C292,-14 298,-8 304,-8"/>
<text text-anchor="middle" x="351" y="-752.1" font-family="Times Roman,serif" font-size="11.00" fill="gray">OSS</text>
</g>
<g id="graph3" class="cluster"><title>cluster_OSS\SNMP</title>
<polyline fill="none" stroke="gray" points="312,-170 390,-170 "/>
<path fill="none" stroke="gray" d="M390,-170C396,-170 402,-176 402,-182"/>
<polyline fill="none" stroke="gray" points="402,-182 402,-724 "/>
<path fill="none" stroke="gray" d="M402,-724C402,-730 396,-736 390,-736"/>
<polyline fill="none" stroke="gray" points="390,-736 312,-736 "/>
<path fill="none" stroke="gray" d="M312,-736C306,-736 300,-730 300,-724"/>
<polyline fill="none" stroke="gray" points="300,-724 300,-182 "/>
<path fill="none" stroke="gray" d="M300,-182C300,-176 306,-170 312,-170"/>
<text text-anchor="middle" x="351" y="-722.1" font-family="Times Roman,serif" font-size="11.00" fill="gray">SNMP</text>
</g>
<g id="graph4" class="cluster"><title>cluster_OSS\SNMP\MIBS</title>
<polyline fill="none" stroke="gray" points="320,-224 382,-224 "/>
<path fill="none" stroke="gray" d="M382,-224C388,-224 394,-230 394,-236"/>
<polyline fill="none" stroke="gray" points="394,-236 394,-694 "/>
<path fill="none" stroke="gray" d="M394,-694C394,-700 388,-706 382,-706"/>
<polyline fill="none" stroke="gray" points="382,-706 320,-706 "/>
<path fill="none" stroke="gray" d="M320,-706C314,-706 308,-700 308,-694"/>
<polyline fill="none" stroke="gray" points="308,-694 308,-236 "/>
<path fill="none" stroke="gray" d="M308,-236C308,-230 314,-224 320,-224"/>
<text text-anchor="middle" x="351" y="-692.1" font-family="Times Roman,serif" font-size="11.00" fill="gray">MIBS</text>
</g>
<g id="graph5" class="cluster"><title>cluster_OSS\SNMP\MIBS\Cisco</title>
<polyline fill="none" stroke="gray" points="328,-494 374,-494 "/>
<path fill="none" stroke="gray" d="M374,-494C380,-494 386,-500 386,-506"/>
<polyline fill="none" stroke="gray" points="386,-506 386,-664 "/>
<path fill="none" stroke="gray" d="M386,-664C386,-670 380,-676 374,-676"/>
<polyline fill="none" stroke="gray" points="374,-676 328,-676 "/>
<path fill="none" stroke="gray" d="M328,-676C322,-676 316,-670 316,-664"/>
<polyline fill="none" stroke="gray" points="316,-664 316,-506 "/>
<path fill="none" stroke="gray" d="M316,-506C316,-500 322,-494 328,-494"/>
<text text-anchor="middle" x="351" y="-662.1" font-family="Times Roman,serif" font-size="11.00" fill="gray">Cisco</text>
</g>
<!-- \\OSS\\SNMP\\MIBS\\Cisco\\RSTP -->
<g id="node5" class="node"><title>\\OSS\\SNMP\\MIBS\\Cisco\\RSTP</title>
<a xlink:href="SNMP.MIBS.Cisco.RSTP.html" xlink:title="RSTP" target="_parent">
<polygon fill="none" stroke="black" points="378,-646 324,-646 324,-610 378,-610 378,-646"/>
<text text-anchor="middle" x="351" y="-625.1" font-family="Courier,monospace" font-size="11.00">RSTP</text>
</a>
</g>
<!-- OSS\\SNMP\\MIBS\\Cisco -->
<g id="node30" class="node"><title>OSS\\SNMP\\MIBS\\Cisco</title>
<ellipse fill="none" stroke="black" cx="120" cy="-574" rx="120.208" ry="18.3848"/>
<text text-anchor="middle" x="120" y="-570.4" font-family="Times Roman,serif" font-size="14.00" fill="gray">OSS\SNMP\MIBS\Cisco</text>
</g>
<!-- \\OSS\\SNMP\\MIBS\\Cisco\\RSTP&#45;&gt;OSS\\SNMP\\MIBS\\Cisco -->
<g id="edge22" class="edge"><title>\\OSS\\SNMP\\MIBS\\Cisco\\RSTP&#45;&gt;OSS\\SNMP\\MIBS\\Cisco</title>
<path fill="none" stroke="black" d="M323.594,-621.593C292.04,-614.217 238.887,-601.792 194.804,-591.487"/>
<polygon fill="none" stroke="black" points="195.505,-588.056 184.971,-589.188 193.911,-594.872 195.505,-588.056"/>
</g>
<!-- \\OSS\\SNMP\\MIBS\\Cisco\\VTP -->
<g id="node6" class="node"><title>\\OSS\\SNMP\\MIBS\\Cisco\\VTP</title>
<a xlink:href="SNMP.MIBS.Cisco.VTP.html" xlink:title="VTP" target="_parent">
<polygon fill="none" stroke="black" points="378,-592 324,-592 324,-556 378,-556 378,-592"/>
<text text-anchor="middle" x="351" y="-571.1" font-family="Courier,monospace" font-size="11.00">VTP</text>
</a>
</g>
<!-- \\OSS\\SNMP\\MIBS\\Cisco\\VTP&#45;&gt;OSS\\SNMP\\MIBS\\Cisco -->
<g id="edge24" class="edge"><title>\\OSS\\SNMP\\MIBS\\Cisco\\VTP&#45;&gt;OSS\\SNMP\\MIBS\\Cisco</title>
<path fill="none" stroke="black" d="M323.594,-574C304.754,-574 278.216,-574 250.505,-574"/>
<polygon fill="none" stroke="black" points="250.255,-570.5 240.255,-574 250.255,-577.5 250.255,-570.5"/>
</g>
<!-- \\OSS\\SNMP\\MIBS\\Cisco\\CDP -->
<g id="node7" class="node"><title>\\OSS\\SNMP\\MIBS\\Cisco\\CDP</title>
<a xlink:href="SNMP.MIBS.Cisco.CDP.html" xlink:title="CDP" target="_parent">
<polygon fill="none" stroke="black" points="378,-538 324,-538 324,-502 378,-502 378,-538"/>
<text text-anchor="middle" x="351" y="-517.1" font-family="Courier,monospace" font-size="11.00">CDP</text>
</a>
</g>
<!-- \\OSS\\SNMP\\MIBS\\Cisco\\CDP&#45;&gt;OSS\\SNMP\\MIBS\\Cisco -->
<g id="edge26" class="edge"><title>\\OSS\\SNMP\\MIBS\\Cisco\\CDP&#45;&gt;OSS\\SNMP\\MIBS\\Cisco</title>
<path fill="none" stroke="black" d="M323.594,-526.407C292.04,-533.783 238.887,-546.208 194.804,-556.513"/>
<polygon fill="none" stroke="black" points="193.911,-553.128 184.971,-558.812 195.505,-559.944 193.911,-553.128"/>
</g>
<!-- \\OSS\\SNMP\\MIBS\\Host -->
<g id="node8" class="node"><title>\\OSS\\SNMP\\MIBS\\Host</title>
<a xlink:href="SNMP.MIBS.Host.html" xlink:title="Host" target="_parent">
<polygon fill="none" stroke="black" points="378,-484 324,-484 324,-448 378,-448 378,-484"/>
<text text-anchor="middle" x="351" y="-463.1" font-family="Courier,monospace" font-size="11.00">Host</text>
</a>
</g>
<!-- OSS\\SNMP\\MIB -->
<g id="node24" class="node"><title>OSS\\SNMP\\MIB</title>
<ellipse fill="none" stroke="black" cx="120" cy="-358" rx="85.7684" ry="18.3848"/>
<text text-anchor="middle" x="120" y="-354.4" font-family="Times Roman,serif" font-size="14.00" fill="gray">OSS\SNMP\MIB</text>
</g>
<!-- \\OSS\\SNMP\\MIBS\\Host&#45;&gt;OSS\\SNMP\\MIB -->
<g id="edge12" class="edge"><title>\\OSS\\SNMP\\MIBS\\Host&#45;&gt;OSS\\SNMP\\MIB</title>
<path fill="none" stroke="black" d="M323.949,-453.696C313.905,-449.107 302.422,-443.838 292,-439 248.49,-418.8 198.946,-395.429 164.244,-378.998"/>
<polygon fill="none" stroke="black" points="165.402,-375.674 154.867,-374.556 162.406,-382 165.402,-375.674"/>
</g>
<!-- \\OSS\\SNMP\\MIBS\\Bridge -->
<g id="node9" class="node"><title>\\OSS\\SNMP\\MIBS\\Bridge</title>
<a xlink:href="SNMP.MIBS.Bridge.html" xlink:title="Bridge" target="_parent">
<polygon fill="none" stroke="black" points="379,-430 323,-430 323,-394 379,-394 379,-430"/>
<text text-anchor="middle" x="351" y="-409.1" font-family="Courier,monospace" font-size="11.00">Bridge</text>
</a>
</g>
<!-- \\OSS\\SNMP\\MIBS\\Bridge&#45;&gt;OSS\\SNMP\\MIB -->
<g id="edge14" class="edge"><title>\\OSS\\SNMP\\MIBS\\Bridge&#45;&gt;OSS\\SNMP\\MIB</title>
<path fill="none" stroke="black" d="M322.211,-405.27C288.703,-397.437 232.252,-384.241 187.497,-373.778"/>
<polygon fill="none" stroke="black" points="188.092,-370.323 177.558,-371.455 186.499,-377.14 188.092,-370.323"/>
</g>
<!-- \\OSS\\SNMP\\MIBS\\Iface -->
<g id="node10" class="node"><title>\\OSS\\SNMP\\MIBS\\Iface</title>
<a xlink:href="SNMP.MIBS.Iface.html" xlink:title="Iface" target="_parent">
<polygon fill="none" stroke="black" points="378,-376 324,-376 324,-340 378,-340 378,-376"/>
<text text-anchor="middle" x="351" y="-355.1" font-family="Courier,monospace" font-size="11.00">Iface</text>
</a>
</g>
<!-- \\OSS\\SNMP\\MIBS\\Iface&#45;&gt;OSS\\SNMP\\MIB -->
<g id="edge16" class="edge"><title>\\OSS\\SNMP\\MIBS\\Iface&#45;&gt;OSS\\SNMP\\MIB</title>
<path fill="none" stroke="black" d="M323.594,-358C297.155,-358 255.552,-358 216.827,-358"/>
<polygon fill="none" stroke="black" points="216.527,-354.5 206.527,-358 216.527,-361.5 216.527,-354.5"/>
</g>
<!-- \\OSS\\SNMP\\MIBS\\LAG -->
<g id="node11" class="node"><title>\\OSS\\SNMP\\MIBS\\LAG</title>
<a xlink:href="SNMP.MIBS.LAG.html" xlink:title="LAG" target="_parent">
<polygon fill="none" stroke="black" points="378,-322 324,-322 324,-286 378,-286 378,-322"/>
<text text-anchor="middle" x="351" y="-301.1" font-family="Courier,monospace" font-size="11.00">LAG</text>
</a>
</g>
<!-- \\OSS\\SNMP\\MIBS\\LAG&#45;&gt;OSS\\SNMP\\MIB -->
<g id="edge18" class="edge"><title>\\OSS\\SNMP\\MIBS\\LAG&#45;&gt;OSS\\SNMP\\MIB</title>
<path fill="none" stroke="black" d="M323.594,-310.407C290.303,-318.189 232.972,-331.591 187.614,-342.194"/>
<polygon fill="none" stroke="black" points="186.778,-338.795 177.837,-344.48 188.371,-345.611 186.778,-338.795"/>
</g>
<!-- \\OSS\\SNMP\\MIBS\\Cisco -->
<g id="node12" class="node"><title>\\OSS\\SNMP\\MIBS\\Cisco</title>
<a xlink:href="SNMP.MIBS.Cisco.html" xlink:title="Cisco" target="_parent">
<polygon fill="none" stroke="black" points="378,-268 324,-268 324,-232 378,-232 378,-268"/>
<text text-anchor="middle" x="351" y="-247.1" font-family="Courier,monospace" font-size="11.00">Cisco</text>
</a>
</g>
<!-- \\OSS\\SNMP\\MIBS\\Cisco&#45;&gt;OSS\\SNMP\\MIB -->
<g id="edge20" class="edge"><title>\\OSS\\SNMP\\MIBS\\Cisco&#45;&gt;OSS\\SNMP\\MIB</title>
<path fill="none" stroke="black" d="M323.949,-262.304C313.905,-266.893 302.422,-272.162 292,-277 248.49,-297.2 198.946,-320.571 164.244,-337.002"/>
<polygon fill="none" stroke="black" points="162.406,-334 154.867,-341.444 165.402,-340.326 162.406,-334"/>
</g>
<!-- \\OSS\\SNMP\\MIB -->
<g id="node14" class="node"><title>\\OSS\\SNMP\\MIB</title>
<a xlink:href="SNMP.MIB.html" xlink:title="MIB" target="_parent">
<polygon fill="none" stroke="black" points="378,-214 324,-214 324,-178 378,-178 378,-214"/>
<text text-anchor="middle" x="351" y="-193.1" font-family="Courier,monospace" font-size="11.00">MIB</text>
</a>
</g>
<!-- \\OSS\\Exception -->
<g id="node18" class="node"><title>\\OSS\\Exception</title>
<a xlink:href="Exception.html" xlink:title="Exception" target="_parent">
<polygon fill="none" stroke="black" points="389,-160 313,-160 313,-124 389,-124 389,-160"/>
<text text-anchor="middle" x="351" y="-139.1" font-family="Courier,monospace" font-size="11.00">Exception</text>
</a>
</g>
<!-- Exception -->
<g id="node22" class="node"><title>Exception</title>
<ellipse fill="none" stroke="black" cx="120" cy="-142" rx="58.8978" ry="18.3848"/>
<text text-anchor="middle" x="120" y="-138.4" font-family="Times Roman,serif" font-size="14.00" fill="gray">Exception</text>
</g>
<!-- \\OSS\\Exception&#45;&gt;Exception -->
<g id="edge10" class="edge"><title>\\OSS\\Exception&#45;&gt;Exception</title>
<path fill="none" stroke="black" d="M312.336,-142C278.946,-142 229.877,-142 189.66,-142"/>
<polygon fill="none" stroke="black" points="189.641,-138.5 179.641,-142 189.641,-145.5 189.641,-138.5"/>
</g>
<!-- \\OSS\\SNMP -->
<g id="node19" class="node"><title>\\OSS\\SNMP</title>
<a xlink:href="SNMP.html" xlink:title="SNMP" target="_parent">
<polygon fill="none" stroke="black" points="378,-106 324,-106 324,-70 378,-70 378,-106"/>
<text text-anchor="middle" x="351" y="-85.1" font-family="Courier,monospace" font-size="11.00">SNMP</text>
</a>
</g>
<!-- \\OSS\\Timer -->
<g id="node20" class="node"><title>\\OSS\\Timer</title>
<a xlink:href="Timer.html" xlink:title="Timer" target="_parent">
<polygon fill="none" stroke="black" points="378,-52 324,-52 324,-16 378,-16 378,-52"/>
<text text-anchor="middle" x="351" y="-31.1" font-family="Courier,monospace" font-size="11.00">Timer</text>
</a>
</g>
</g>
</svg>
